<svg width="112" height="112" viewBox="0 0 112 112" fill="none" xmlns="http://www.w3.org/2000/svg">
<g clip-path="url(#clip0_3014_219)">
<path d="M30.2531 -0.0674019C30.5269 -0.0708991 30.8008 -0.0743964 31.0829 -0.0779996C31.3803 -0.0793949 31.6777 -0.0805744 31.9751 -0.0815544C32.2827 -0.0835181 32.5903 -0.0855136 32.8979 -0.0875392C33.5422 -0.0911405 34.1865 -0.0928296 34.8308 -0.0934639C35.6519 -0.0946391 36.4728 -0.102873 37.2939 -0.112877C37.9293 -0.11942 38.5647 -0.120967 39.2002 -0.121185C39.5027 -0.122099 39.8051 -0.124796 40.1075 -0.129392C41.941 -0.155036 43.3634 -0.064559 44.8438 1.09337C45.3154 1.60009 45.3154 1.60009 45.6094 2.09142C45.7109 2.25412 45.8124 2.41683 45.917 2.58446C46.3812 3.5113 46.401 4.33141 46.3964 5.36242C46.3957 5.63594 46.395 5.90946 46.3942 6.19127C46.3924 6.47607 46.3906 6.76088 46.3887 7.05431C46.3877 7.3425 46.3867 7.63068 46.3857 7.9276C46.3831 8.63911 46.3792 9.35062 46.375 10.0621C45.2922 10.0621 44.2094 10.0621 43.0938 10.0621C43.0938 16.3424 43.0938 22.6227 43.0938 29.0934C43.4547 29.2377 43.8156 29.3821 44.1875 29.5309C48.5867 32.2413 51.2684 36.2326 52.5923 41.1973C52.8807 42.5282 52.9672 43.8033 52.9512 45.1578C52.9467 45.7037 52.9421 46.2497 52.9375 46.8121C55.1753 46.8121 57.4131 46.8121 59.7188 46.8121C59.7188 45.7293 59.7188 44.6465 59.7188 43.5309C60.1941 39.2873 62.0135 35.6335 64.9688 32.5934C65.092 32.4566 65.2152 32.3198 65.3422 32.1789C66.4316 31.0047 67.7458 30.1179 69.125 29.3121C69.2694 29.3121 69.4137 29.3121 69.5625 29.3121C69.5625 22.9596 69.5625 16.6071 69.5625 10.0621C68.2631 10.0621 66.9637 10.0621 65.625 10.0621C65.6072 9.07767 65.5942 8.09354 65.584 7.109C65.5757 6.69279 65.5757 6.69279 65.5673 6.26818C65.5531 4.44932 65.6851 3.1731 66.6367 1.59923C68.3298 -0.0492735 70.0364 -0.162588 72.3182 -0.137951C72.6251 -0.138133 72.932 -0.138672 73.2389 -0.13955C73.8789 -0.140172 74.5188 -0.136991 75.1588 -0.130955C75.975 -0.123492 76.7909 -0.124821 77.6072 -0.128912C78.2398 -0.131235 78.8724 -0.12926 79.5051 -0.125984C79.8059 -0.124859 80.1066 -0.124946 80.4074 -0.126322C82.3487 -0.131873 83.7978 -0.0549423 85.3176 1.25658C85.4152 1.37868 85.5128 1.50078 85.6133 1.62658C85.7647 1.80888 85.7647 1.80888 85.9192 1.99486C86.575 2.9994 86.6778 3.85245 86.6677 5.04198C86.6668 5.25815 86.6668 5.25815 86.6658 5.47869C86.6634 5.93558 86.6579 6.39237 86.6523 6.84923C86.6501 7.16041 86.6482 7.47159 86.6464 7.78276C86.6416 8.54258 86.634 9.30234 86.625 10.0621C85.7587 10.0621 84.8925 10.0621 84 10.0621C84 12.2277 84 14.3934 84 16.6246C83.2781 16.6246 82.5563 16.6246 81.8125 16.6246C81.8125 17.6352 81.8125 18.6459 81.8125 19.6871C82.5344 19.6871 83.2562 19.6871 84 19.6871C84 22.8634 84 26.0396 84 29.3121C84.4331 29.4565 84.8663 29.6009 85.3125 29.7496C85.7114 29.9855 85.7114 29.9855 86.0414 30.2418C86.1653 30.3376 86.2892 30.4335 86.4168 30.5322C86.5442 30.6349 86.6715 30.7376 86.8027 30.8434C86.9369 30.9508 87.071 31.0583 87.2092 31.169C90.9002 34.1885 93.0292 38.2017 93.8438 42.8746C93.8438 44.174 93.8438 45.4734 93.8438 46.8121C99.8353 46.8121 105.827 46.8121 112 46.8121C112 53.309 112 59.8059 112 66.4996C110.917 66.4996 109.834 66.4996 108.719 66.4996C108.719 67.5103 108.719 68.5209 108.719 69.5621C109.802 69.5621 110.884 69.5621 112 69.5621C112 76.059 112 82.5559 112 89.2496C110.917 89.2496 109.834 89.2496 108.719 89.2496C108.719 90.2603 108.719 91.2709 108.719 92.3121C109.802 92.3121 110.884 92.3121 112 92.3121C112 98.809 112 105.306 112 112C75.04 112 38.08 112 0 112C0 105.503 0 99.0059 0 92.3121C1.08281 92.3121 2.16563 92.3121 3.28125 92.3121C3.28125 91.3015 3.28125 90.2909 3.28125 89.2496C2.19844 89.2496 1.11562 89.2496 0 89.2496C0 82.7528 0 76.2559 0 69.5621C1.08281 69.5621 2.16563 69.5621 3.28125 69.5621C3.28125 68.5515 3.28125 67.5409 3.28125 66.4996C2.19844 66.4996 1.11562 66.4996 0 66.4996C0 60.0028 0 53.5059 0 46.8121C6.20812 46.8121 12.4163 46.8121 18.8125 46.8121C18.8125 45.4406 18.8125 44.069 18.8125 42.6559C19.0049 41.67 19.1824 40.7615 19.4688 39.8121C20.0463 39.9565 20.6237 40.1009 21.2188 40.2496C21.2413 40.1007 21.2639 39.9518 21.2871 39.7984C21.4697 39.0182 21.7645 38.3548 22.0938 37.6246C21.7328 37.4081 21.3719 37.1915 21 36.9684C21.3275 34.6557 23.5905 32.4125 25.3408 30.9963C27.9291 29.0934 27.9291 29.0934 28.6562 29.0934C28.6562 22.8131 28.6562 16.5327 28.6562 10.0621C27.5734 10.0621 26.4906 10.0621 25.375 10.0621C25.3548 9.15941 25.3374 8.25727 25.3269 7.35445C25.3226 7.04809 25.3166 6.74174 25.309 6.43544C25.2603 4.42835 25.2618 2.89478 26.632 1.307C26.7541 1.20943 26.8762 1.11186 27.002 1.01134C27.1235 0.910391 27.245 0.809442 27.3702 0.705433C28.3125 0.0903252 29.1375 -0.0565988 30.2531 -0.0674019ZM15.5312 66.4996C15.5312 67.5103 15.5312 68.5209 15.5312 69.5621C16.6141 69.5621 17.6969 69.5621 18.8125 69.5621C18.8125 68.5515 18.8125 67.5409 18.8125 66.4996C17.7297 66.4996 16.6469 66.4996 15.5312 66.4996ZM52.9375 66.4996C52.9375 67.5103 52.9375 68.5209 52.9375 69.5621C55.1753 69.5621 57.4131 69.5621 59.7188 69.5621C59.7188 68.5515 59.7188 67.5409 59.7188 66.4996C57.4809 66.4996 55.2431 66.4996 52.9375 66.4996ZM93.8438 66.4996C93.8438 67.5103 93.8438 68.5209 93.8438 69.5621C94.71 69.5621 95.5763 69.5621 96.4688 69.5621C96.4688 68.5515 96.4688 67.5409 96.4688 66.4996C95.6025 66.4996 94.7362 66.4996 93.8438 66.4996ZM15.5312 89.2496C15.5312 90.2603 15.5312 91.2709 15.5312 92.3121C16.6141 92.3121 17.6969 92.3121 18.8125 92.3121C18.8125 91.3015 18.8125 90.2909 18.8125 89.2496C17.7297 89.2496 16.6469 89.2496 15.5312 89.2496ZM52.9375 89.2496C52.9375 90.2603 52.9375 91.2709 52.9375 92.3121C55.1753 92.3121 57.4131 92.3121 59.7188 92.3121C59.7188 91.3015 59.7188 90.2909 59.7188 89.2496C57.4809 89.2496 55.2431 89.2496 52.9375 89.2496ZM93.8438 89.2496C93.8438 90.2603 93.8438 91.2709 93.8438 92.3121C94.71 92.3121 95.5763 92.3121 96.4688 92.3121C96.4688 91.3015 96.4688 90.2909 96.4688 89.2496C95.6025 89.2496 94.7362 89.2496 93.8438 89.2496Z" fill="#010201"/>
<path d="M22.0938 89.25C31.1894 89.25 40.285 89.25 49.6562 89.25C49.6562 90.3328 49.6562 91.4156 49.6562 92.5312C44.3144 92.5312 38.9725 92.5312 33.4688 92.5312C33.4688 93.6141 33.4688 94.6969 33.4688 95.8125C58.3012 95.8125 83.1338 95.8125 108.719 95.8125C108.719 100.072 108.719 104.331 108.719 108.719C73.9244 108.719 39.13 108.719 3.28125 108.719C3.28125 104.46 3.28125 100.201 3.28125 95.8125C12.1603 95.8125 21.0394 95.8125 30.1875 95.8125C30.1875 94.7297 30.1875 93.6469 30.1875 92.5312C27.5166 92.5312 24.8456 92.5312 22.0938 92.5312C22.0938 91.4484 22.0938 90.3656 22.0938 89.25Z" fill="#DDCA9F"/>
<path d="M63 66.5C72.0956 66.5 81.1912 66.5 90.5625 66.5C90.5625 67.5106 90.5625 68.5212 90.5625 69.5625C87.675 69.5625 84.7875 69.5625 81.8125 69.5625C81.8125 70.7175 81.8125 71.8725 81.8125 73.0625C90.6916 73.0625 99.5706 73.0625 108.719 73.0625C108.719 77.3216 108.719 81.5806 108.719 85.9688C73.9244 85.9688 39.13 85.9688 3.28125 85.9688C3.28125 81.7097 3.28125 77.4506 3.28125 73.0625C28.1137 73.0625 52.9463 73.0625 78.5312 73.0625C78.5312 71.9797 78.5312 70.8969 78.5312 69.7812C73.4059 69.7812 68.2806 69.7812 63 69.7812C63 68.6984 63 67.6156 63 66.5Z" fill="#DDCA9F"/>
<path d="M3.28125 50.0938C38.0756 50.0938 72.87 50.0938 108.719 50.0938C108.719 54.425 108.719 58.7563 108.719 63.2188C73.9244 63.2188 39.13 63.2188 3.28125 63.2188C3.28125 58.8875 3.28125 54.5562 3.28125 50.0938Z" fill="#DBC89D"/>
<path d="M6.5625 77.875C7.7175 77.875 8.8725 77.875 10.0625 77.875C10.0625 78.8856 10.0625 79.8962 10.0625 80.9375C15.1878 80.9375 20.3131 80.9375 25.5938 80.9375C25.5938 81.515 25.5938 82.0925 25.5938 82.6875C26.7488 82.6875 27.9037 82.6875 29.0938 82.6875C29.0938 82.11 29.0938 81.5325 29.0938 80.9375C30.1044 80.9375 31.115 80.9375 32.1562 80.9375C32.1562 80.4322 32.1562 79.9269 32.1562 79.4062C35.1159 79.4062 38.0756 79.4062 41.125 79.4062C41.125 79.9116 41.125 80.4169 41.125 80.9375C61.1931 80.9375 81.2613 80.9375 101.938 80.9375C101.938 79.9269 101.938 78.9163 101.938 77.875C103.093 77.875 104.247 77.875 105.438 77.875C105.438 78.8856 105.438 79.8962 105.438 80.9375C106.52 80.9375 107.603 80.9375 108.719 80.9375C108.719 82.5978 108.719 84.2581 108.719 85.9688C73.9244 85.9688 39.13 85.9688 3.28125 85.9688C3.28125 84.3084 3.28125 82.6481 3.28125 80.9375C4.36406 80.9375 5.44688 80.9375 6.5625 80.9375C6.5625 79.9269 6.5625 78.9163 6.5625 77.875Z" fill="#D1B67F"/>
<path d="M6.5625 54.9081C7.36784 54.9013 7.36784 54.9013 8.18945 54.8944C8.35877 54.8924 8.52808 54.8904 8.70252 54.8884C9.08299 54.8868 9.46344 54.8971 9.84375 54.9081C10.6189 55.6832 10.0625 57.0932 10.0625 58.1893C40.3813 58.1893 70.7 58.1893 101.938 58.1893C101.938 57.1787 101.938 56.1681 101.938 55.1268C102.156 54.9081 102.156 54.9081 102.895 54.8867C103.2 54.888 103.506 54.8908 103.811 54.8944C104.347 54.8989 104.884 54.9034 105.438 54.9081C105.438 55.9909 105.438 57.0737 105.438 58.1893C106.52 58.1893 107.603 58.1893 108.719 58.1893C108.719 59.8496 108.719 61.51 108.719 63.2206C73.9244 63.2206 39.13 63.2206 3.28125 63.2206C3.28125 61.5603 3.28125 59.9 3.28125 58.1893C4.36406 58.1893 5.44688 58.1893 6.5625 58.1893C6.5625 57.1065 6.5625 56.0237 6.5625 54.9081Z" fill="#CFB57E"/>
<path d="M6.5625 100.625C7.7175 100.625 8.8725 100.625 10.0625 100.625C10.0625 101.708 10.0625 102.791 10.0625 103.906C30.1306 103.906 50.1988 103.906 70.875 103.906C70.875 104.412 70.875 104.917 70.875 105.438C72.03 105.438 73.185 105.438 74.375 105.438C74.375 104.932 74.375 104.427 74.375 103.906C75.3856 103.906 76.3962 103.906 77.4375 103.906C77.4375 103.329 77.4375 102.751 77.4375 102.156C80.3972 102.156 83.3569 102.156 86.4062 102.156C86.4062 102.662 86.4062 103.167 86.4062 103.688C91.5316 103.688 96.6569 103.688 101.938 103.688C101.938 102.677 101.938 101.666 101.938 100.625C103.093 100.625 104.247 100.625 105.438 100.625C105.438 101.708 105.438 102.791 105.438 103.906C106.52 103.906 107.603 103.906 108.719 103.906C108.719 105.494 108.719 107.082 108.719 108.719C73.9244 108.719 39.13 108.719 3.28125 108.719C3.28125 107.131 3.28125 105.543 3.28125 103.906C4.36406 103.906 5.44688 103.906 6.5625 103.906C6.5625 102.823 6.5625 101.741 6.5625 100.625Z" fill="#D3B881"/>
<path d="M31.9375 9.84375C34.4641 9.84375 36.9906 9.84375 39.5938 9.84375C39.5938 16.9181 39.5938 23.9925 39.5938 31.2812C40.2434 31.4978 40.8931 31.7144 41.5625 31.9375C45.1206 33.8466 47.6007 36.9299 49 40.6875C49.4375 42.4375 49.4375 42.4375 49.4375 46.8125C40.4141 46.8125 31.3906 46.8125 22.0938 46.8125C22.0938 42.875 22.0938 42.875 22.75 40.9062C22.2447 40.7619 21.7394 40.6175 21.2188 40.4688C21.3375 39.2817 21.7577 38.4443 22.3125 37.4062C22.89 37.6228 23.4675 37.8394 24.0625 38.0625C24.1166 37.906 24.1708 37.7495 24.2266 37.5883C25.5557 34.577 28.6215 32.6201 31.5 31.2812C31.6444 31.2812 31.7887 31.2812 31.9375 31.2812C31.9375 24.2069 31.9375 17.1325 31.9375 9.84375Z" fill="#C5EDBA"/>
<path d="M73.0625 9.84375C75.5891 9.84375 78.1156 9.84375 80.7188 9.84375C80.7188 12.0816 80.7188 14.3194 80.7188 16.625C81.0797 16.625 81.4406 16.625 81.8125 16.625C81.8125 17.7078 81.8125 18.7906 81.8125 19.9062C81.4516 19.9062 81.0906 19.9062 80.7188 19.9062C80.7909 23.7322 80.8631 27.5581 80.9375 31.5C81.9481 32.0053 82.9587 32.5106 84 33.0312C86.4033 34.7954 88.2588 36.8393 89.4688 39.5938C89.4688 39.8103 89.4688 40.0269 89.4688 40.25C85.715 40.25 81.9613 40.25 78.0938 40.25C78.0938 41.405 78.0938 42.56 78.0938 43.75C82.2084 43.75 86.3231 43.75 90.5625 43.75C90.5625 44.7606 90.5625 45.7712 90.5625 46.8125C81.5391 46.8125 72.5156 46.8125 63.2188 46.8125C63.2188 41.8909 63.99 38.4146 67.4288 34.9248C68.8037 33.5987 71.0392 31.5 73.0625 31.5C73.0625 24.3534 73.0625 17.2069 73.0625 9.84375Z" fill="#C5EDBA"/>
<path d="M22.5313 41.5625C22.6034 41.7069 22.6756 41.8512 22.75 42C31.4125 42 40.075 42 49 42C49.0722 41.8556 49.1444 41.7113 49.2188 41.5625C49.6436 43.2617 49.4375 45.061 49.4375 46.8125C40.4141 46.8125 31.3906 46.8125 22.0938 46.8125C22.0938 43.1211 22.0938 43.1211 22.5313 41.5625Z" fill="#A9E699"/>
<path d="M63.4375 41.7812C67.4439 41.8895 67.4439 41.8895 71.5312 42C71.5312 42.5053 71.5312 43.0106 71.5312 43.5312C72.6141 43.5312 73.6969 43.5312 74.8125 43.5312C74.8125 43.0259 74.8125 42.5206 74.8125 42C75.8953 42 76.9781 42 78.0938 42C78.0938 42.5775 78.0938 43.155 78.0938 43.75C82.2084 43.75 86.3231 43.75 90.5625 43.75C90.5625 44.7606 90.5625 45.7712 90.5625 46.8125C81.5391 46.8125 72.5156 46.8125 63.2188 46.8125C63.2188 42.6562 63.2188 42.6562 63.4375 41.7812Z" fill="#A9E699"/>
<path d="M22.0938 89.25C31.1894 89.25 40.285 89.25 49.6562 89.25C49.6562 90.3328 49.6562 91.4156 49.6562 92.5312C44.3144 92.5312 38.9725 92.5312 33.4688 92.5312C33.4688 93.6141 33.4688 94.6969 33.4688 95.8125C33.3966 95.8125 33.3244 95.8125 33.25 95.8125C33.25 95.235 33.25 94.6575 33.25 94.0625C32.2394 94.0625 31.2288 94.0625 30.1875 94.0625C30.1875 93.5572 30.1875 93.0519 30.1875 92.5312C27.5166 92.5312 24.8456 92.5312 22.0938 92.5312C22.0938 91.4484 22.0938 90.3656 22.0938 89.25Z" fill="#A7E297"/>
<path d="M63 66.5C72.0956 66.5 81.1912 66.5 90.5625 66.5C90.5625 67.5106 90.5625 68.5212 90.5625 69.5625C87.675 69.5625 84.7875 69.5625 81.8125 69.5625C81.8125 70.14 81.8125 70.7175 81.8125 71.3125C80.8019 71.3125 79.7913 71.3125 78.75 71.3125C78.75 71.89 78.75 72.4675 78.75 73.0625C78.6778 73.0625 78.6056 73.0625 78.5312 73.0625C78.5312 71.9797 78.5312 70.8969 78.5312 69.7812C73.4059 69.7812 68.2806 69.7812 63 69.7812C63 68.6984 63 67.6156 63 66.5Z" fill="#A6E196"/>
<path d="M63 89.25C72.0956 89.25 81.1912 89.25 90.5625 89.25C90.5625 90.3328 90.5625 91.4156 90.5625 92.5312C81.4669 92.5312 72.3713 92.5312 63 92.5312C63 91.4484 63 90.3656 63 89.25Z" fill="#A6E297"/>
<path d="M22.0938 66.5C31.1894 66.5 40.285 66.5 49.6562 66.5C49.6562 67.5828 49.6562 68.6656 49.6562 69.7812C40.5606 69.7812 31.465 69.7812 22.0938 69.7812C22.0938 68.6984 22.0938 67.6156 22.0938 66.5Z" fill="#A4DF94"/>
<path d="M71.1864 3.17028C71.5423 3.1672 71.5423 3.1672 71.9054 3.16406C72.1607 3.16652 72.4159 3.16898 72.6788 3.17151C72.942 3.17119 73.2053 3.17087 73.4765 3.17054C74.0331 3.17091 74.5897 3.17344 75.1462 3.17797C75.998 3.1843 76.8494 3.18248 77.7011 3.17963C78.2419 3.18099 78.7826 3.18283 79.3234 3.18518C79.5781 3.18454 79.8329 3.1839 80.0954 3.18324C80.3334 3.18601 80.5714 3.18878 80.8165 3.19164C81.0252 3.19283 81.2339 3.19401 81.4489 3.19522C82.1433 3.29634 82.5591 3.52763 83.125 3.93628C83.3438 4.37378 83.3438 4.37378 83.3438 6.56128C78.6516 6.56128 73.9594 6.56128 69.125 6.56128C69.125 4.15503 69.125 4.15503 69.4883 3.574C70.1033 3.2207 70.4784 3.1704 71.1864 3.17028Z" fill="#F8ED92"/>
<path d="M32.4502 3.14318C32.7131 3.14265 32.976 3.14213 33.2469 3.14158C33.8022 3.1418 34.3575 3.14473 34.9127 3.15018C35.7626 3.15768 36.6119 3.1547 37.4618 3.15044C38.0015 3.15195 38.5413 3.15407 39.0811 3.15685C39.4622 3.15522 39.4622 3.15522 39.851 3.15356C40.8237 3.16777 41.5929 3.20313 42.4969 3.57561C42.875 4.15575 42.875 4.15575 42.875 6.562C38.1828 6.562 33.4906 6.562 28.6562 6.562C28.6562 4.3745 28.6562 4.3745 29.0344 3.69951C30.1421 3.05129 31.1888 3.12878 32.4502 3.14318Z" fill="#F8ED92"/>
<path d="M77.4375 102.156C80.325 102.156 83.2125 102.156 86.1875 102.156C86.1875 103.239 86.1875 104.322 86.1875 105.438C83.3 105.438 80.4125 105.438 77.4375 105.438C77.4375 104.355 77.4375 103.272 77.4375 102.156Z" fill="#010101"/>
<path d="M32.375 79.4062C35.2625 79.4062 38.15 79.4062 41.125 79.4062C41.125 80.4891 41.125 81.5719 41.125 82.6875C38.2375 82.6875 35.35 82.6875 32.375 82.6875C32.375 81.6047 32.375 80.5219 32.375 79.4062Z" fill="#040302"/>
<path d="M99.9688 89.25C101.773 89.25 103.578 89.25 105.438 89.25C105.438 90.3328 105.438 91.4156 105.438 92.5312C103.633 92.5312 101.828 92.5312 99.9688 92.5312C99.9688 91.4484 99.9688 90.3656 99.9688 89.25Z" fill="#D4D3D6"/>
<path d="M6.5625 89.25C8.36719 89.25 10.1719 89.25 12.0312 89.25C12.0312 90.3328 12.0312 91.4156 12.0312 92.5312C10.2266 92.5312 8.42188 92.5312 6.5625 92.5312C6.5625 91.4484 6.5625 90.3656 6.5625 89.25Z" fill="#D4D3D6"/>
<path d="M99.9688 66.5C101.773 66.5 103.578 66.5 105.438 66.5C105.438 67.5828 105.438 68.6656 105.438 69.7812C103.633 69.7812 101.828 69.7812 99.9688 69.7812C99.9688 68.6984 99.9688 67.6156 99.9688 66.5Z" fill="#D1D0D3"/>
<path d="M6.5625 66.5C8.36719 66.5 10.1719 66.5 12.0312 66.5C12.0312 67.5828 12.0312 68.6656 12.0312 69.7812C10.2266 69.7812 8.42188 69.7812 6.5625 69.7812C6.5625 68.6984 6.5625 67.6156 6.5625 66.5Z" fill="#D1D0D3"/>
<path d="M102.156 54.9062C103.239 54.9062 104.322 54.9062 105.438 54.9062C105.438 56.0613 105.438 57.2162 105.438 58.4062C104.355 58.4062 103.272 58.4062 102.156 58.4062C102.156 57.2512 102.156 56.0963 102.156 54.9062Z" fill="#0D0C09"/>
<path d="M6.5625 54.9062C7.64531 54.9062 8.72813 54.9062 9.84375 54.9062C9.84375 56.0613 9.84375 57.2162 9.84375 58.4062C8.76094 58.4062 7.67812 58.4062 6.5625 58.4062C6.5625 57.2512 6.5625 56.0963 6.5625 54.9062Z" fill="#0D0C09"/>
<path d="M70.875 102.156C71.9578 102.156 73.0406 102.156 74.1562 102.156C74.1562 103.239 74.1562 104.322 74.1562 105.438C73.0734 105.438 71.9906 105.438 70.875 105.438C70.875 104.355 70.875 103.272 70.875 102.156Z" fill="#FEFEFD"/>
<path d="M102.156 100.625C103.239 100.625 104.322 100.625 105.438 100.625C105.438 101.708 105.438 102.791 105.438 103.906C104.355 103.906 103.272 103.906 102.156 103.906C102.156 102.823 102.156 101.741 102.156 100.625Z" fill="#010101"/>
<path d="M6.5625 100.625C7.64531 100.625 8.72813 100.625 9.84375 100.625C9.84375 101.708 9.84375 102.791 9.84375 103.906C8.76094 103.906 7.67812 103.906 6.5625 103.906C6.5625 102.823 6.5625 101.741 6.5625 100.625Z" fill="#010101"/>
<path d="M25.8125 79.4062C26.8953 79.4062 27.9781 79.4062 29.0938 79.4062C29.0938 80.4891 29.0938 81.5719 29.0938 82.6875C28.0109 82.6875 26.9281 82.6875 25.8125 82.6875C25.8125 81.6047 25.8125 80.5219 25.8125 79.4062Z" fill="#FDFCFB"/>
<path d="M102.156 77.875C103.239 77.875 104.322 77.875 105.438 77.875C105.438 78.9578 105.438 80.0406 105.438 81.1562C104.355 81.1562 103.272 81.1562 102.156 81.1562C102.156 80.0734 102.156 78.9906 102.156 77.875Z" fill="#040403"/>
<path d="M6.5625 77.875C7.64531 77.875 8.72813 77.875 9.84375 77.875C9.84375 78.9578 9.84375 80.0406 9.84375 81.1562C8.76094 81.1562 7.67812 81.1562 6.5625 81.1562C6.5625 80.0734 6.5625 78.9906 6.5625 77.875Z" fill="#040403"/>
<path d="M71.5312 40.25C72.6141 40.25 73.6969 40.25 74.8125 40.25C74.8125 41.3328 74.8125 42.4156 74.8125 43.5312C73.7297 43.5312 72.6469 43.5312 71.5312 43.5312C71.5312 42.4484 71.5312 41.3656 71.5312 40.25Z" fill="#FDFEFC"/>
</g>
<defs>
<clipPath id="clip0_3014_219">
<rect width="112" height="112" fill="white"/>
</clipPath>
</defs>
</svg>
