<svg width="200" height="81" viewBox="0 0 200 81" fill="none" xmlns="http://www.w3.org/2000/svg">
<path fill-rule="evenodd" clip-rule="evenodd" d="M92.4838 64.0074H94.8092V78.6485H92.4838V77.5349C92.0351 78.0298 91.5863 78.3598 91.0968 78.6072C90.648 78.8135 90.1177 78.9372 89.5873 78.9372C88.3635 78.9372 87.3436 78.401 86.4461 77.37C85.5486 76.2977 85.1406 75.0192 85.1406 73.4519C85.1406 71.8847 85.5486 70.4825 86.4053 69.4514C87.262 68.4204 88.2819 67.8842 89.5058 67.8842C90.0769 67.8842 90.6072 68.008 91.0968 68.2554C91.5863 68.5029 92.0351 68.8328 92.443 69.3277V64.0899L92.4838 64.0074ZM89.9953 70.235C89.261 70.235 88.649 70.5237 88.2003 71.1011C87.7107 71.6785 87.466 72.4209 87.466 73.3282C87.466 74.2356 87.7107 74.9779 88.2003 75.5966C88.6898 76.1739 89.3018 76.4626 89.9953 76.4626C90.6888 76.4626 91.3416 76.1739 91.8311 75.5966C92.3207 75.0192 92.5654 74.2768 92.5654 73.3282C92.5654 72.3797 92.3207 71.6785 91.8311 71.1011C91.3416 70.5237 90.7296 70.235 89.9953 70.235ZM96.6042 68.0904H98.6032V69.4514C98.8072 68.9153 99.0927 68.5441 99.4599 68.2554C99.827 67.9667 100.194 67.843 100.643 67.843C100.929 67.843 101.255 67.9255 101.581 68.1317L100.847 70.4C100.561 70.235 100.357 70.1526 100.194 70.1526C99.827 70.1526 99.5415 70.4 99.2967 70.8949C99.0519 71.3898 98.9295 72.3796 98.9295 73.8644V74.3593V78.6072H96.6042V68.0492V68.0904ZM103.703 63.76C104.111 63.76 104.478 63.925 104.763 64.2549C105.049 64.5848 105.212 64.9973 105.212 65.4509C105.212 65.9046 105.049 66.317 104.763 66.647C104.478 66.9769 104.111 67.1419 103.703 67.1419C103.295 67.1419 102.928 66.9769 102.642 66.647C102.356 66.317 102.193 65.9046 102.193 65.4097C102.193 64.9148 102.356 64.5436 102.642 64.2137C102.928 63.8837 103.295 63.7188 103.703 63.7188V63.76ZM102.52 68.0904H104.845V78.6485H102.52V68.0904ZM106.966 68.0904H109.292V69.1627C109.822 68.6678 110.312 68.2967 110.719 68.1317C111.168 67.9255 111.576 67.843 112.025 67.843C112.963 67.843 113.738 68.2142 114.391 68.9565C114.921 69.5752 115.207 70.4825 115.207 71.7198V78.6897H112.882V74.0706C112.882 72.8333 112.841 71.9672 112.718 71.5548C112.637 71.1424 112.433 70.8124 112.188 70.6062C111.943 70.4 111.617 70.2763 111.25 70.2763C110.76 70.2763 110.352 70.4413 110.026 70.8124C109.7 71.1836 109.455 71.6785 109.332 72.2972C109.251 72.6271 109.21 73.3282 109.21 74.4418V78.6485H106.885V68.0904H106.966ZM117.532 64.0074H119.858V72.4209L123.325 68.0904H126.222L122.224 73.122L126.711 78.6485H123.815L119.858 73.7819V78.6485H117.532V64.0074ZM133.402 69.5752L131.974 71.2249C131.403 70.565 130.873 70.235 130.383 70.235C130.138 70.235 129.934 70.3175 129.771 70.4413C129.608 70.565 129.567 70.73 129.567 70.8949C129.567 71.0187 129.608 71.1836 129.689 71.2661C129.771 71.3898 130.016 71.5548 130.383 71.761L131.24 72.2559C132.137 72.7508 132.749 73.287 133.116 73.7819C133.443 74.318 133.606 74.8954 133.606 75.5966C133.606 76.5451 133.32 77.3287 132.708 77.9474C132.096 78.566 131.28 78.8959 130.261 78.8959C128.914 78.8959 127.813 78.2773 126.997 77.0813L128.425 75.3079C128.71 75.679 129.037 75.9677 129.404 76.1739C129.771 76.3802 130.097 76.5039 130.383 76.5039C130.709 76.5039 130.954 76.4214 131.117 76.2564C131.321 76.0915 131.403 75.8853 131.403 75.679C131.403 75.2666 131.076 74.8954 130.383 74.483L129.608 74.0293C128.098 73.1633 127.323 72.091 127.323 70.8124C127.323 69.9876 127.609 69.2865 128.18 68.6678C128.751 68.0904 129.485 67.8017 130.342 67.8017C130.954 67.8017 131.525 67.9667 132.056 68.2554C132.586 68.5441 133.035 68.9978 133.402 69.5339V69.5752ZM140.296 68.0904H142.622V69.3277C143.03 68.8328 143.478 68.4616 143.968 68.2142C144.457 67.9667 144.988 67.843 145.559 67.843C146.13 67.843 146.66 68.008 147.15 68.3379C147.64 68.6678 148.007 69.1215 148.292 69.7814C148.659 69.1627 149.108 68.6678 149.679 68.3379C150.21 68.008 150.822 67.843 151.474 67.843C152.127 67.843 152.739 68.008 153.229 68.3791C153.718 68.7091 154.085 69.204 154.33 69.7401C154.534 70.3175 154.656 71.2249 154.656 72.5034V78.6897H152.331V73.3695C152.331 72.1734 152.209 71.3486 151.923 70.9362C151.637 70.5237 151.27 70.3175 150.74 70.3175C150.332 70.3175 149.965 70.4413 149.638 70.6887C149.312 70.9362 149.067 71.3073 148.904 71.761C148.741 72.2147 148.659 72.957 148.659 73.9469V78.6897H146.334V73.6169C146.334 72.6683 146.252 72.0085 146.13 71.5548C146.008 71.1424 145.804 70.8124 145.559 70.6062C145.314 70.4 145.029 70.3175 144.661 70.3175C144.253 70.3175 143.927 70.4413 143.601 70.6887C143.274 70.9362 143.03 71.3073 142.866 71.8023C142.703 72.2559 142.622 72.9983 142.622 74.0293V78.6897H140.296V68.1317V68.0904ZM163.713 68.0904H166.038V78.6485H163.713V77.5349C163.264 78.0298 162.815 78.3598 162.326 78.6072C161.877 78.8135 161.347 78.9372 160.816 78.9372C159.593 78.9372 158.573 78.401 157.675 77.37C156.778 76.2977 156.37 75.0192 156.37 73.4519C156.37 71.8847 156.778 70.4825 157.634 69.4514C158.491 68.4204 159.511 67.8842 160.735 67.8842C161.306 67.8842 161.836 68.008 162.326 68.2554C162.815 68.5029 163.264 68.8328 163.672 69.3277V68.1729L163.713 68.0904ZM161.265 70.235C160.531 70.235 159.919 70.5237 159.47 71.1011C158.981 71.6785 158.736 72.4209 158.736 73.3282C158.736 74.2356 158.981 74.9779 159.47 75.5966C159.96 76.1739 160.572 76.4626 161.265 76.4626C161.959 76.4626 162.611 76.1739 163.101 75.5966C163.591 75.0192 163.835 74.2768 163.835 73.3282C163.835 72.3797 163.591 71.6785 163.101 71.1011C162.611 70.5237 162 70.235 161.265 70.235ZM167.874 68.0904H169.873V69.4514C170.077 68.9153 170.363 68.5441 170.73 68.2554C171.097 67.9667 171.464 67.843 171.913 67.843C172.198 67.843 172.525 67.9255 172.851 68.1317L172.117 70.4C171.831 70.235 171.627 70.1526 171.423 70.1526C171.056 70.1526 170.771 70.4 170.526 70.8949C170.281 71.3898 170.159 72.3796 170.159 73.8644V74.3593V78.6072H167.833V68.0492L167.874 68.0904ZM174.034 64.0074H176.36V72.4209L179.827 68.0904H182.724L178.726 73.122L183.213 78.6485H180.317L176.36 73.7819V78.6485H174.034V64.0074ZM193.535 74.1118H186.028C186.151 74.8542 186.436 75.4728 186.885 75.9265C187.334 76.3802 187.946 76.5864 188.68 76.5864C189.537 76.5864 190.312 76.2564 190.924 75.5553L192.882 76.5864C192.392 77.37 191.821 77.9474 191.128 78.3185C190.434 78.6897 189.618 78.8959 188.68 78.8959C187.211 78.8959 186.028 78.3598 185.131 77.3287C184.233 76.2977 183.744 74.9779 183.744 73.4107C183.744 71.8435 184.192 70.4825 185.131 69.4102C186.028 68.3379 187.211 67.8017 188.558 67.8017C190.026 67.8017 191.209 68.3379 192.148 69.369C193.086 70.4413 193.535 71.8435 193.535 73.5757V74.0706V74.1118ZM191.209 72.0497C191.046 71.4723 190.76 71.0186 190.312 70.6475C189.863 70.2763 189.333 70.1113 188.721 70.1113C188.068 70.1113 187.497 70.3175 187.007 70.73C186.681 70.9774 186.395 71.4311 186.151 72.0497H191.209ZM195.697 64.1724H198.022V68.0492H199.409V70.3175H198.022V78.566H195.697V70.3175H194.514V68.0492H195.697V64.1724Z" fill="#F37121"/>
<path d="M75.9614 2.92969H0V7.42511H75.9614V2.92969Z" fill="#F37121"/>
<path d="M154.778 2.92969H97.2969V7.42511H154.778V2.92969Z" fill="#F37121"/>
<path d="M197.208 2.92969H175.953V7.42511H197.208V2.92969Z" fill="#F37121"/>
<path fill-rule="evenodd" clip-rule="evenodd" d="M6.07855 38.1092V51.8841H8.68947C9.91333 51.8841 10.8924 51.7191 11.586 51.348C12.2795 50.9768 12.8098 50.4819 13.177 49.822C13.5441 49.1621 13.7481 48.4198 13.8297 47.5124C13.9113 46.6463 13.9521 45.6565 13.9521 44.6255C13.9521 43.5944 13.9113 42.6046 13.7889 41.7797C13.6665 40.9961 13.4218 40.295 13.0546 39.7176C12.6466 39.1402 12.1163 38.7278 11.4228 38.4803C10.7292 38.2329 9.83174 38.0679 8.73026 38.0679H6.03775L6.07855 38.1092ZM6.07855 20.8286V32.6652H8.81185C10.8516 32.6652 12.1979 32.1703 12.8914 31.1392C13.5849 30.1081 13.9521 28.6234 13.9521 26.6438C13.9521 24.6642 13.5441 23.2619 12.769 22.3133C11.9939 21.3648 10.6069 20.8699 8.56708 20.8699H6.07855V20.8286ZM0 58.0292V15.0547H8.89344C10.8516 15.0547 12.5243 15.3434 13.8705 15.962C15.2576 16.5807 16.359 17.3643 17.2565 18.3953C18.1133 19.3851 18.766 20.5399 19.1331 21.8597C19.5003 23.1794 19.7043 24.5404 19.7043 25.9427V27.5099C19.7043 28.6647 19.6227 29.6545 19.4187 30.4793C19.2555 31.3042 18.97 32.0053 18.6028 32.5827C17.9093 33.6962 16.8894 34.6861 15.5023 35.4697C16.9302 36.1708 17.9909 37.1606 18.6844 38.4803C19.3779 39.8001 19.7043 41.6148 19.7043 43.9243V46.3576C19.7043 50.1519 18.8068 53.0389 16.971 55.0598C15.176 57.0807 12.2795 58.0705 8.28151 58.0705H0V58.0292Z" fill="#F37121"/>
<path fill-rule="evenodd" clip-rule="evenodd" d="M31.5334 20.8286V34.2324H35.001C36.0617 34.2324 36.9184 34.0674 37.5712 33.7787C38.2239 33.49 38.7134 33.0364 39.0806 32.5002C39.407 31.9228 39.6109 31.2629 39.7333 30.4381C39.8557 29.6132 39.8965 28.6647 39.8965 27.5511C39.8965 26.4376 39.8557 25.489 39.7333 24.6642C39.6109 23.8393 39.3662 23.1382 38.999 22.5196C38.2239 21.406 36.796 20.8286 34.7155 20.8286H31.5334ZM25.4141 58.0292V15.0547H35.205C42.385 15.0547 45.9343 19.2614 45.9343 27.6748C45.9343 30.1906 45.5263 32.3765 44.7512 34.1499C43.9761 35.9233 42.6298 37.3668 40.6716 38.4391L47.2397 58.0705H40.794L35.1234 39.7176H31.4926V58.0705H25.4141V58.0292Z" fill="#F37121"/>
<path fill-rule="evenodd" clip-rule="evenodd" d="M56.5864 47.8815C56.5864 49.3662 56.9943 50.4798 57.8102 51.1809C58.6261 51.882 59.6052 52.2532 60.7067 52.2532C61.8082 52.2532 62.7873 51.882 63.6032 51.1809C64.4191 50.4798 64.8271 49.3662 64.8271 47.8815V25.1982C64.8271 23.7135 64.4191 22.5999 63.6032 21.8988C62.7873 21.1977 61.8082 20.8265 60.7067 20.8265C59.6052 20.8265 58.6261 21.1977 57.8102 21.8988C56.9943 22.5999 56.5864 23.7135 56.5864 25.1982V47.8815ZM50.5078 25.1982C50.5078 23.466 50.7934 21.9401 51.4053 20.6203C52.0173 19.3006 52.7924 18.187 53.8123 17.3209C54.7506 16.4961 55.852 15.8362 57.0759 15.3825C58.2998 14.9289 59.5236 14.7227 60.7475 14.7227C61.9714 14.7227 63.1952 14.9289 64.4191 15.3825C65.643 15.8362 66.7445 16.4548 67.7236 17.3209C68.6619 18.187 69.437 19.3006 70.0489 20.6203C70.6608 21.9401 70.9464 23.466 70.9464 25.1982V47.8815C70.9464 49.6962 70.6608 51.2221 70.0489 52.5419C69.437 53.8204 68.6619 54.8927 67.7236 55.7588C66.7445 56.6249 65.643 57.326 64.4191 57.7384C63.1952 58.1921 61.9714 58.3983 60.7475 58.3983C59.5236 58.3983 58.2998 58.1921 57.0759 57.7384C55.852 57.2848 54.7914 56.6249 53.8123 55.7588C52.8332 54.934 52.0173 53.8617 51.4053 52.5419C50.7934 51.2634 50.5078 49.6962 50.5078 47.8815V25.1982Z" fill="#F37121"/>
<path fill-rule="evenodd" clip-rule="evenodd" d="M81.0196 16.002C82.1211 15.1772 83.141 13.9399 83.141 12.5789V1.85591C83.1002 0.536151 84.528 0 86.1598 0C87.7101 0 89.3419 0.536151 89.3419 1.85591V12.7439C89.3419 14.1049 90.5658 15.3422 91.6264 16.167L91.7896 16.2907C92.2792 16.5794 92.7279 16.9094 93.1359 17.2806C94.0742 18.1466 94.8493 19.2602 95.4612 20.5799C96.0732 21.8997 96.3587 23.4257 96.3587 25.1578V55.9659C96.3587 57.2856 95.2981 58.3579 93.9926 58.3579H78.3271C77.0216 58.3579 75.9609 57.2856 75.9609 55.9659V25.1578C75.9609 23.4257 76.2465 21.8997 76.8584 20.5799C77.4704 19.2602 78.2455 18.1466 79.2654 17.2806C79.7957 16.7856 80.4077 16.3732 81.0604 16.002H81.0196ZM82.0395 25.1991V47.8824C82.0395 48.2948 82.0395 50.027 82.1619 51.3055C82.2027 52.1303 82.8962 52.749 83.6713 52.749H88.6484C89.4643 52.749 90.117 52.1303 90.1578 51.3055C90.2394 50.027 90.2802 48.3361 90.2802 47.8824V25.1991C90.2802 23.7144 89.8722 22.6008 89.0563 21.8997C88.2404 21.1986 87.2613 20.8274 86.1598 20.8274C85.0584 20.8274 84.0793 21.1986 83.2633 21.8997C82.4474 22.6008 82.0395 23.7144 82.0395 25.1991Z" fill="#F37121"/>
<path fill-rule="evenodd" clip-rule="evenodd" d="M101.746 58.0292V15.0547H107.825V34.6448H107.947L116.84 15.0547H122.919L114.638 32.2528L124.469 58.0292H118.024L111.129 38.934L107.825 45.1616V58.0292H101.746Z" fill="#F37121"/>
<path fill-rule="evenodd" clip-rule="evenodd" d="M127.16 58.0292V15.0547H133.239V51.8841H145.314V58.0292H127.16Z" fill="#F37121"/>
<path fill-rule="evenodd" clip-rule="evenodd" d="M155.678 27.8819C155.311 27.8819 154.944 27.7994 154.618 27.5519C153.679 26.9333 153.394 25.696 154.006 24.7474L156.25 21.2006L148.417 21.2831L156.821 34.6868H156.943L169.263 15.0555H175.709L159.921 39.8834V53.3696L165.347 54.8544V58.03H148.539V54.8544L153.843 53.3696V39.8834L138.055 15.0555H144.5L146.826 18.7673L157.841 18.6848L166.326 5.23979C166.938 4.29122 168.162 4.04376 169.1 4.62116C170.038 5.23979 170.324 6.47706 169.712 7.42564L157.392 26.9745C157.025 27.5932 156.372 27.9231 155.719 27.9231L155.678 27.8819Z" fill="#F37121"/>
<path fill-rule="evenodd" clip-rule="evenodd" d="M175.953 58.0292V15.0547H181.828L191.007 40.9549H191.129V15.0547H197.208V58.0292H191.496L182.195 32.1703H182.072V58.0292H175.953Z" fill="#F37121"/>
<path d="M80.9385 67.1406H0V71.636H80.9385V67.1406Z" fill="#F37121"/>
<path d="M80.9385 76.2578H0V80.7532H80.9385V76.2578Z" fill="#F37121"/>
</svg>
