<svg width="212" height="159" viewBox="0 0 212 159" fill="none" xmlns="http://www.w3.org/2000/svg">
<g clip-path="url(#clip0_3014_101)">
<path d="M107.802 -23.1406H0V189.001H107.802V-23.1406Z" fill="#F37121"/>
<path d="M211.402 -23.1406H107.805V189.001H211.402V-23.1406Z" fill="#47B74F"/>
<path fill-rule="evenodd" clip-rule="evenodd" d="M90.0997 41.0603L89.9937 41.1663C89.9937 41.1663 90.0643 41.0956 90.0997 41.0603ZM190.658 121.338C191.012 121.267 191.365 121.196 191.718 121.126C192.036 121.055 192.354 120.949 192.672 120.878C192.99 120.772 193.273 120.666 193.556 120.56C193.838 120.454 194.121 120.313 194.368 120.207C194.616 120.066 194.898 119.96 195.11 119.818C195.358 119.677 195.57 119.536 195.817 119.359C196.029 119.218 196.241 119.041 196.453 118.864C196.665 118.688 196.842 118.511 197.054 118.334C197.124 118.264 197.195 118.193 197.23 118.158L198.997 116.391C203.025 112.363 202.848 106.109 202.848 104.731C202.848 102.682 202.283 100.738 201.223 99.113C200.905 98.6183 200.516 98.159 200.128 97.735C201.117 96.569 201.682 95.0143 201.682 93.3536V56.5363C201.682 55.3703 201.4 54.2396 200.87 53.2856C201.4 52.3316 201.682 51.201 201.682 50.035V46.1836C201.682 42.403 198.608 39.329 194.828 39.329H176.419C174.758 39.329 173.239 39.9296 172.073 40.8836C171.26 40.6363 170.412 40.495 169.529 40.495C167.409 40.495 165.43 41.2723 163.911 42.615C162.71 40.6363 160.554 39.329 158.081 39.329H108.296C107.519 39.329 106.742 39.4703 106.035 39.7176C104.41 38.0216 101.936 36.8556 98.6503 36.8203C95.541 36.8203 93.1737 37.8803 91.5837 39.4703L91.513 39.541C90.983 39.3996 90.4177 39.329 89.817 39.329H24.2737C22.401 39.329 20.6697 40.1063 19.433 41.343L17.6663 43.1096C16.4297 44.3463 15.6523 46.0423 15.6523 47.9503V51.8016C15.6523 52.9676 15.935 54.0983 16.465 55.0523C15.935 56.0063 15.6523 57.137 15.6523 58.303V95.1203C15.6523 96.569 16.1117 97.9116 16.889 99.007C16.1117 100.102 15.6523 101.445 15.6523 102.894V106.745C15.6523 107.77 15.723 113.6 15.829 116.744C15.8997 119.465 18.1257 121.656 20.8463 121.656H101.618C102.466 121.656 174.617 121.832 176.207 121.832C177.797 121.832 179.352 121.55 180.8 120.984C181.224 120.808 181.648 120.631 182.072 120.419C183.203 121.196 184.546 121.656 186.03 121.656H188.291C189.139 121.656 189.916 121.55 190.658 121.444V121.338ZM67.9457 61.377L68.7583 60.423C68.7583 60.423 68.7583 60.423 68.7937 60.3876C68.7937 60.3876 68.829 60.3523 68.8643 60.317C68.8643 60.317 68.8997 60.2816 68.935 60.2463C68.935 60.2463 68.9703 60.211 69.0057 60.1756L67.9103 61.377H67.9457ZM105.964 93.283C105.964 93.283 105.964 93.3183 105.964 93.3536C105.964 93.3536 105.964 93.3536 105.964 93.389C105.964 93.389 105.964 93.4243 105.964 93.4596C105.964 93.4596 105.964 93.495 105.964 93.5303C105.964 93.5303 105.964 93.5303 105.964 93.5656C105.858 93.5656 105.788 93.5656 105.682 93.5656H92.1137C90.983 93.5656 90.0643 92.647 90.0643 91.5163V65.1223C90.0643 63.6383 90.3117 62.331 90.8417 61.2003C91.089 60.635 91.407 60.105 91.7603 59.6456C92.0783 59.4336 92.3963 59.2216 92.7143 59.045C92.9263 58.9036 93.1383 58.727 93.315 58.5503C93.315 58.5503 93.3503 58.515 93.3857 58.4796L95.1523 56.713C95.7883 56.077 96.3183 55.229 96.3183 54.381V45.4063C96.601 45.371 96.8837 45.3356 97.2017 45.3356C98.5443 45.3356 99.9577 45.795 99.9577 46.9256V56.2536C99.9577 57.4196 101.018 58.4796 101.936 59.1863L102.078 59.2923C102.502 59.5396 102.89 59.8223 103.244 60.1403C104.056 60.8823 104.728 61.8363 105.258 62.967C105.788 64.0976 106.035 65.405 106.035 66.889V93.283H105.964ZM93.8803 65.1223V65.0516V64.981V64.9103C93.8803 64.9103 93.8803 64.875 93.9157 64.8396C93.9157 64.8396 93.9157 64.8043 93.951 64.769C93.951 64.769 93.951 64.7336 93.9863 64.6983C93.9863 64.6983 94.0923 64.557 94.1277 64.4863C94.1277 64.4863 94.1277 64.451 94.163 64.4156C94.163 64.4156 94.163 64.4156 94.1983 64.3803C94.1983 64.3803 94.1983 64.3803 94.1983 64.345L95.965 62.5783C95.965 62.5783 96.071 62.4723 96.1063 62.437C96.813 61.8363 97.661 61.5183 98.615 61.5183C99.569 61.5183 100.417 61.8363 101.124 62.437C101.83 63.0376 102.184 63.9916 102.184 65.2636V84.697C102.184 85.0503 102.184 86.5343 102.078 87.6296C102.078 87.9476 101.901 88.2656 101.689 88.4776L99.9223 90.2443C99.675 90.4563 99.357 90.5976 99.0037 90.5976H94.693C93.9863 90.5976 93.421 90.0676 93.3857 89.361C93.315 88.2656 93.2797 86.817 93.2797 86.4283V66.995C93.2797 66.3236 93.3857 65.723 93.5623 65.2636L93.8803 65.1223ZM167.727 49.0103C167.727 49.0103 167.762 49.0103 167.798 49.0103C167.798 49.0103 167.833 49.0103 167.868 49.0103C167.868 49.0103 167.904 49.0103 167.939 49.0103C168.292 49.0103 168.646 49.081 168.964 49.293C169.776 49.823 170.024 50.883 169.494 51.6956L159.459 67.4543C159.459 67.4543 159.247 67.4543 159.106 67.4543C158.788 67.4543 158.47 67.3483 158.187 67.1716C157.374 66.6416 157.127 65.5816 157.657 64.769L159.6 61.7303L152.816 61.801L151.05 63.5676L158.328 75.051H158.434L160.201 73.2843L169.741 58.2323H174.688L161.014 79.503V91.057L165.713 92.329V93.3183H152.922V91.8696L155.749 91.0923L157.516 89.3256V77.7716L144.972 58.2676H147.658L149.672 61.4476L159.212 61.377L160.978 59.6103L167.692 49.081L167.727 49.0103ZM113.066 103.636H113.349V110.914H113.066V103.636ZM122.218 105.579C122.218 105.579 122.218 105.685 122.218 105.756C122.218 105.826 122.218 105.862 122.218 105.932V106.003V106.074V106.144C122.218 106.144 122.218 106.215 122.218 106.25C122.218 106.25 122.218 106.321 122.218 106.356C122.218 106.356 122.218 106.427 122.218 106.462C122.218 106.462 122.218 106.533 122.218 106.568C122.218 106.568 122.218 106.639 122.218 106.674C122.218 106.674 122.218 106.745 122.218 106.78V110.985H121.97V106.745V106.639V106.533V106.427V106.356C121.97 106.356 121.97 106.25 121.97 106.18C121.97 106.109 121.97 106.074 121.97 106.003V105.932V105.862C121.97 105.862 121.97 105.826 121.97 105.791C121.97 105.791 121.97 105.756 121.97 105.72C121.97 105.72 121.97 105.685 121.97 105.65C121.97 105.65 121.97 105.614 121.97 105.579C121.97 105.579 121.97 105.544 121.97 105.508C121.97 105.508 121.97 105.473 121.97 105.438V105.332L122.147 105.579H122.218ZM24.2737 110.632H92.6437V112.716H24.2737V110.632Z" fill="#00A651"/>
<path d="M88.3336 47.8086H22.543V51.6599H88.3336V47.8086Z" fill="#45A742"/>
<path d="M156.597 47.8086H106.812V51.6599H156.597V47.8086Z" fill="#45A742"/>
<path d="M193.346 47.8086H174.938V51.6599H193.346V47.8086Z" fill="#45A742"/>
<path fill-rule="evenodd" clip-rule="evenodd" d="M22.543 95.0127V58.1953H30.2456C31.9416 58.1953 33.3903 58.4427 34.5563 58.9727C35.7576 59.5027 36.7116 60.174 37.489 61.0573C38.231 61.9053 38.7963 62.8946 39.1143 64.0253C39.4323 65.156 39.609 66.322 39.609 67.5233V68.866C39.609 69.8553 39.5383 70.7033 39.3616 71.41C39.2203 72.1166 38.973 72.7173 38.655 73.212C38.0543 74.166 37.171 75.014 35.9696 75.6853C37.2063 76.286 38.125 77.134 38.7256 78.2646C39.3263 79.3953 39.609 80.95 39.609 82.9286V85.0133C39.609 88.264 38.8316 90.7373 37.2416 92.4687C35.687 94.2 33.1783 95.048 29.7156 95.048H22.543V95.0127Z" fill="#45A742"/>
<path fill-rule="evenodd" clip-rule="evenodd" d="M27.8047 63.1445V73.2852H30.172C31.9387 73.2852 33.1047 72.8612 33.7054 71.9779C34.306 71.0945 34.624 69.8225 34.624 68.1265C34.624 66.4305 34.2707 65.2292 33.5994 64.4165C32.928 63.6039 31.7267 63.1799 29.96 63.1799H27.8047V63.1445Z" fill="#45A742"/>
<path fill-rule="evenodd" clip-rule="evenodd" d="M27.8047 77.9455V89.7468H30.066C31.126 89.7468 31.974 89.6055 32.5747 89.2875C33.1754 88.9695 33.6347 88.5455 33.9527 87.9802C34.2707 87.4148 34.4474 86.7788 34.518 86.0015C34.5887 85.2595 34.624 84.4115 34.624 83.5282C34.624 82.6448 34.5887 81.7968 34.4827 81.0902C34.3767 80.4188 34.1647 79.8182 33.8467 79.3235C33.4934 78.8288 33.034 78.4755 32.4687 78.2635C31.868 78.0515 31.0907 77.9102 30.1367 77.9102H27.8047V77.9455Z" fill="#45A742"/>
<path fill-rule="evenodd" clip-rule="evenodd" d="M44.5547 95.0127V58.1953H53.0347C59.2534 58.1953 62.3274 61.7993 62.3274 69.0073C62.3274 71.1627 61.974 73.0353 61.3027 74.5547C60.6314 76.074 59.4654 77.3106 57.7694 78.2293L63.458 95.048H57.8754L52.964 79.3246H49.8194V95.048H44.5547V95.0127Z" fill="#45A742"/>
<path fill-rule="evenodd" clip-rule="evenodd" d="M49.8203 63.1445V74.6279H52.8236C53.7423 74.6279 54.4843 74.4865 55.0496 74.2392C55.615 73.9919 56.039 73.6032 56.357 73.1439C56.6396 72.6492 56.8163 72.0839 56.9223 71.3772C57.0283 70.6705 57.0636 69.8579 57.0636 68.9039C57.0636 67.9499 57.0283 67.1372 56.9223 66.4305C56.8163 65.7239 56.6043 65.1232 56.2863 64.5932C55.615 63.6392 54.3783 63.1445 52.5763 63.1445H49.8203Z" fill="#45A742"/>
<path fill-rule="evenodd" clip-rule="evenodd" d="M66.2852 66.8887C66.2852 65.4047 66.5325 64.0974 67.0625 62.9667C67.5925 61.8361 68.2638 60.8821 69.1472 60.1401C69.9598 59.4334 70.9138 58.8681 71.9738 58.4794C73.0338 58.0907 74.0938 57.9141 75.1538 57.9141C76.2138 57.9141 77.2738 58.0907 78.3338 58.4794C79.3938 58.8681 80.3478 59.3981 81.1958 60.1401C82.0085 60.8821 82.6798 61.8361 83.2098 62.9667C83.7398 64.0974 83.9872 65.4047 83.9872 66.8887V86.3221C83.9872 87.8767 83.7398 89.1841 83.2098 90.3147C82.6798 91.4101 82.0085 92.3287 81.1958 93.0707C80.3478 93.8127 79.3938 94.4134 78.3338 94.7667C77.2738 95.1554 76.2138 95.3321 75.1538 95.3321C74.0938 95.3321 73.0338 95.1554 71.9738 94.7667C70.9138 94.3781 69.9952 93.8127 69.1472 93.0707C68.2992 92.3641 67.5925 91.4454 67.0625 90.3147C66.5325 89.2194 66.2852 87.8767 66.2852 86.3221V66.8887Z" fill="#45A742"/>
<path fill-rule="evenodd" clip-rule="evenodd" d="M71.5508 86.3232C71.5508 87.5952 71.9041 88.5492 72.6108 89.1499C73.3174 89.7505 74.1654 90.0685 75.1194 90.0685C76.0734 90.0685 76.9214 89.7505 77.6281 89.1499C78.3348 88.5492 78.6881 87.5952 78.6881 86.3232V66.8899C78.6881 65.6179 78.3348 64.6639 77.6281 64.0632C76.9214 63.4625 76.0734 63.1445 75.1194 63.1445C74.1654 63.1445 73.3174 63.4625 72.6108 64.0632C71.9041 64.6639 71.5508 65.6179 71.5508 66.8899V86.3232Z" fill="#45A742"/>
<path fill-rule="evenodd" clip-rule="evenodd" d="M92.6782 59.0103C93.6322 58.3036 94.5155 57.2436 94.5155 56.0776V46.8556C94.5155 45.725 95.7522 45.2656 97.1302 45.2656C98.4729 45.2656 99.8862 45.725 99.8862 46.8556V56.1836C99.8862 57.3496 100.946 58.4096 101.865 59.1163L102.006 59.2223C102.43 59.4696 102.819 59.7523 103.172 60.0703C103.985 60.8123 104.656 61.7663 105.186 62.897C105.716 64.0276 105.964 65.335 105.964 66.819V93.213C105.964 94.3436 105.045 95.2623 103.914 95.2623H90.3462C89.2155 95.2623 88.2969 94.3436 88.2969 93.213V66.819C88.2969 65.335 88.5442 64.0276 89.0742 62.897C89.6042 61.7663 90.2755 60.8123 91.1589 60.0703C91.6182 59.6463 92.1482 59.293 92.7135 58.975L92.6782 59.0103Z" fill="#45A742"/>
<path fill-rule="evenodd" clip-rule="evenodd" d="M110.629 95.0127V58.1953H115.929V74.9786H116.035L123.738 58.1953H129.002L121.83 72.9293L130.345 95.0127H124.762L118.756 78.6533L115.929 83.9886V95.0127H110.629Z" fill="#45A742"/>
<path fill-rule="evenodd" clip-rule="evenodd" d="M93.5625 66.8899C93.5625 65.6179 93.9158 64.6639 94.6225 64.0632C95.3292 63.4625 96.1772 63.1445 97.1312 63.1445C98.0852 63.1445 98.9332 63.4625 99.6398 64.0632C100.347 64.6639 100.7 65.6179 100.7 66.8899V86.3232C100.7 86.6765 100.7 88.1605 100.594 89.2559C100.558 89.9625 99.9578 90.4925 99.2865 90.4925H94.9758C94.2692 90.4925 93.7038 89.9625 93.6685 89.2559C93.5978 88.1605 93.5625 86.7119 93.5625 86.3232V66.8899Z" fill="#45A742"/>
<path fill-rule="evenodd" clip-rule="evenodd" d="M132.676 95.0127V58.1953H137.94V89.748H148.399V95.0127H132.676Z" fill="#45A742"/>
<path fill-rule="evenodd" clip-rule="evenodd" d="M157.373 69.1846C157.055 69.1846 156.737 69.114 156.455 68.902C155.642 68.372 155.395 67.312 155.925 66.4993L157.868 63.4606L151.084 63.5313L158.363 75.0146H158.469L169.139 58.1959H174.722L161.048 79.4666V91.0206L165.747 92.2926V95.0133H151.19V92.2926L155.783 91.0206V79.4666L142.109 58.1959H147.692L149.706 61.3759L159.246 61.3053L166.595 49.7866C167.125 48.974 168.185 48.762 168.998 49.2566C169.811 49.7866 170.058 50.8466 169.528 51.6593L158.857 68.4073C158.539 68.9373 157.974 69.22 157.409 69.22L157.373 69.1846Z" fill="#45A742"/>
<path fill-rule="evenodd" clip-rule="evenodd" d="M174.938 95.0127V58.1953H180.026L187.976 80.3846H188.082V58.1953H193.346V95.0127H188.4L180.308 72.8586H180.202V95.0127H174.938Z" fill="#45A742"/>
<path d="M92.6443 102.82H22.543V106.672H92.6443V102.82Z" fill="#45A742"/>
<path d="M92.6443 110.629H22.543V114.48H92.6443V110.629Z" fill="#45A742"/>
<path fill-rule="evenodd" clip-rule="evenodd" d="M192.036 100.277H194.05V103.634H195.252V105.577H194.05V112.679H192.036V105.577H191.012V103.634H192.036V100.277Z" fill="#45A742"/>
<path fill-rule="evenodd" clip-rule="evenodd" d="M188.116 107.028C187.974 106.533 187.727 106.145 187.338 105.827C186.95 105.509 186.49 105.367 185.96 105.367C185.395 105.367 184.9 105.544 184.476 105.897C184.194 106.109 183.946 106.498 183.734 107.028H188.116Z" fill="#45A742"/>
<path fill-rule="evenodd" clip-rule="evenodd" d="M190.128 108.793H183.627C183.733 109.429 183.98 109.959 184.369 110.347C184.758 110.736 185.288 110.913 185.924 110.913C186.666 110.913 187.337 110.63 187.867 110.029L189.563 110.913C189.139 111.584 188.644 112.079 188.044 112.397C187.443 112.715 186.736 112.891 185.924 112.891C184.652 112.891 183.627 112.432 182.85 111.549C182.072 110.665 181.648 109.535 181.648 108.192C181.648 106.849 182.037 105.683 182.85 104.765C183.627 103.846 184.652 103.387 185.818 103.387C187.09 103.387 188.114 103.846 188.927 104.729C189.74 105.648 190.128 106.849 190.128 108.333V108.757V108.793Z" fill="#45A742"/>
<path fill-rule="evenodd" clip-rule="evenodd" d="M173.273 100.137H175.287V107.345L178.291 103.635H180.799L177.337 107.945L181.223 112.68H178.715L175.287 108.511V112.68H173.273V100.137Z" fill="#45A742"/>
<path fill-rule="evenodd" clip-rule="evenodd" d="M167.903 103.634H169.634V104.8C169.811 104.341 170.058 104.023 170.376 103.775C170.694 103.528 171.012 103.422 171.401 103.422C171.648 103.422 171.931 103.493 172.213 103.669L171.577 105.613C171.33 105.471 171.153 105.401 170.977 105.401C170.659 105.401 170.411 105.613 170.199 106.037C169.987 106.461 169.881 107.309 169.881 108.581V109.005V112.644H167.867V103.599L167.903 103.634Z" fill="#45A742"/>
<path fill-rule="evenodd" clip-rule="evenodd" d="M162.183 105.473C161.547 105.473 161.017 105.72 160.628 106.215C160.204 106.709 159.992 107.345 159.992 108.123C159.992 108.9 160.204 109.536 160.628 110.066C161.052 110.561 161.582 110.808 162.183 110.808C162.784 110.808 163.349 110.561 163.773 110.066C164.197 109.571 164.409 108.935 164.409 108.123C164.409 107.31 164.197 106.709 163.773 106.215C163.349 105.72 162.819 105.473 162.183 105.473Z" fill="#45A742"/>
<path fill-rule="evenodd" clip-rule="evenodd" d="M164.337 103.634H166.351V112.679H164.337V111.725C163.948 112.149 163.559 112.432 163.135 112.644C162.747 112.82 162.287 112.926 161.828 112.926C160.768 112.926 159.885 112.467 159.107 111.584C158.33 110.665 157.977 109.57 157.977 108.227C157.977 106.884 158.33 105.683 159.072 104.8C159.814 103.916 160.697 103.457 161.757 103.457C162.252 103.457 162.711 103.563 163.135 103.775C163.559 103.987 163.948 104.27 164.301 104.694V103.704L164.337 103.634Z" fill="#45A742"/>
<path fill-rule="evenodd" clip-rule="evenodd" d="M144.055 103.634H146.069V104.694C146.422 104.27 146.811 103.952 147.235 103.74C147.659 103.528 148.118 103.422 148.613 103.422C149.107 103.422 149.567 103.563 149.991 103.846C150.415 104.129 150.733 104.517 150.98 105.083C151.298 104.553 151.687 104.129 152.181 103.846C152.641 103.563 153.171 103.422 153.736 103.422C154.301 103.422 154.831 103.563 155.255 103.881C155.679 104.164 155.997 104.588 156.209 105.047C156.386 105.542 156.492 106.319 156.492 107.415V112.715H154.478V108.157C154.478 107.132 154.372 106.425 154.125 106.072C153.877 105.719 153.559 105.542 153.1 105.542C152.747 105.542 152.429 105.648 152.146 105.86C151.863 106.072 151.651 106.39 151.51 106.779C151.369 107.167 151.298 107.803 151.298 108.651V112.715H149.284V108.369C149.284 107.556 149.213 106.991 149.107 106.602C149.001 106.249 148.825 105.966 148.613 105.789C148.401 105.613 148.153 105.542 147.835 105.542C147.482 105.542 147.199 105.648 146.917 105.86C146.634 106.072 146.422 106.39 146.281 106.814C146.139 107.203 146.069 107.839 146.069 108.722V112.715H144.055V103.669V103.634Z" fill="#45A742"/>
<path fill-rule="evenodd" clip-rule="evenodd" d="M138.047 104.906L136.811 106.319C136.316 105.754 135.857 105.471 135.433 105.471C135.221 105.471 135.044 105.542 134.903 105.648C134.761 105.754 134.726 105.895 134.726 106.037C134.726 106.143 134.761 106.284 134.832 106.355C134.903 106.461 135.115 106.602 135.433 106.779L136.175 107.203C136.952 107.627 137.482 108.086 137.8 108.51C138.083 108.969 138.224 109.464 138.224 110.065C138.224 110.877 137.977 111.549 137.447 112.079C136.917 112.609 136.21 112.891 135.327 112.891C134.161 112.891 133.207 112.361 132.5 111.337L133.737 109.817C133.984 110.135 134.267 110.383 134.585 110.559C134.903 110.736 135.185 110.842 135.433 110.842C135.715 110.842 135.927 110.771 136.069 110.63C136.245 110.489 136.316 110.312 136.316 110.135C136.316 109.782 136.033 109.464 135.433 109.111L134.761 108.722C133.454 107.98 132.783 107.061 132.783 105.966C132.783 105.259 133.03 104.659 133.525 104.129C134.019 103.634 134.655 103.387 135.397 103.387C135.927 103.387 136.422 103.528 136.881 103.775C137.341 104.023 137.729 104.411 138.047 104.871V104.906Z" fill="#45A742"/>
<path fill-rule="evenodd" clip-rule="evenodd" d="M124.305 100.137H126.354V107.345L129.322 103.635H131.866L128.403 107.945L132.29 112.68H129.781L126.354 108.511V112.68H124.305V100.137Z" fill="#45A742"/>
<path fill-rule="evenodd" clip-rule="evenodd" d="M115.188 103.634H117.202V104.553C117.661 104.129 118.085 103.811 118.439 103.669C118.827 103.493 119.181 103.422 119.569 103.422C120.382 103.422 121.053 103.74 121.619 104.376C122.078 104.906 122.325 105.683 122.325 106.743V112.715H120.311V108.757C120.311 107.697 120.276 106.955 120.17 106.602C120.099 106.249 119.923 105.966 119.711 105.789C119.499 105.613 119.216 105.507 118.898 105.507C118.474 105.507 118.121 105.648 117.838 105.966C117.555 106.284 117.343 106.708 117.237 107.238C117.167 107.521 117.131 108.121 117.131 109.075V112.679H115.117V103.634H115.188Z" fill="#45A742"/>
<path d="M113.35 103.633H111.336V112.678H113.35V103.633Z" fill="#45A742"/>
<path fill-rule="evenodd" clip-rule="evenodd" d="M112.323 99.926C112.676 99.926 112.994 100.067 113.242 100.35C113.489 100.633 113.63 100.986 113.63 101.375C113.63 101.763 113.489 102.117 113.242 102.399C112.994 102.682 112.676 102.823 112.323 102.823C111.97 102.823 111.652 102.682 111.404 102.399C111.157 102.117 111.016 101.763 111.016 101.339C111.016 100.915 111.157 100.597 111.404 100.315C111.652 100.032 111.97 99.8906 112.323 99.8906V99.926Z" fill="#45A742"/>
<path fill-rule="evenodd" clip-rule="evenodd" d="M106.211 103.634H107.942V104.8C108.119 104.341 108.366 104.023 108.684 103.775C109.002 103.528 109.32 103.422 109.709 103.422C109.956 103.422 110.239 103.493 110.522 103.669L109.886 105.613C109.638 105.471 109.462 105.401 109.32 105.401C109.002 105.401 108.755 105.613 108.543 106.037C108.331 106.461 108.225 107.309 108.225 108.581V109.005V112.644H106.211V103.599V103.634Z" fill="#45A742"/>
<path fill-rule="evenodd" clip-rule="evenodd" d="M102.61 100.137H104.624V112.68H102.61V111.726C102.221 112.15 101.833 112.433 101.409 112.645C101.02 112.821 100.561 112.927 100.101 112.927C99.0413 112.927 98.158 112.468 97.3807 111.585C96.6033 110.666 96.25 109.571 96.25 108.228C96.25 106.885 96.6033 105.684 97.3453 104.801C98.0873 103.917 98.9707 103.458 100.031 103.458C100.525 103.458 100.985 103.564 101.409 103.776C101.833 103.988 102.221 104.271 102.575 104.695V100.207L102.61 100.137Z" fill="#45A742"/>
<path fill-rule="evenodd" clip-rule="evenodd" d="M100.488 105.473C99.8515 105.473 99.3215 105.72 98.9329 106.215C98.5089 106.709 98.2969 107.345 98.2969 108.123C98.2969 108.9 98.5089 109.536 98.9329 110.066C99.3569 110.561 99.8869 110.808 100.488 110.808C101.088 110.808 101.654 110.561 102.078 110.066C102.502 109.571 102.714 108.935 102.714 108.123C102.714 107.31 102.502 106.709 102.078 106.215C101.654 105.72 101.124 105.473 100.488 105.473Z" fill="#45A742"/>
<path fill-rule="evenodd" clip-rule="evenodd" d="M199.703 100.773C199.385 100.278 198.997 99.8191 198.608 99.3951C199.597 98.1938 200.163 96.6745 200.163 95.0138V58.1965C200.163 57.0305 199.88 55.8998 199.35 54.9458C199.88 53.9918 200.163 52.8611 200.163 51.6951V47.8438C200.163 44.0631 197.089 40.9891 193.308 40.9891H174.899C173.239 40.9891 171.719 41.5898 170.553 42.5438C169.741 42.2965 168.893 42.1551 168.009 42.1551C165.889 42.1551 163.911 42.9325 162.391 44.2751C161.19 42.2965 159.035 40.9891 156.561 40.9891H106.777C105.999 40.9891 105.222 41.1305 104.515 41.3778C102.89 39.6818 100.417 38.5158 97.1308 38.4805C93.9862 38.4805 91.5835 39.5758 89.9935 41.2011C89.4635 41.0598 88.8982 40.9891 88.2975 40.9891H22.5422C18.7615 40.9891 15.6875 44.0631 15.6875 47.8438V51.6951C15.6875 52.8611 15.9702 53.9918 16.5002 54.9458C15.9702 55.8998 15.6875 57.0305 15.6875 58.1965V95.0138C15.6875 96.4625 16.1468 97.8051 16.9242 98.9005C16.1468 99.9958 15.6875 101.338 15.6875 102.787V106.638C15.6875 107.663 15.7582 113.493 15.8642 116.638C15.9348 119.358 18.1608 121.549 20.8815 121.549H101.653C102.501 121.549 174.652 121.726 176.242 121.726C177.832 121.726 179.387 121.443 180.835 120.878C181.259 120.701 181.683 120.524 182.107 120.312C183.238 121.09 184.581 121.549 186.065 121.549H188.326C201.753 121.054 201.364 108.405 201.364 106.356C201.364 104.306 200.799 102.363 199.739 100.738L199.703 100.773Z" fill="#45A742"/>
<path fill-rule="evenodd" clip-rule="evenodd" d="M99.5696 112.857H99.499C99.499 112.857 99.4636 112.857 99.4283 112.857C99.4283 112.857 99.393 112.857 99.3576 112.857C99.3576 112.857 99.3223 112.857 99.287 112.857H99.2163C99.2163 112.857 99.1103 112.822 99.0396 112.787C99.0396 112.787 99.0043 112.787 98.969 112.787C98.969 112.787 98.9336 112.787 98.8983 112.751C98.4036 112.539 97.9796 112.186 97.5556 111.691C96.7783 110.773 96.425 109.677 96.425 108.335C96.425 106.992 96.7783 105.791 97.5203 104.907C98.2623 104.024 99.1456 103.565 100.206 103.565C100.347 103.565 100.524 103.565 100.665 103.565C100.665 103.565 100.665 103.565 100.7 103.565L102.078 103.777C102.326 103.777 102.538 103.883 102.75 103.953V100.243H104.764L106.142 100.455V112.999H104.128L103.103 112.857C103.103 112.857 102.997 112.928 102.926 112.963C102.538 113.14 102.078 113.246 101.619 113.246C101.442 113.246 101.266 113.246 101.124 113.211L99.7463 112.999C99.7463 112.999 99.7463 112.999 99.711 112.999L99.5696 112.857ZM112.148 102.823C111.901 102.787 111.654 102.646 111.477 102.399C111.23 102.116 111.088 101.763 111.088 101.339C111.088 100.915 111.23 100.597 111.477 100.314C111.724 100.031 112.042 99.8899 112.396 99.8899C112.466 99.8899 112.502 99.8899 112.572 99.8899L113.95 100.102C114.233 100.137 114.48 100.279 114.692 100.526C114.94 100.809 115.081 101.162 115.081 101.551C115.081 101.939 114.94 102.293 114.692 102.575C114.445 102.858 114.127 102.999 113.774 102.999C113.703 102.999 113.632 102.999 113.597 102.999L112.219 102.787L112.148 102.823ZM134.656 112.857H134.585C134.585 112.857 134.55 112.857 134.514 112.857C134.514 112.857 134.479 112.857 134.444 112.857C134.444 112.857 134.408 112.857 134.373 112.857C134.302 112.857 134.232 112.822 134.196 112.787H134.126C134.126 112.787 134.09 112.787 134.055 112.787C134.055 112.787 133.984 112.787 133.984 112.751C133.984 112.751 133.808 112.645 133.737 112.61C133.737 112.61 133.666 112.575 133.666 112.539C133.313 112.292 132.995 111.974 132.677 111.55L133.914 110.031L135.292 110.243C135.504 110.525 135.786 110.773 136.104 110.985C136.175 110.985 136.21 110.914 136.281 110.879C136.458 110.737 136.528 110.561 136.528 110.384C136.528 110.031 136.246 109.713 135.645 109.359L134.974 108.971C133.666 108.229 132.995 107.31 132.995 106.215C132.995 105.508 133.242 104.907 133.737 104.377C134.232 103.883 134.868 103.635 135.61 103.635C135.751 103.635 135.892 103.635 136.034 103.635L137.412 103.847C137.765 103.918 138.118 104.024 138.436 104.201C138.896 104.448 139.284 104.837 139.602 105.296L138.366 106.709L136.988 106.497C136.811 106.285 136.634 106.144 136.458 106.003C136.316 106.109 136.281 106.25 136.281 106.391C136.281 106.497 136.316 106.639 136.387 106.709C136.458 106.815 136.67 106.957 136.988 107.133L137.73 107.557C138.507 107.981 139.037 108.441 139.355 108.865C139.638 109.324 139.779 109.819 139.779 110.455C139.779 111.267 139.532 111.939 139.002 112.469C138.472 112.999 137.765 113.281 136.882 113.281C136.705 113.281 136.528 113.281 136.352 113.246L134.974 113.034H134.868L134.656 112.857ZM161.297 112.857H161.226C161.226 112.857 161.191 112.857 161.156 112.857C161.156 112.857 161.12 112.857 161.085 112.857C161.085 112.857 161.05 112.857 161.014 112.857H160.944C160.944 112.857 160.838 112.822 160.767 112.787C160.767 112.787 160.732 112.787 160.696 112.787C160.696 112.787 160.661 112.787 160.626 112.751C160.131 112.539 159.707 112.186 159.283 111.691C158.506 110.773 158.152 109.677 158.152 108.335C158.152 106.992 158.506 105.791 159.248 104.907C159.99 104.024 160.873 103.565 161.933 103.565C162.074 103.565 162.251 103.565 162.392 103.565C162.392 103.565 162.392 103.565 162.428 103.565L163.806 103.777C164.053 103.777 164.265 103.883 164.477 103.953V103.741H166.491L167.869 103.953V112.999H165.855L164.83 112.857C164.83 112.857 164.724 112.928 164.654 112.963C164.265 113.14 163.806 113.246 163.346 113.246C163.17 113.246 162.993 113.246 162.852 113.211L161.474 112.999C161.474 112.999 161.474 112.999 161.438 112.999L161.297 112.857ZM185.182 112.822C185.182 112.822 185.112 112.822 185.076 112.822C185.076 112.822 185.041 112.822 185.006 112.822C185.006 112.822 184.97 112.822 184.935 112.822C184.935 112.822 184.864 112.822 184.829 112.822C184.829 112.822 184.758 112.822 184.723 112.822C184.723 112.822 184.652 112.822 184.617 112.822H184.546C184.44 112.787 184.37 112.751 184.264 112.716C184.264 112.716 184.193 112.716 184.193 112.681C183.769 112.469 183.38 112.151 183.027 111.762C182.25 110.879 181.826 109.748 181.826 108.405C181.826 107.063 182.214 105.897 183.027 104.978C183.804 104.059 184.829 103.6 185.995 103.6C186.242 103.6 186.454 103.6 186.666 103.635L188.044 103.847C188.998 103.989 189.776 104.413 190.447 105.155C191.26 106.073 191.648 107.275 191.648 108.759V109.183H185.147C185.253 109.819 185.5 110.349 185.889 110.737C186.03 110.879 186.207 110.985 186.384 111.091C186.984 111.02 187.55 110.737 188.009 110.207L189.387 110.419L191.083 111.303C190.659 111.974 190.164 112.469 189.564 112.787C188.963 113.105 188.256 113.281 187.444 113.281C187.196 113.281 186.949 113.281 186.737 113.246L185.359 113.034C185.359 113.034 185.324 113.034 185.288 113.034L185.182 112.822ZM32.2596 78.1952C32.2596 78.1952 32.2596 78.1952 32.2243 78.1952C32.2243 78.1952 32.2243 78.1952 32.189 78.1952C32.0123 78.1952 31.8003 78.1952 31.5883 78.1952H29.2563V89.7846H30.175C31.235 89.7846 32.083 89.6432 32.6836 89.3252C33.2843 89.0072 33.7436 88.5832 34.0616 88.0179C34.3796 87.4526 34.5563 86.8166 34.627 86.0392C34.6976 85.2972 34.733 84.4492 34.733 83.5659C34.733 82.6826 34.6976 81.8346 34.5916 81.1279C34.4856 80.4566 34.2736 79.8559 33.9556 79.3612C33.6023 78.8666 33.143 78.5132 32.5423 78.3012H32.4716C32.4716 78.3012 32.4716 78.3012 32.4363 78.3012C32.4363 78.3012 32.4363 78.3012 32.401 78.3012L32.2596 78.1952ZM33.6023 64.3446C33.6023 64.3092 33.5316 64.2739 33.4963 64.2386C33.4963 64.2386 33.461 64.2032 33.4256 64.1679C33.4256 64.1679 33.3903 64.1326 33.355 64.0972C33.3196 64.0619 33.2843 64.0266 33.2136 63.9912C33.2136 63.9912 33.1783 63.9912 33.143 63.9559C33.143 63.9559 33.1076 63.9559 33.0723 63.9206C33.0723 63.9206 33.0723 63.9206 33.037 63.9206C33.037 63.9206 33.0016 63.9206 32.9663 63.8852C32.9663 63.8852 32.8956 63.8852 32.8956 63.8499C32.8956 63.8499 32.825 63.8499 32.7896 63.8146C32.7896 63.8146 32.7896 63.8146 32.719 63.8146C32.719 63.8146 32.6483 63.8146 32.6483 63.7792H32.5776C32.5776 63.7792 32.5423 63.7792 32.507 63.7792C32.507 63.7792 32.507 63.7792 32.4716 63.7792C32.4716 63.7792 32.4363 63.7792 32.401 63.7792C32.401 63.7792 32.401 63.7792 32.3656 63.7792H32.295C32.1183 63.7792 31.9416 63.7792 31.7296 63.7792H29.5743V73.7079H30.5636C32.3303 73.7079 33.4963 73.2839 34.097 72.4006C34.6976 71.5172 35.0156 70.2452 35.0156 68.5492C35.0156 66.8532 34.6623 65.6519 33.991 64.8392C33.991 64.8392 33.991 64.8392 33.991 64.8039L33.6023 64.3446ZM56.251 64.5566C56.2156 64.5212 56.1803 64.4506 56.145 64.4152C56.145 64.4152 56.1096 64.3446 56.0743 64.3446C56.0743 64.3446 56.0743 64.3446 56.039 64.3092C56.039 64.3092 56.0036 64.2739 55.9683 64.2386C55.9683 64.2386 55.8976 64.2032 55.8976 64.1679C55.8976 64.1679 55.8976 64.1679 55.8623 64.1326C55.8623 64.1326 55.827 64.0972 55.7916 64.0619C55.7916 64.0619 55.7916 64.0619 55.7563 64.0619C55.7563 64.0619 55.6856 64.0266 55.6503 63.9912C55.6503 63.9912 55.5796 63.9912 55.5796 63.9559C55.5796 63.9559 55.5796 63.9559 55.509 63.9559C55.509 63.9559 55.4383 63.9559 55.403 63.9206C55.403 63.9206 55.3323 63.9206 55.297 63.8852C55.297 63.8852 55.2616 63.8852 55.2263 63.8852C55.2263 63.8852 55.1556 63.8852 55.1203 63.8499C55.1203 63.8499 55.1203 63.8499 55.085 63.8499C55.085 63.8499 55.0496 63.8499 55.0143 63.8499C55.0143 63.8499 54.979 63.8499 54.9436 63.8499C54.9436 63.8499 54.9083 63.8499 54.873 63.8499C54.873 63.8499 54.873 63.8499 54.8376 63.8499C54.8376 63.8499 54.767 63.8499 54.7316 63.8499C54.7316 63.8499 54.7316 63.8499 54.6963 63.8499C54.555 63.8499 54.3783 63.8499 54.2016 63.8499H51.4456V75.1212H53.071C53.9896 75.1212 54.7316 74.9799 55.297 74.7326C55.8623 74.4852 56.2863 74.0966 56.6043 73.6372C56.887 73.1426 57.0636 72.5772 57.1696 71.8706C57.2756 71.1639 57.311 70.3512 57.311 69.3972C57.311 68.4432 57.2756 67.6306 57.1696 66.9239C57.0636 66.2172 56.8516 65.6166 56.5336 65.0866C56.5336 65.0866 56.5336 65.0866 56.5336 65.0512L56.251 64.5566ZM73.741 95.1906C73.741 95.1906 73.6703 95.1906 73.635 95.1906C73.635 95.1906 73.5643 95.1906 73.529 95.1906C73.529 95.1906 73.4583 95.1906 73.423 95.1906C73.423 95.1906 73.211 95.1552 73.1403 95.1199C72.7516 95.0492 72.363 94.9079 71.939 94.7666C70.879 94.3779 69.9603 93.8126 69.1123 93.0706C68.2643 92.3639 67.5576 91.4452 67.0276 90.3146C66.4976 89.2192 66.2503 87.8766 66.2503 86.3219V66.8886C66.2503 65.4046 66.4976 64.0972 67.0276 62.9666C67.5576 61.8359 68.229 60.8819 69.1123 60.1399C69.925 59.4332 70.879 58.8679 71.939 58.4792C72.999 58.0906 74.059 57.9139 75.119 57.9139C75.4723 57.9139 75.861 57.9139 76.2143 57.9846C76.2143 57.9846 76.285 57.9846 76.3203 57.9846C76.3203 57.9846 76.391 57.9846 76.4263 57.9846L77.8043 58.1966C78.4403 58.3026 79.041 58.4439 79.6416 58.6559C80.7016 59.0446 81.6556 59.5746 82.5036 60.3166C83.3163 61.0586 83.9876 62.0126 84.5176 63.1432C85.0476 64.2739 85.295 65.5812 85.295 67.0652V86.4986C85.295 88.0532 85.0476 89.3606 84.5176 90.4912C83.9876 91.5866 83.3163 92.5052 82.5036 93.2472C81.6556 93.9892 80.7016 94.5899 79.6416 94.9432C78.5816 95.3319 77.5216 95.5086 76.4616 95.5086C76.0023 95.5086 75.5783 95.5086 75.119 95.4026L73.741 95.1906C73.741 95.1906 73.7056 95.1906 73.6703 95.1906H73.741ZM90.065 95.2966C90.065 95.2966 90.0296 95.2966 89.9943 95.2966C89.9943 95.2966 89.959 95.2966 89.9236 95.2966C89.9236 95.2966 89.8883 95.2966 89.853 95.2966C89.853 95.2966 89.8176 95.2966 89.7823 95.2966C89.7823 95.2966 89.747 95.2966 89.7116 95.2966C89.7116 95.2966 89.6763 95.2966 89.641 95.2966C89.641 95.2966 89.6056 95.2966 89.5703 95.2612C89.429 95.1906 89.2876 95.0846 89.1816 94.9786C89.1816 94.9786 89.1463 94.9432 89.111 94.9079C89.111 94.9079 89.0756 94.8726 89.0403 94.8372C89.0403 94.8372 89.005 94.8019 88.9696 94.7666C88.687 94.4132 88.5103 93.9539 88.5103 93.4592V67.0652C88.5103 65.5812 88.7576 64.2739 89.2876 63.1432C89.8176 62.0126 90.489 61.0586 91.3723 60.3166C91.8316 59.8926 92.3616 59.5392 92.927 59.2212C93.881 58.5146 94.7643 57.4546 94.7643 56.2886V47.0666C94.7643 45.9359 96.001 45.4766 97.379 45.4766C97.6263 45.4766 97.8736 45.4766 98.121 45.5472C98.121 45.5472 98.121 45.5472 98.1563 45.5472L99.5343 45.7592C100.594 45.9006 101.513 46.3952 101.513 47.2786V56.6066C101.513 57.7726 102.573 58.8326 103.492 59.5392L103.633 59.6452C104.057 59.8926 104.446 60.1752 104.799 60.4932C105.612 61.2352 106.283 62.1892 106.813 63.3199C107.343 64.4506 107.59 65.7579 107.59 67.2419V93.6359C107.59 94.7666 106.672 95.6852 105.541 95.6852H91.973C91.973 95.6852 91.761 95.6852 91.655 95.6852L90.277 95.4732L90.065 95.2966ZM157.128 69.1499C157.128 69.1499 157.092 69.1499 157.057 69.1499C156.845 69.1146 156.633 69.0439 156.456 68.9026C155.644 68.3726 155.396 67.3126 155.926 66.4999L157.728 63.6732H152.464L159.036 74.0966L169.141 58.1612H174.936H179.988L181.366 58.3732L188.044 77.0292V58.1612H193.309L194.687 58.3732V95.1906H189.74L188.362 94.9786L181.578 76.3226V95.1906H176.314L174.936 94.9786V60.1399L162.428 79.6086V91.1626L167.127 92.4346V95.1552H152.57L151.192 94.9432V92.2226L155.785 90.9506V79.3966L142.111 58.1259H147.694L149.072 58.3379L150.944 61.3059L159.248 61.2352L166.597 49.7166C166.844 49.3279 167.198 49.0806 167.586 48.9746H167.657C167.657 48.9746 167.763 48.9746 167.834 48.9746C167.834 48.9746 167.869 48.9746 167.904 48.9746H167.975C167.975 48.9746 168.01 48.9746 168.046 48.9746C168.046 48.9746 168.081 48.9746 168.116 48.9746C168.116 48.9746 168.152 48.9746 168.187 48.9746C168.187 48.9746 168.187 48.9746 168.222 48.9746L169.6 49.1866C169.848 49.1866 170.06 49.2926 170.272 49.4339C171.084 49.9639 171.332 51.0239 170.802 51.8366L160.131 68.5492C159.813 69.0792 159.248 69.3619 158.682 69.3619C158.612 69.3619 158.506 69.3619 158.435 69.3619L157.057 69.1499H157.128ZM178.716 112.681L180.094 112.893H182.603L178.716 108.158L182.179 103.847L180.801 103.635H178.292L176.667 105.649V100.349L175.289 100.137H173.275V103.671C173.275 103.671 173.098 103.635 173.028 103.6L171.65 103.388C171.65 103.388 171.508 103.388 171.438 103.388C171.084 103.388 170.731 103.494 170.448 103.706L169.671 103.6H167.94V112.645L169.318 112.857H171.332V108.759C171.332 107.487 171.438 106.639 171.65 106.215C171.791 105.932 171.968 105.72 172.144 105.649L173.028 105.791L173.31 104.943V112.645L174.688 112.857H176.702V110.137L178.752 112.645L178.716 112.681ZM45.9336 95.2259L44.5556 95.0139V58.1966H53.0356C53.601 58.1966 54.1663 58.1966 54.6963 58.3026C54.6963 58.3026 54.9083 58.3026 55.0143 58.3379L56.3923 58.5499C61.2683 59.2919 63.7063 62.8252 63.7063 69.2206C63.7063 71.3759 63.353 73.2486 62.6816 74.7679C62.0103 76.2872 60.8443 77.5239 59.1483 78.4426L64.837 95.2612H59.2543L57.8763 95.0492L53.0356 79.5379H51.1983V95.2612H45.9336V95.2259ZM139.32 89.7492V58.4086L137.942 58.1966H132.677V95.0139L134.055 95.2259H149.778V89.9612L148.4 89.7492H139.32ZM22.543 106.674L23.921 106.886H94.0223V103.035L92.6443 102.823H22.543V106.674ZM112.007 95.2259H117.272V84.2019L119.356 80.3152L124.762 95.0139L126.14 95.2259H131.723L123.208 73.1426L130.38 58.4086L129.002 58.1966H123.738L117.307 72.2239V58.4086L115.929 58.1966H110.664V95.0139L112.042 95.2259H112.007ZM72.9283 86.5339C72.9283 87.8059 73.2816 88.7599 73.9883 89.3606C74.3416 89.6786 74.7656 89.9259 75.1896 90.0672C76.1083 90.0672 76.921 89.7492 77.6276 89.1486C78.3343 88.5479 78.6876 87.5939 78.6876 86.3219V66.8886C78.6876 65.6166 78.3343 64.6626 77.6276 64.0619C77.2743 63.7439 76.8503 63.4966 76.4263 63.3552C75.5076 63.3552 74.695 63.6732 73.9883 64.2739C73.2816 64.8746 72.9283 65.8286 72.9283 67.1006V86.5339ZM22.543 51.6599L23.921 51.8719H89.7116V48.0206L88.3336 47.8086H22.543V51.6599ZM23.921 95.2259L22.543 95.0139V58.1966H30.2456C30.7756 58.1966 31.2703 58.1966 31.765 58.2672C31.765 58.2672 31.9416 58.2672 32.0476 58.2672C32.0476 58.2672 32.1183 58.2672 32.189 58.2672C32.189 58.2672 32.2243 58.2672 32.2596 58.2672L33.6376 58.4792C34.4856 58.6206 35.263 58.8326 35.9343 59.1152C37.1356 59.6452 38.0896 60.3166 38.867 61.1999C39.609 62.0479 40.1743 63.0372 40.4923 64.1679C40.8103 65.2986 40.987 66.4646 40.987 67.6659V69.0086C40.987 69.9979 40.9163 70.8459 40.7396 71.5526C40.5983 72.2592 40.351 72.8599 40.033 73.3546C39.4323 74.3086 38.549 75.1566 37.3476 75.8279C38.5843 76.4286 39.503 77.2766 40.1036 78.4072C40.7043 79.5379 40.987 81.0926 40.987 83.0712V85.1559C40.987 88.4066 40.2096 90.8799 38.6196 92.6112C37.0296 94.3426 34.5563 95.1906 31.0936 95.1906H23.921V95.2259ZM194.722 48.0206L193.344 47.8086H174.936V51.6599L176.314 51.8719H194.722V48.0206ZM106.813 51.6599L108.191 51.8719H157.976V48.0206L156.598 47.8086H106.813V51.6599ZM188.115 107.027C187.974 106.533 187.726 106.144 187.338 105.826C187.232 105.72 187.09 105.649 186.984 105.579C186.56 105.649 186.207 105.791 185.854 106.073C185.606 106.25 185.394 106.568 185.218 107.027H188.15H188.115ZM192.037 100.279V103.6H191.012V105.543L192.037 105.685V112.61L193.415 112.822H195.429V105.755H196.63V103.812L195.429 103.635V100.491L194.051 100.279H192.037ZM124.303 112.681L125.681 112.893H127.695V110.172L129.744 112.681L131.122 112.893H133.631L129.744 108.158L133.207 103.847L131.829 103.635H129.32L127.695 105.649V100.349L126.317 100.137H124.303V112.681ZM162.604 110.773C163.064 110.702 163.452 110.455 163.77 110.066C164.194 109.571 164.406 108.935 164.406 108.123C164.406 107.31 164.194 106.709 163.77 106.215C163.594 106.003 163.382 105.826 163.17 105.72C162.71 105.791 162.322 106.038 162.004 106.427C161.58 106.921 161.368 107.557 161.368 108.335C161.368 109.112 161.58 109.748 162.004 110.278C162.18 110.49 162.392 110.667 162.604 110.808V110.773ZM147.128 103.777C147.128 103.777 147.199 103.741 147.234 103.706C147.658 103.494 148.118 103.388 148.612 103.388C148.754 103.388 148.86 103.388 148.966 103.388L150.344 103.6C150.697 103.671 151.015 103.777 151.333 103.989C151.439 104.059 151.51 104.13 151.58 104.201C151.757 104.059 151.934 103.918 152.11 103.777C152.57 103.494 153.1 103.353 153.665 103.353C153.806 103.353 153.983 103.353 154.124 103.353L155.502 103.565C155.891 103.635 156.244 103.777 156.562 103.989C156.986 104.271 157.304 104.695 157.516 105.155C157.693 105.649 157.799 106.427 157.799 107.487V112.787H155.785L154.407 112.575V108.017C154.407 106.992 154.301 106.285 154.054 105.932C153.983 105.826 153.912 105.755 153.842 105.685C153.7 105.755 153.559 105.826 153.453 105.932C153.17 106.144 152.958 106.462 152.817 106.851C152.676 107.239 152.605 107.875 152.605 108.723V112.787H150.591L149.213 112.575V108.229C149.213 107.416 149.142 106.851 149.036 106.462C148.93 106.144 148.789 105.861 148.612 105.685C148.471 105.755 148.365 105.826 148.224 105.932C147.941 106.144 147.729 106.462 147.588 106.886C147.446 107.275 147.376 107.911 147.376 108.794V112.787H145.362L143.984 112.575V103.529H145.998L147.058 103.671L147.128 103.777ZM106.212 112.681V103.635H107.944L108.721 103.741C109.039 103.529 109.357 103.423 109.71 103.423C109.781 103.423 109.852 103.423 109.922 103.423C110.382 103.494 110.841 103.565 111.3 103.635H113.314L114.692 103.847V112.893H112.678L111.3 112.681V105.685V105.826L110.382 105.685C110.205 105.791 110.028 105.967 109.887 106.25C109.675 106.674 109.569 107.522 109.569 108.794V109.218V112.857H107.555L106.177 112.645L106.212 112.681ZM115.187 103.635V112.681L116.565 112.893H118.579V109.289C118.579 108.335 118.579 107.734 118.685 107.451C118.791 106.921 119.003 106.497 119.286 106.179C119.427 106.003 119.604 105.897 119.78 105.826C119.992 106.003 120.134 106.285 120.204 106.603C120.275 106.957 120.346 107.663 120.346 108.759V112.716L121.724 112.928H123.738V106.957C123.738 105.932 123.49 105.119 123.031 104.589C122.572 104.095 122.042 103.777 121.406 103.671L120.028 103.459C120.028 103.459 119.745 103.459 119.604 103.459C119.215 103.459 118.826 103.529 118.473 103.706C118.402 103.706 118.332 103.777 118.226 103.812L117.201 103.671H115.187V103.635ZM100.912 110.773C101.372 110.702 101.76 110.455 102.078 110.066C102.502 109.571 102.714 108.935 102.714 108.123C102.714 107.31 102.502 106.709 102.078 106.215C101.902 106.003 101.69 105.826 101.478 105.72C101.018 105.791 100.63 106.038 100.312 106.427C99.8876 106.921 99.6756 107.557 99.6756 108.335C99.6756 109.112 99.8876 109.748 100.312 110.278C100.488 110.49 100.7 110.667 100.912 110.808V110.773ZM94.0223 110.843L92.6443 110.631H22.543V114.483L23.921 114.695H94.0223V110.843Z" fill="#D1D3D4"/>
<path fill-rule="evenodd" clip-rule="evenodd" d="M102.61 100.138H104.624V112.681H102.61V111.727C102.221 112.151 101.833 112.434 101.409 112.646C101.02 112.823 100.561 112.929 100.101 112.929C99.0413 112.929 98.158 112.469 97.3807 111.586C96.6033 110.667 96.25 109.572 96.25 108.229C96.25 106.887 96.6033 105.685 97.3453 104.802C98.0873 103.919 98.9707 103.459 100.031 103.459C100.525 103.459 100.985 103.565 101.409 103.777C101.833 103.989 102.221 104.272 102.575 104.696V100.209L102.61 100.138ZM100.49 105.473C99.854 105.473 99.324 105.721 98.9353 106.215C98.5113 106.71 98.2993 107.346 98.2993 108.123C98.2993 108.901 98.5113 109.537 98.9353 110.067C99.3593 110.561 99.8893 110.809 100.49 110.809C101.091 110.809 101.656 110.561 102.08 110.067C102.504 109.572 102.716 108.936 102.716 108.123C102.716 107.311 102.504 106.71 102.08 106.215C101.656 105.721 101.126 105.473 100.49 105.473ZM106.214 103.636H107.945V104.802C108.122 104.343 108.369 104.025 108.687 103.777C109.005 103.53 109.323 103.424 109.712 103.424C109.959 103.424 110.242 103.495 110.525 103.671L109.889 105.615C109.641 105.473 109.465 105.403 109.323 105.403C109.005 105.403 108.758 105.615 108.546 106.039C108.334 106.463 108.228 107.311 108.228 108.583V109.007V112.646H106.214V103.601V103.636ZM112.327 99.926C112.68 99.926 112.998 100.067 113.245 100.35C113.493 100.633 113.634 100.986 113.634 101.375C113.634 101.763 113.493 102.117 113.245 102.399C112.998 102.682 112.68 102.823 112.327 102.823C111.973 102.823 111.655 102.682 111.408 102.399C111.161 102.117 111.019 101.763 111.019 101.339C111.019 100.915 111.161 100.597 111.408 100.315C111.655 100.032 111.973 99.8906 112.327 99.8906V99.926ZM111.337 103.636H113.351V112.681H111.337V103.636ZM115.189 103.636H117.203V104.555C117.662 104.131 118.086 103.813 118.439 103.671C118.828 103.495 119.181 103.424 119.57 103.424C120.383 103.424 121.054 103.742 121.619 104.378C122.079 104.908 122.326 105.685 122.326 106.745V112.717H120.312V108.759C120.312 107.699 120.277 106.957 120.171 106.604C120.1 106.251 119.923 105.968 119.711 105.791C119.499 105.615 119.217 105.509 118.899 105.509C118.475 105.509 118.121 105.65 117.839 105.968C117.556 106.286 117.344 106.71 117.238 107.24C117.167 107.523 117.132 108.123 117.132 109.077V112.681H115.118V103.636H115.189ZM124.305 100.138H126.319V107.346L129.322 103.636H131.831L128.368 107.947L132.255 112.681H129.746L126.319 108.512V112.681H124.305V100.138ZM138.049 104.908L136.813 106.321C136.318 105.756 135.859 105.473 135.435 105.473C135.223 105.473 135.046 105.544 134.905 105.65C134.763 105.756 134.728 105.897 134.728 106.039C134.728 106.145 134.763 106.286 134.834 106.357C134.905 106.463 135.117 106.604 135.435 106.781L136.177 107.205C136.954 107.629 137.484 108.088 137.802 108.512C138.085 108.971 138.226 109.466 138.226 110.067C138.226 110.879 137.979 111.551 137.449 112.081C136.919 112.611 136.212 112.893 135.329 112.893C134.163 112.893 133.209 112.363 132.502 111.339L133.739 109.819C133.986 110.137 134.269 110.385 134.587 110.561C134.905 110.738 135.187 110.844 135.435 110.844C135.717 110.844 135.929 110.773 136.071 110.632C136.247 110.491 136.318 110.314 136.318 110.137C136.318 109.784 136.035 109.466 135.435 109.113L134.763 108.724C133.456 107.982 132.785 107.063 132.785 105.968C132.785 105.261 133.032 104.661 133.527 104.131C134.021 103.636 134.657 103.389 135.399 103.389C135.929 103.389 136.424 103.53 136.883 103.777C137.343 104.025 137.731 104.413 138.049 104.873V104.908ZM144.056 103.636H146.07V104.696C146.423 104.272 146.812 103.954 147.236 103.742C147.66 103.53 148.119 103.424 148.614 103.424C149.109 103.424 149.568 103.565 149.992 103.848C150.416 104.131 150.734 104.519 150.981 105.085C151.299 104.555 151.688 104.131 152.183 103.848C152.642 103.565 153.172 103.424 153.737 103.424C154.303 103.424 154.833 103.565 155.257 103.883C155.681 104.166 155.999 104.59 156.211 105.049C156.387 105.544 156.493 106.321 156.493 107.417V112.717H154.479V108.159C154.479 107.134 154.373 106.427 154.126 106.074C153.879 105.721 153.561 105.544 153.101 105.544C152.748 105.544 152.43 105.65 152.147 105.862C151.865 106.074 151.653 106.392 151.511 106.781C151.37 107.169 151.299 107.805 151.299 108.653V112.717H149.285V108.371C149.285 107.558 149.215 106.993 149.109 106.604C149.003 106.251 148.826 105.968 148.614 105.791C148.402 105.615 148.155 105.544 147.837 105.544C147.483 105.544 147.201 105.65 146.918 105.862C146.635 106.074 146.423 106.392 146.282 106.816C146.141 107.205 146.07 107.841 146.07 108.724V112.717H144.056V103.671V103.636ZM164.337 103.636H166.351V112.681H164.337V111.727C163.949 112.151 163.56 112.434 163.136 112.646C162.747 112.823 162.288 112.929 161.829 112.929C160.769 112.929 159.885 112.469 159.108 111.586C158.331 110.667 157.977 109.572 157.977 108.229C157.977 106.887 158.331 105.685 159.073 104.802C159.815 103.919 160.698 103.459 161.758 103.459C162.253 103.459 162.712 103.565 163.136 103.777C163.56 103.989 163.949 104.272 164.302 104.696V103.707L164.337 103.636ZM162.182 105.473C161.546 105.473 161.016 105.721 160.627 106.215C160.203 106.71 159.991 107.346 159.991 108.123C159.991 108.901 160.203 109.537 160.627 110.067C161.051 110.561 161.581 110.809 162.182 110.809C162.783 110.809 163.348 110.561 163.772 110.067C164.196 109.572 164.408 108.936 164.408 108.123C164.408 107.311 164.196 106.71 163.772 106.215C163.348 105.721 162.818 105.473 162.182 105.473ZM167.906 103.636H169.637V104.802C169.814 104.343 170.061 104.025 170.379 103.777C170.697 103.53 171.015 103.424 171.404 103.424C171.651 103.424 171.934 103.495 172.217 103.671L171.581 105.615C171.333 105.473 171.157 105.403 170.98 105.403C170.662 105.403 170.415 105.615 170.203 106.039C169.991 106.463 169.885 107.311 169.885 108.583V109.007V112.646H167.871V103.601L167.906 103.636ZM173.277 100.138H175.291V107.346L178.294 103.636H180.803L177.34 107.947L181.227 112.681H178.718L175.291 108.512V112.681H173.277V100.138ZM190.131 108.795H183.629C183.735 109.431 183.983 109.961 184.371 110.349C184.76 110.738 185.29 110.915 185.926 110.915C186.668 110.915 187.339 110.632 187.869 110.031L189.565 110.915C189.141 111.586 188.647 112.081 188.046 112.399C187.445 112.717 186.739 112.893 185.926 112.893C184.654 112.893 183.629 112.434 182.852 111.551C182.075 110.667 181.651 109.537 181.651 108.194C181.651 106.851 182.039 105.685 182.852 104.767C183.629 103.848 184.654 103.389 185.82 103.389C187.092 103.389 188.117 103.848 188.929 104.731C189.742 105.65 190.131 106.851 190.131 108.335V108.759V108.795ZM188.117 107.028C187.975 106.533 187.728 106.145 187.339 105.827C186.951 105.509 186.491 105.367 185.961 105.367C185.396 105.367 184.901 105.544 184.477 105.897C184.195 106.109 183.947 106.498 183.735 107.028H188.117ZM192.039 100.279H194.053V103.601H195.254V105.544H194.053V112.611H192.039V105.544H191.014V103.601H192.039V100.279Z" fill="white"/>
<path d="M88.3336 47.8086H22.543V51.6599H88.3336V47.8086Z" fill="white"/>
<path d="M156.597 47.8086H106.812V51.6599H156.597V47.8086Z" fill="white"/>
<path d="M193.346 47.8086H174.938V51.6599H193.346V47.8086Z" fill="white"/>
<path fill-rule="evenodd" clip-rule="evenodd" d="M27.8076 77.9466V89.748H30.069C31.129 89.748 31.977 89.6067 32.5776 89.2887C33.1783 88.9707 33.6376 88.5467 33.9556 87.9813C34.2736 87.416 34.4503 86.78 34.521 86.0027C34.5916 85.2607 34.627 84.4126 34.627 83.5293C34.627 82.646 34.5916 81.798 34.4856 81.0913C34.3796 80.42 34.1676 79.8193 33.8496 79.3246C33.4963 78.83 33.037 78.4766 32.4363 78.2646C31.8356 78.0526 31.0583 77.9113 30.1043 77.9113H27.7723L27.8076 77.9466ZM27.8076 63.142V73.2826H30.175C31.9416 73.2826 33.1076 72.8586 33.7083 71.9753C34.309 71.092 34.627 69.82 34.627 68.124C34.627 66.428 34.2736 65.2266 33.6023 64.414C32.931 63.6013 31.7296 63.1773 29.963 63.1773H27.8076V63.142ZM22.543 95.0127V58.1953H30.2456C31.9416 58.1953 33.3903 58.4427 34.5563 58.9727C35.7576 59.5027 36.7116 60.174 37.489 61.0573C38.231 61.9053 38.7963 62.8946 39.1143 64.0253C39.4323 65.156 39.609 66.322 39.609 67.5233V68.866C39.609 69.8553 39.5383 70.7033 39.3616 71.41C39.2203 72.1166 38.973 72.7173 38.655 73.212C38.0543 74.166 37.171 75.014 35.9696 75.6853C37.2063 76.286 38.125 77.134 38.7256 78.2646C39.3263 79.3953 39.609 80.95 39.609 82.9286V85.0133C39.609 88.264 38.8316 90.7373 37.2416 92.4687C35.687 94.2 33.1783 95.048 29.7156 95.048H22.543V95.0127Z" fill="white"/>
<path fill-rule="evenodd" clip-rule="evenodd" d="M49.8194 63.142V74.6253H52.8227C53.7414 74.6253 54.4834 74.484 55.0487 74.2367C55.614 73.9893 56.038 73.6006 56.356 73.1413C56.6387 72.6466 56.8154 72.0813 56.9214 71.3746C57.0274 70.668 57.0627 69.8553 57.0627 68.9013C57.0627 67.9473 57.0274 67.1346 56.9214 66.428C56.8154 65.7213 56.6034 65.1207 56.2854 64.5907C55.614 63.6367 54.3774 63.142 52.5754 63.142H49.8194ZM44.5547 95.0127V58.1953H53.0347C59.2534 58.1953 62.3274 61.7993 62.3274 69.0073C62.3274 71.1627 61.974 73.0353 61.3027 74.5547C60.6314 76.074 59.4654 77.3106 57.7694 78.2293L63.458 95.048H57.8754L52.964 79.3246H49.8194V95.048H44.5547V95.0127Z" fill="white"/>
<path fill-rule="evenodd" clip-rule="evenodd" d="M71.5498 86.3221C71.5498 87.5941 71.9032 88.5481 72.6098 89.1487C73.3165 89.7494 74.1645 90.0674 75.1185 90.0674C76.0725 90.0674 76.9205 89.7494 77.6272 89.1487C78.3338 88.5481 78.6872 87.5941 78.6872 86.3221V66.8887C78.6872 65.6167 78.3338 64.6627 77.6272 64.0621C76.9205 63.4614 76.0725 63.1434 75.1185 63.1434C74.1645 63.1434 73.3165 63.4614 72.6098 64.0621C71.9032 64.6627 71.5498 65.6167 71.5498 66.8887V86.3221ZM66.2852 66.8887C66.2852 65.4047 66.5325 64.0974 67.0625 62.9667C67.5925 61.8361 68.2638 60.8821 69.1472 60.1401C69.9598 59.4334 70.9138 58.8681 71.9738 58.4794C73.0338 58.0907 74.0938 57.9141 75.1538 57.9141C76.2138 57.9141 77.2738 58.0907 78.3338 58.4794C79.3938 58.8681 80.3478 59.3981 81.1958 60.1401C82.0085 60.8821 82.6798 61.8361 83.2098 62.9667C83.7398 64.0974 83.9872 65.4047 83.9872 66.8887V86.3221C83.9872 87.8767 83.7398 89.1841 83.2098 90.3147C82.6798 91.4101 82.0085 92.3287 81.1958 93.0707C80.3478 93.8127 79.3938 94.4134 78.3338 94.7667C77.2738 95.1554 76.2138 95.3321 75.1538 95.3321C74.0938 95.3321 73.0338 95.1554 71.9738 94.7667C70.9138 94.3781 69.9952 93.8127 69.1472 93.0707C68.2992 92.3641 67.5925 91.4454 67.0625 90.3147C66.5325 89.2194 66.2852 87.8767 66.2852 86.3221V66.8887Z" fill="white"/>
<path fill-rule="evenodd" clip-rule="evenodd" d="M92.6782 59.0103C93.6322 58.3036 94.5155 57.2436 94.5155 56.0776V46.8556C94.5155 45.725 95.7522 45.2656 97.1302 45.2656C98.4729 45.2656 99.8862 45.725 99.8862 46.8556V56.1836C99.8862 57.3496 100.946 58.4096 101.865 59.1163L102.006 59.2223C102.43 59.4696 102.819 59.7523 103.172 60.0703C103.985 60.8123 104.656 61.7663 105.186 62.897C105.716 64.0276 105.964 65.335 105.964 66.819V93.213C105.964 94.3436 105.045 95.2623 103.914 95.2623H90.3462C89.2155 95.2623 88.2969 94.3436 88.2969 93.213V66.819C88.2969 65.335 88.5442 64.0276 89.0742 62.897C89.6042 61.7663 90.2755 60.8123 91.1589 60.0703C91.6182 59.6463 92.1482 59.293 92.7135 58.975L92.6782 59.0103ZM93.5615 66.8896V86.323C93.5615 86.6763 93.5615 88.1603 93.6675 89.2556C93.7029 89.9623 94.3035 90.4923 94.9749 90.4923H99.2855C99.9922 90.4923 100.558 89.9623 100.593 89.2556C100.664 88.1603 100.699 86.7116 100.699 86.323V66.8896C100.699 65.6176 100.346 64.6636 99.6389 64.063C98.9322 63.4623 98.0842 63.1443 97.1302 63.1443C96.1762 63.1443 95.3282 63.4623 94.6215 64.063C93.9149 64.6636 93.5615 65.6176 93.5615 66.8896Z" fill="white"/>
<path fill-rule="evenodd" clip-rule="evenodd" d="M110.629 95.0127V58.1953H115.929V74.9786H116.035L123.738 58.1953H129.002L121.83 72.9293L130.345 95.0127H124.762L118.756 78.6533L115.929 83.9886V95.0127H110.629Z" fill="white"/>
<path fill-rule="evenodd" clip-rule="evenodd" d="M132.676 95.0127V58.1953H137.94V89.748H148.399V95.0127H132.676Z" fill="white"/>
<path fill-rule="evenodd" clip-rule="evenodd" d="M157.373 69.1846C157.055 69.1846 156.737 69.114 156.455 68.902C155.642 68.372 155.395 67.312 155.925 66.4993L157.868 63.4606L151.084 63.5313L158.363 75.0146H158.469L169.139 58.1959H174.722L161.048 79.4666V91.0206L165.747 92.2926V95.0133H151.19V92.2926L155.783 91.0206V79.4666L142.109 58.1959H147.692L149.706 61.3759L159.246 61.3053L166.595 49.7866C167.125 48.974 168.185 48.762 168.998 49.2566C169.811 49.7866 170.058 50.8466 169.528 51.6593L158.857 68.4073C158.539 68.9373 157.974 69.22 157.409 69.22L157.373 69.1846Z" fill="white"/>
<path fill-rule="evenodd" clip-rule="evenodd" d="M174.938 95.0127V58.1953H180.026L187.976 80.3846H188.082V58.1953H193.346V95.0127H188.4L180.308 72.8586H180.202V95.0127H174.938Z" fill="white"/>
<path d="M92.6443 102.82H22.543V106.672H92.6443V102.82Z" fill="white"/>
<path d="M92.6443 110.629H22.543V114.48H92.6443V110.629Z" fill="white"/>
<path fill-rule="evenodd" clip-rule="evenodd" d="M93.5625 66.8899C93.5625 65.6179 93.9158 64.6639 94.6225 64.0632C95.3292 63.4625 96.1772 63.1445 97.1312 63.1445C98.0852 63.1445 98.9332 63.4625 99.6398 64.0632C100.347 64.6639 100.7 65.6179 100.7 66.8899V86.3232C100.7 86.6765 100.7 88.1605 100.594 89.2559C100.558 89.9625 99.9578 90.4925 99.2865 90.4925H94.9758C94.2692 90.4925 93.7038 89.9625 93.6685 89.2559C93.5978 88.1605 93.5625 86.7119 93.5625 86.3232V66.8899Z" fill="#45A742"/>
</g>
<defs>
<clipPath id="clip0_3014_101">
<rect width="212" height="159" fill="white"/>
</clipPath>
</defs>
</svg>
