<svg width="112" height="112" viewBox="0 0 112 112" fill="none" xmlns="http://www.w3.org/2000/svg">
<g clip-path="url(#clip0_3014_188)">
<path d="M38.0625 0.655534C39.7847 1.94913 40.816 3.13813 41.3438 5.24928C41.3438 9.00303 41.3438 12.7568 41.3438 16.6243C51.0169 16.6243 60.69 16.6243 70.6562 16.6243C70.6562 12.8705 70.6562 9.11678 70.6562 5.24928C71.6048 2.8778 72.4857 1.33587 74.8125 0.218034C76.3461 -0.308824 78.8151 -0.304544 80.3026 0.385515C82.035 1.50963 83.2982 2.79627 83.9087 4.79073C84.0169 5.33439 84.0262 5.83834 84.0248 6.39281C84.0248 6.62365 84.0248 6.85448 84.0248 7.09232C84.0236 7.33345 84.0225 7.57458 84.0214 7.82301C84.0211 8.04575 84.0209 8.26848 84.0207 8.49796C84.0196 9.32913 84.0165 10.1603 84.0137 10.9915C84.0092 12.8503 84.0046 14.7091 84 16.6243C90.4969 16.6243 96.9937 16.6243 103.688 16.6243C103.688 48.098 103.688 79.5718 103.688 111.999C100.367 111.999 97.0463 111.999 93.625 111.999C93.625 111.494 93.625 110.989 93.625 110.468C92.6144 110.468 91.6038 110.468 90.5625 110.468C90.5625 110.973 90.5625 111.479 90.5625 111.999C89.4075 111.999 88.2525 111.999 87.0625 111.999C87.0625 111.494 87.0625 110.989 87.0625 110.468C86.0519 110.468 85.0413 110.468 84 110.468C84 110.973 84 111.479 84 111.999C59.0231 111.999 34.0462 111.999 8.3125 111.999C8.3125 80.5255 8.3125 49.0518 8.3125 16.6243C14.8094 16.6243 21.3062 16.6243 28 16.6243C27.9655 12.9792 27.9655 12.9792 27.9212 9.33429C27.9186 8.87326 27.9164 8.41222 27.9146 7.95119C27.9101 7.71677 27.9056 7.48236 27.901 7.24084C27.9 5.04215 28.4661 3.30807 29.9833 1.69631C32.0269 -0.161523 35.6143 -0.933046 38.0625 0.655534Z" fill="#F9FBFB"/>
<path d="M38.0625 0.655534C39.7847 1.94913 40.816 3.13813 41.3438 5.24928C41.3438 9.00303 41.3438 12.7568 41.3438 16.6243C51.0169 16.6243 60.69 16.6243 70.6562 16.6243C70.6562 12.8705 70.6562 9.11678 70.6562 5.24928C71.6048 2.8778 72.4857 1.33587 74.8125 0.218034C76.3461 -0.308824 78.8151 -0.304544 80.3026 0.385515C82.035 1.50963 83.2982 2.79627 83.9087 4.79073C84.0169 5.33439 84.0262 5.83834 84.0248 6.39281C84.0248 6.62365 84.0248 6.85448 84.0248 7.09232C84.0236 7.33345 84.0225 7.57458 84.0214 7.82301C84.0211 8.04575 84.0209 8.26848 84.0207 8.49796C84.0196 9.32913 84.0165 10.1603 84.0137 10.9915C84.0092 12.8503 84.0046 14.7091 84 16.6243C90.4969 16.6243 96.9937 16.6243 103.688 16.6243C103.688 48.098 103.688 79.5718 103.688 111.999C100.367 111.999 97.0463 111.999 93.625 111.999C93.625 110.916 93.625 109.834 93.625 108.718C95.8628 108.718 98.1006 108.718 100.406 108.718C100.406 86.9896 100.406 65.2612 100.406 42.8743C85.2469 42.8743 70.0875 42.8743 54.4688 42.8743C54.4688 41.7915 54.4688 40.7087 54.4688 39.593C69.6281 39.593 84.7875 39.593 100.406 39.593C100.406 33.0962 100.406 26.5993 100.406 19.9055C71.0981 19.9055 41.79 19.9055 11.5938 19.9055C11.5938 26.4024 11.5938 32.8993 11.5938 39.593C24.5875 39.593 37.5812 39.593 50.9688 39.593C50.9688 40.6758 50.9688 41.7587 50.9688 42.8743C37.975 42.8743 24.9813 42.8743 11.5938 42.8743C11.5938 64.6027 11.5938 86.3312 11.5938 108.718C35.4878 108.718 59.3819 108.718 84 108.718C84 109.801 84 110.884 84 111.999C59.0231 111.999 34.0462 111.999 8.3125 111.999C8.3125 80.5255 8.3125 49.0518 8.3125 16.6243C14.8094 16.6243 21.3062 16.6243 28 16.6243C27.9655 12.9792 27.9655 12.9792 27.9212 9.33429C27.9186 8.87326 27.9164 8.41222 27.9146 7.95119C27.9101 7.71677 27.9056 7.48236 27.901 7.24084C27.9 5.04215 28.4661 3.30807 29.9833 1.69631C32.0269 -0.161523 35.6143 -0.933046 38.0625 0.655534Z" fill="black"/>
<path d="M11.5938 19.9062C40.9019 19.9062 70.21 19.9062 100.406 19.9062C100.406 26.4031 100.406 32.9 100.406 39.5938C85.2469 39.5938 70.0875 39.5938 54.4688 39.5938C54.4688 40.6766 54.4688 41.7594 54.4688 42.875C54.3966 42.875 54.3244 42.875 54.25 42.875C54.25 42.3697 54.25 41.8644 54.25 41.3438C53.2394 41.3438 52.2288 41.3438 51.1875 41.3438C51.1875 41.8491 51.1875 42.3544 51.1875 42.875C51.1153 42.875 51.0431 42.875 50.9688 42.875C50.9688 41.7922 50.9688 40.7094 50.9688 39.5938C37.975 39.5938 24.9813 39.5938 11.5938 39.5938C11.5938 33.0969 11.5938 26.6 11.5938 19.9062Z" fill="#DB5474"/>
<path d="M11.5938 19.9062C12.7488 19.9062 13.9037 19.9062 15.0938 19.9062C15.0938 25.3203 15.0938 30.7344 15.0938 36.3125C23.7562 36.2042 23.7562 36.2042 32.5938 36.0938C31.9441 35.7328 31.2944 35.3719 30.625 35C29.1848 33.7582 28.3301 32.4582 28.1512 30.5677C28.0719 28.3442 28.4628 26.6141 29.9688 24.9375C30.5575 24.5034 30.5575 24.5034 31.1855 24.1172C31.3934 23.9875 31.6012 23.8578 31.8153 23.7241C33.154 22.9638 34.5945 23.0683 36.0938 23.1875C36.8168 23.3886 37.4193 23.6803 38.0625 24.0625C38.2926 24.1843 38.5227 24.3061 38.7598 24.4316C40.1724 25.5932 41.0144 27.1708 41.2062 28.9878C41.2471 31.2918 40.8768 32.8154 39.3203 34.5352C38.5 35.2188 38.5 35.2188 36.5312 36.0938C49.3084 36.0938 62.0856 36.0938 75.25 36.0938C74.6003 35.7328 73.9506 35.3719 73.2812 35C71.841 33.7582 70.9864 32.4582 70.8075 30.5677C70.7282 28.3442 71.119 26.6141 72.625 24.9375C73.2137 24.5034 73.2137 24.5034 73.8418 24.1172C74.0496 23.9875 74.2574 23.8578 74.4716 23.7241C75.8103 22.9638 77.2508 23.0683 78.75 23.1875C79.473 23.3886 80.0756 23.6803 80.7188 24.0625C80.9488 24.1843 81.1789 24.3061 81.416 24.4316C82.8287 25.5932 83.6706 27.1708 83.8624 28.9878C83.9034 31.2918 83.533 32.8154 81.9766 34.5352C81.1562 35.2188 81.1562 35.2188 79.1875 36.0938C86.1175 36.1659 93.0475 36.2381 100.188 36.3125C100.188 30.8984 100.188 25.4844 100.188 19.9062C100.26 19.9062 100.332 19.9062 100.406 19.9062C100.406 26.4031 100.406 32.9 100.406 39.5938C85.2469 39.5938 70.0875 39.5938 54.4688 39.5938C54.4688 40.6766 54.4688 41.7594 54.4688 42.875C54.3966 42.875 54.3244 42.875 54.25 42.875C54.25 42.3697 54.25 41.8644 54.25 41.3438C53.2394 41.3438 52.2288 41.3438 51.1875 41.3438C51.1875 41.8491 51.1875 42.3544 51.1875 42.875C51.1153 42.875 51.0431 42.875 50.9688 42.875C50.9688 41.7922 50.9688 40.7094 50.9688 39.5938C37.975 39.5938 24.9813 39.5938 11.5938 39.5938C11.5938 33.0969 11.5938 26.6 11.5938 19.9062Z" fill="#D51642"/>
<path d="M44.4062 47.6875C52.0581 47.6875 59.71 47.6875 67.5938 47.6875C67.5938 56.4375 67.5938 56.4375 66.5 59.0625C66.2781 59.6082 66.0575 60.1545 65.8386 60.7014C65.7812 60.8449 65.7237 60.9883 65.6645 61.1362C65.478 61.6024 65.2917 62.0688 65.1055 62.5352C65.0399 62.6992 64.9743 62.8633 64.9067 63.0324C63.5245 66.4913 62.1562 69.9556 60.7909 73.4212C60.2707 74.7415 59.7493 76.0614 59.2274 77.3811C59 77.9566 58.7725 78.532 58.545 79.1075C58.3988 79.4775 58.2524 79.8475 58.106 80.2175C57.9034 80.7294 57.7011 81.2415 57.4988 81.7535C57.4386 81.9056 57.3783 82.0576 57.3163 82.2142C57.0826 82.8062 56.8576 83.3961 56.6562 84C53.1191 84 49.5819 84 45.9375 84C46.6758 81.5391 46.6758 81.5391 47.1502 80.3593C47.2552 80.0967 47.3603 79.8341 47.4685 79.5635C47.5811 79.285 47.6937 79.0064 47.8063 78.7278C47.9231 78.4367 48.0399 78.1455 48.1566 77.8544C48.4611 77.0953 48.7667 76.3366 49.0725 75.578C49.3856 74.801 49.6975 74.0236 50.0096 73.2462C50.6199 71.7262 51.2314 70.2067 51.8438 68.6875C53.0008 68.8434 53.8591 69.071 54.9062 69.5625C54.7674 70.6732 54.4359 71.6244 54.027 72.6566C53.9614 72.8249 53.8958 72.9932 53.8282 73.1665C53.6896 73.5214 53.5504 73.876 53.4106 74.2304C53.199 74.767 52.9893 75.3043 52.7798 75.8417C52.1378 77.4839 51.4886 79.117 50.75 80.7188C51.905 80.6466 53.06 80.5744 54.25 80.5C54.4437 80.0091 54.6374 79.5181 54.837 79.0123C55.6538 76.9426 56.4709 74.873 57.2881 72.8034C57.5285 72.1944 57.7689 71.5854 58.0093 70.9764C59.5942 66.9617 61.1796 62.9474 62.7812 58.9395C62.8368 58.8003 62.8924 58.6611 62.9496 58.5177C63.1029 58.1338 63.2565 57.7501 63.4102 57.3663C63.4953 57.1536 63.5805 56.9408 63.6682 56.7216C63.875 56.2188 63.875 56.2188 64.0938 55.7812C64.1659 54.1931 64.2381 52.605 64.3125 50.9688C58.8984 50.9688 53.4844 50.9688 47.9062 50.9688C47.9062 52.0516 47.9062 53.1344 47.9062 54.25C52.3097 54.25 56.7131 54.25 61.25 54.25C59.7055 58.3619 58.115 62.441 56.4375 66.5C55.4269 66.1391 54.4163 65.7781 53.375 65.4062C53.5581 64.4905 53.7876 63.7508 54.1261 62.8889C54.2042 62.6896 54.2042 62.6896 54.2839 62.4864C54.3936 62.2071 54.5037 61.928 54.6143 61.6492C54.7831 61.2229 54.9501 60.796 55.1169 60.369C55.224 60.097 55.3312 59.8249 55.4386 59.553C55.5357 59.3068 55.6328 59.0606 55.7329 58.8069C56 58.1875 56 58.1875 56.4375 57.5312C52.4672 57.5312 48.4969 57.5312 44.4062 57.5312C44.4062 54.2828 44.4062 51.0344 44.4062 47.6875Z" fill="#040505"/>
<path d="M27.3438 87.2812C35.8428 87.2812 35.8428 87.2812 38.2812 89.6875C39.9791 91.653 40.6168 93.6128 40.5439 96.1979C40.3093 98.4083 39.2708 100.177 37.6438 101.664C34.4542 104.206 31.5925 103.688 27.3438 103.688C27.3438 98.2734 27.3438 92.8594 27.3438 87.2812Z" fill="#030303"/>
<path d="M52.9253 87.6225C54.5907 88.5118 55.9038 89.8026 56.6773 91.5323C56.967 92.6661 56.9301 93.763 56.9192 94.9284C56.9186 95.179 56.918 95.4297 56.9173 95.6879C56.9149 96.4858 56.9094 97.2836 56.9038 98.0815C56.9016 98.6235 56.8996 99.1656 56.8978 99.7076C56.893 101.034 56.8855 102.361 56.8765 103.687C55.7937 103.687 54.7109 103.687 53.5952 103.687C53.5952 102.604 53.5952 101.521 53.5952 100.406C51.4296 100.406 49.264 100.406 47.0327 100.406C47.0327 101.489 47.0327 102.571 47.0327 103.687C45.9499 103.687 44.8671 103.687 43.7515 103.687C43.7298 102.103 43.7139 100.519 43.7034 98.9352C43.699 98.3969 43.6931 97.8587 43.6855 97.3204C43.6748 96.5444 43.6699 95.7686 43.666 94.9925C43.6615 94.7539 43.657 94.5152 43.6523 94.2693C43.6517 92.0767 44.276 90.57 45.7647 88.97C47.6582 87.1547 50.4716 86.6247 52.9253 87.6225Z" fill="#040404"/>
<path d="M47.9062 50.9688C53.3203 50.9688 58.7344 50.9688 64.3125 50.9688C64.3125 56.4731 64.3125 56.4731 63.1641 58.8301C63.0419 59.0995 62.9209 59.3694 62.8008 59.6397C62.6147 60.0587 62.4281 60.4773 62.2381 60.8946C61.5976 62.3026 61.0458 63.7411 60.498 65.1875C60.2855 65.742 60.0725 66.2963 59.8589 66.8503C59.8008 67.001 59.7427 67.1517 59.6829 67.307C58.7791 69.6463 57.8555 71.9779 56.933 74.3098C56.7213 74.8452 56.5098 75.3806 56.2985 75.9161C56.0005 76.6712 55.7017 77.4261 55.4027 78.1809C55.3117 78.4119 55.2207 78.6428 55.1269 78.8808C55.0433 79.0912 54.9597 79.3017 54.8736 79.5185C54.8004 79.7035 54.7272 79.8886 54.6518 80.0792C54.4688 80.5 54.4688 80.5 54.25 80.7187C53.6601 80.7348 53.076 80.739 52.4863 80.7324C52.3204 80.7314 52.1544 80.7304 51.9835 80.7294C51.5723 80.7268 51.1611 80.7229 50.75 80.7187C51.1806 79.3823 51.6581 78.0733 52.1804 76.7701C52.2518 76.5905 52.3232 76.4109 52.3967 76.2258C52.6987 75.4658 53.002 74.7063 53.3051 73.9468C53.5277 73.3888 53.7496 72.8304 53.9714 72.2721C54.04 72.101 54.1086 71.9298 54.1793 71.7535C54.2428 71.5935 54.3064 71.4335 54.3719 71.2687C54.4277 71.1289 54.4835 70.9891 54.541 70.845C54.693 70.4221 54.8045 70 54.9062 69.5625C54.4009 69.4181 53.8956 69.2737 53.375 69.125C53.5829 68.6184 53.7928 68.1127 54.0039 67.6074C54.0628 67.4632 54.1218 67.319 54.1825 67.1703C54.6379 66.0873 54.6379 66.0873 55.125 65.8437C55.6992 66.0488 55.6992 66.0488 56.2188 66.2812C57.3583 63.9174 58.282 61.4624 59.2402 59.0215C59.8313 57.5191 60.4223 56.0167 61.0312 54.4687C54.5344 54.3605 54.5344 54.3605 47.9062 54.25C47.9062 53.1672 47.9062 52.0844 47.9062 50.9688Z" fill="#9BB3F0"/>
<path d="M79.8452 23.5708C80.1404 23.7285 80.4326 23.892 80.7202 24.063C80.9503 24.1848 81.1804 24.3066 81.4175 24.4321C82.8302 25.5936 83.6721 27.1713 83.8639 28.9883C83.9046 31.2753 83.5314 32.7909 82.0191 34.522C80.7648 35.6726 79.0985 36.3614 77.398 36.4223C75.3251 36.3026 73.6724 35.471 72.2574 33.9614C70.9559 32.3893 70.753 31.0133 70.7987 28.9806C70.9624 27.3781 71.554 26.132 72.6265 24.938C73.2152 24.5039 73.2152 24.5039 73.8433 24.1177C74.0511 23.9879 74.2589 23.8582 74.4731 23.7246C76.0252 22.8431 78.2196 22.8634 79.8452 23.5708Z" fill="#030202"/>
<path d="M37.189 23.5708C37.4842 23.7285 37.7763 23.892 38.064 24.063C38.2941 24.1848 38.5242 24.3066 38.7613 24.4321C40.1739 25.5936 41.0159 27.1713 41.2077 28.9883C41.2483 31.2753 40.8752 32.7909 39.3628 34.522C38.1085 35.6726 36.4423 36.3614 34.7417 36.4223C32.6689 36.3026 31.0162 35.471 29.6011 33.9614C28.2997 32.3893 28.0967 31.0133 28.1425 28.9806C28.3062 27.3781 28.8978 26.132 29.9702 24.938C30.559 24.5039 30.559 24.5039 31.187 24.1177C31.3949 23.9879 31.6027 23.8582 31.8168 23.7246C33.369 22.8431 35.5633 22.8634 37.189 23.5708Z" fill="#030202"/>
<path d="M78.6158 87.2608C78.7946 87.2611 78.9733 87.2614 79.1574 87.2618C79.728 87.263 80.2986 87.2657 80.8691 87.2685C81.2561 87.2696 81.643 87.2706 82.03 87.2715C82.9783 87.2739 83.9267 87.2777 84.875 87.2822C84.875 88.365 84.875 89.4478 84.875 90.5634C84.0811 90.5757 84.0811 90.5757 83.2711 90.5882C82.7585 90.5983 82.246 90.6095 81.7334 90.6208C81.3772 90.6281 81.0209 90.6342 80.6646 90.6392C80.1525 90.6465 79.6406 90.658 79.1285 90.6702C78.9692 90.6716 78.8099 90.673 78.6458 90.6745C78.0036 90.6932 77.5461 90.708 77.0071 91.0763C76.6583 91.6356 76.7276 92.1076 76.7812 92.7509C76.8534 92.9675 76.9256 93.1841 77 93.4072C77.6476 93.6231 78.1925 93.6572 78.8697 93.6782C80.6001 93.7378 81.9992 93.8412 83.2856 95.0871C84.5359 96.4743 84.7821 97.5189 84.7528 99.3955C84.5882 100.747 84.024 101.83 82.9541 102.689C82.5645 102.923 82.5645 102.923 81.8125 103.251C81.6523 103.329 81.4921 103.407 81.327 103.488C80.5411 103.747 79.8026 103.743 78.985 103.731C78.8214 103.731 78.6579 103.73 78.4894 103.729C77.9701 103.727 77.4509 103.721 76.9316 103.716C76.5783 103.714 76.225 103.712 75.8716 103.71C75.0081 103.705 74.1448 103.697 73.2812 103.688C73.2812 102.606 73.2812 101.523 73.2812 100.407C73.7764 100.399 74.2716 100.391 74.7817 100.382C75.2625 100.372 75.7432 100.361 76.2239 100.35C76.5574 100.343 76.891 100.336 77.2245 100.331C77.7046 100.324 78.1845 100.313 78.6646 100.3C78.9532 100.295 79.2419 100.289 79.5393 100.283C80.3034 100.186 80.6219 100.075 81.1562 99.5322C81.3012 98.9119 81.2179 98.4292 81.1562 97.7822C80.5272 97.1531 80.0377 97.2778 79.1602 97.249C77.2068 97.1517 75.7947 96.8279 74.375 95.3759C73.3702 94.1184 73.3436 92.7033 73.3872 91.1411C73.5763 89.8061 74.156 88.938 75.1688 88.0709C76.287 87.2778 77.2946 87.2522 78.6158 87.2608Z" fill="#060606"/>
<path d="M78.7913 3.52608C79.7173 4.14339 80.3601 4.82814 80.719 5.90498C80.7381 6.25738 80.7448 6.61052 80.7439 6.96343C80.7438 7.17798 80.7438 7.39253 80.7438 7.61358C80.7427 7.84465 80.7415 8.07572 80.7404 8.3138C80.7401 8.55078 80.7398 8.78777 80.7394 9.03194C80.7382 9.78976 80.7355 10.5476 80.7327 11.3054C80.7316 11.8188 80.7306 12.3322 80.7297 12.8456C80.7275 14.105 80.7232 15.3643 80.719 16.6237C78.5534 16.6237 76.3878 16.6237 74.1565 16.6237C74.1263 15.0315 74.1002 13.4402 74.0844 11.8479C74.0778 11.3066 74.0689 10.7654 74.0575 10.2242C74.0415 9.44491 74.0341 8.66595 74.0283 7.88655C74.0216 7.64564 74.0148 7.40473 74.0078 7.15652C74.0072 5.79638 74.1351 4.99216 75.101 4.00243C76.2556 3.10854 77.4412 3.04959 78.7913 3.52608Z" fill="#F0DAB5"/>
<path d="M36.135 3.52608C37.061 4.14339 37.7038 4.82814 38.0628 5.90498C38.0818 6.25738 38.0885 6.61052 38.0876 6.96343C38.0876 7.17798 38.0876 7.39253 38.0876 7.61358C38.0864 7.84465 38.0853 8.07572 38.0841 8.3138C38.0838 8.55078 38.0835 8.78777 38.0832 9.03194C38.082 9.78976 38.0792 10.5476 38.0764 11.3054C38.0753 11.8188 38.0743 12.3322 38.0734 12.8456C38.0712 14.105 38.0669 15.3643 38.0628 16.6237C35.8971 16.6237 33.7315 16.6237 31.5003 16.6237C31.4701 15.0315 31.444 13.4402 31.4282 11.8479C31.4216 11.3066 31.4126 10.7654 31.4013 10.2242C31.3853 9.44491 31.3779 8.66595 31.3721 7.88655C31.3653 7.64564 31.3585 7.40473 31.3516 7.15652C31.351 5.79638 31.4789 4.99216 32.4447 4.00243C33.5993 3.10854 34.785 3.04959 36.135 3.52608Z" fill="#F0DAB5"/>
<path d="M58.4062 87.2819C59.7146 87.0726 61.0598 86.8652 62.3438 87.2819C63.5069 88.1815 64.2632 89.5119 64.9688 90.7819C65.5006 90.2993 65.8624 89.8743 66.2214 89.2472C66.6933 88.4433 67.0913 87.8788 67.8125 87.2819C69.0987 86.9562 70.448 87.1302 71.75 87.2819C71.4721 88.0511 71.1541 88.6427 70.646 89.2823C70.5152 89.4485 70.3843 89.6147 70.2495 89.786C70.113 89.9567 69.9766 90.1275 69.8359 90.3034C69.5681 90.6419 69.3003 90.9806 69.0327 91.3194C68.9141 91.4682 68.7954 91.617 68.6732 91.7704C68.5335 91.9495 68.3939 92.1286 68.25 92.3132C68.1395 92.4358 68.029 92.5584 67.9151 92.6848C66.8998 93.8808 66.7462 94.7964 66.7615 96.3395C66.7585 96.5507 66.7555 96.7618 66.7524 96.9794C66.7443 97.648 66.745 98.3163 66.7461 98.985C66.7421 99.4408 66.7376 99.8965 66.7324 100.352C66.7211 101.464 66.7178 102.576 66.7188 103.688C65.6359 103.688 64.5531 103.688 63.4375 103.688C63.4516 103.282 63.4516 103.282 63.466 102.867C63.9566 96.8936 63.9566 96.8936 61.7832 91.6432C61.3811 91.2316 60.9724 90.8442 60.5362 90.4691C59.9528 89.9417 59.5405 89.3476 59.0898 88.7038C58.9551 88.5211 58.8203 88.3383 58.6814 88.1501C58.4062 87.7194 58.4062 87.7194 58.4062 87.2819Z" fill="#030303"/>
<path d="M30.625 90.3438C32.6352 90.3438 33.8656 90.4013 35.4922 91.4648C36.5703 92.592 37.2434 93.6649 37.3242 95.252C37.2446 96.7486 36.7496 98.0393 35.6469 99.0767C33.8117 100.481 33.5074 100.188 30.625 100.188C30.625 96.9391 30.625 93.6906 30.625 90.3438Z" fill="#FBFBFB"/>
<path d="M51.4076 90.5619C52.4873 91.0724 53.0395 91.7015 53.5951 92.7494C53.6983 93.5106 53.678 94.2527 53.6498 95.019C53.6317 95.7138 53.6137 96.4086 53.5951 97.1244C51.4295 97.1244 49.2638 97.1244 47.0326 97.1244C47.0145 96.4296 46.9965 95.7348 46.9779 95.019C46.9699 94.8025 46.962 94.5861 46.9538 94.363C46.9345 92.8244 47.3492 92.0799 48.3588 90.9174C49.3535 90.3671 50.2971 90.4019 51.4076 90.5619Z" fill="#F8F8F8"/>
<path d="M78.7914 26.7167C79.5248 27.2056 80.1201 27.6368 80.5004 28.4393C80.7014 29.6141 80.6525 30.5412 80.1176 31.6112C79.2767 32.5454 78.6496 32.9912 77.3695 33.0878C76.1988 33.0084 75.5305 32.6872 74.7445 31.8163C73.9985 30.7387 73.9668 29.727 74.1566 28.4393C75.1491 26.6095 76.8488 26.031 78.7914 26.7167Z" fill="#F1DBB6"/>
<path d="M36.1351 26.7167C36.8685 27.2056 37.4639 27.6368 37.8441 28.4393C38.0452 29.6141 37.9963 30.5412 37.4613 31.6112C36.6205 32.5454 35.9933 32.9912 34.7133 33.0878C33.5426 33.0084 32.8742 32.6872 32.0883 31.8163C31.3422 30.7387 31.3106 29.727 31.5004 28.4393C32.4929 26.6095 34.1926 26.031 36.1351 26.7167Z" fill="#F1DBB6"/>
<path d="M78.0244 3.41797C78.9905 3.52734 79.3761 3.92392 80.0615 4.59375C80.628 5.44358 80.5541 6.14812 80.5417 7.13245C80.5411 7.31602 80.5404 7.4996 80.5398 7.68874C80.5374 8.27495 80.5319 8.86108 80.5263 9.44727C80.5241 9.84475 80.5221 10.2422 80.5203 10.6397C80.5155 11.614 80.5079 12.5882 80.499 13.5625C79.4161 13.5625 78.3333 13.5625 77.2177 13.5625C77.2123 12.1646 77.2083 10.7667 77.2057 9.36881C77.2046 8.89286 77.2031 8.41691 77.2012 7.94096C77.1986 7.25845 77.1973 6.57595 77.1963 5.89343C77.1952 5.67924 77.1941 5.46505 77.1929 5.24437C77.1929 5.04731 77.1929 4.85024 77.1929 4.64721C77.1924 4.47282 77.1919 4.29843 77.1914 4.11876C77.2341 3.47007 77.374 3.50872 78.0244 3.41797Z" fill="#F9F0DF"/>
<path d="M35.3681 3.41797C36.3343 3.52734 36.7198 3.92392 37.4052 4.59375C37.9718 5.44358 37.8979 6.14812 37.8854 7.13245C37.8848 7.31602 37.8842 7.4996 37.8836 7.68874C37.8811 8.27495 37.8756 8.86108 37.8701 9.44727C37.8679 9.84475 37.8659 10.2422 37.8641 10.6397C37.8593 11.614 37.8517 12.5882 37.8427 13.5625C36.7599 13.5625 35.6771 13.5625 34.5615 13.5625C34.5561 12.1646 34.5521 10.7667 34.5494 9.36881C34.5483 8.89286 34.5468 8.41691 34.545 7.94096C34.5423 7.25845 34.5411 6.57595 34.5401 5.89343C34.539 5.67924 34.5378 5.46505 34.5367 5.24437C34.5367 5.04731 34.5366 4.85024 34.5366 4.64721C34.5361 4.47282 34.5357 4.29843 34.5352 4.11876C34.5778 3.47007 34.7177 3.50872 35.3681 3.41797Z" fill="#F9F0DF"/>
<path d="M78.0938 26.4673C79.0005 26.7874 79.6996 27.2445 80.3018 28.0088C80.7117 28.8924 80.6085 29.8938 80.5 30.8423C80.4278 30.9867 80.3556 31.1311 80.2813 31.2798C78.8449 31.1721 77.7544 30.5836 76.8154 29.5033C76.1452 28.566 75.7229 27.878 75.9063 26.6861C76.6071 26.3357 77.3316 26.3904 78.0938 26.4673Z" fill="#F8EFDE"/>
<path d="M35.4375 26.4673C36.3443 26.7874 37.0433 27.2445 37.6455 28.0088C38.0555 28.8924 37.9522 29.8938 37.8438 30.8423C37.7716 30.9867 37.6994 31.1311 37.625 31.2798C36.1887 31.1721 35.0982 30.5836 34.1592 29.5033C33.489 28.566 33.0666 27.878 33.25 26.6861C33.9509 26.3357 34.6753 26.3904 35.4375 26.4673Z" fill="#F8EFDE"/>
<path d="M47.9062 50.9688C53.3203 50.9688 58.7344 50.9688 64.3125 50.9688C64.3125 52.5569 64.3125 54.145 64.3125 55.7812C64.2403 55.7812 64.1681 55.7812 64.0938 55.7812C64.0938 54.2653 64.0938 52.7494 64.0938 51.1875C59.7625 51.1875 55.4312 51.1875 50.9688 51.1875C50.9688 52.1981 50.9688 53.2087 50.9688 54.25C49.9581 54.25 48.9475 54.25 47.9062 54.25C47.9062 53.1672 47.9062 52.0844 47.9062 50.9688Z" fill="#4B71D6"/>
<path d="M52.0625 77C53.2175 77.0722 54.3725 77.1444 55.5625 77.2188C55.2002 78.4955 54.8501 79.5186 54.25 80.7188C53.095 80.7188 51.94 80.7188 50.75 80.7188C51.1607 79.4672 51.5927 78.2305 52.0625 77Z" fill="#3A69E0"/>
<path d="M87.0625 108.719C88.2175 108.719 89.3725 108.719 90.5625 108.719C90.5625 109.802 90.5625 110.884 90.5625 112C89.4075 112 88.2525 112 87.0625 112C87.0625 110.917 87.0625 109.834 87.0625 108.719Z" fill="#070707"/>
<path d="M21.4375 46.1562C22.5925 46.1562 23.7475 46.1562 24.9375 46.1562C24.9375 47.2391 24.9375 48.3219 24.9375 49.4375C23.7825 49.4375 22.6275 49.4375 21.4375 49.4375C21.4375 48.3547 21.4375 47.2719 21.4375 46.1562Z" fill="#111111"/>
<path d="M47.9062 28C48.9891 28 50.0719 28 51.1875 28C51.1875 29.155 51.1875 30.31 51.1875 31.5C50.1047 31.5 49.0219 31.5 47.9062 31.5C47.9062 30.345 47.9062 29.19 47.9062 28Z" fill="#FCF4F6"/>
<path d="M15.0938 46.1562C16.1766 46.1562 17.2594 46.1562 18.375 46.1562C18.375 47.2391 18.375 48.3219 18.375 49.4375C17.2922 49.4375 16.2094 49.4375 15.0938 49.4375C15.0938 48.3547 15.0938 47.2719 15.0938 46.1562Z" fill="#0A0A0A"/>
<path d="M61.0312 28.2188C62.0419 28.2188 63.0525 28.2188 64.0938 28.2188C64.0938 29.2294 64.0938 30.24 64.0938 31.2812C63.0831 31.2812 62.0725 31.2812 61.0312 31.2812C61.0312 30.2706 61.0312 29.26 61.0312 28.2188Z" fill="white"/>
<path d="M54.4688 28.2188C55.4794 28.2188 56.49 28.2188 57.5312 28.2188C57.5312 29.2294 57.5312 30.24 57.5312 31.2812C56.5206 31.2812 55.51 31.2812 54.4688 31.2812C54.4688 30.2706 54.4688 29.26 54.4688 28.2188Z" fill="white"/>
</g>
<defs>
<clipPath id="clip0_3014_188">
<rect width="112" height="112" fill="white"/>
</clipPath>
</defs>
</svg>
