<svg width="60" height="60" viewBox="0 0 60 60" fill="none" xmlns="http://www.w3.org/2000/svg">
<g clip-path="url(#clip0_3014_369)">
<path d="M29.9796 -0.050291C30.1643 -0.0488323 30.1643 -0.0488323 30.3528 -0.0473441C32.7819 0.00527807 34.5199 1.21685 36.408 2.61315C36.8537 2.93992 37.3057 3.25759 37.7579 3.5752C37.9158 3.68627 38.0738 3.79735 38.2317 3.90845C38.3303 3.97767 38.3303 3.97767 38.4309 4.0483C38.6734 4.21973 38.6734 4.21973 38.842 4.36212C39.3885 4.801 39.7866 4.88966 40.4775 4.87736C40.5723 4.87803 40.6671 4.87869 40.7648 4.87938C41.076 4.88095 41.3871 4.87851 41.6983 4.87616C41.9159 4.87681 42.1335 4.87776 42.351 4.879C42.9225 4.88168 43.494 4.88119 44.0654 4.87973C44.98 4.87758 45.8946 4.87876 46.8092 4.88276C47.1277 4.88347 47.4462 4.88193 47.7648 4.88019C47.9611 4.88053 48.1574 4.88096 48.3538 4.88148C48.4416 4.88039 48.5294 4.87931 48.6198 4.87818C49.3602 4.88375 49.896 5.06023 50.4801 5.53809C51.1625 6.37221 51.126 7.08076 51.077 8.11713C51.0705 8.40123 51.0645 8.68535 51.0591 8.96948C51.0496 9.41437 51.0368 9.85797 51.0138 10.3024C50.8751 11.933 50.8751 11.933 51.4256 13.406C51.9461 13.8819 52.5302 14.2042 53.1629 14.5079C53.5808 14.7221 53.9413 14.999 54.3106 15.2866C54.9805 15.7854 55.6615 16.2669 56.3468 16.7441C57.1414 17.2982 57.9333 17.8558 58.7198 18.4214C58.8084 18.4847 58.897 18.5481 58.9882 18.6134C59.0702 18.6725 59.1522 18.7317 59.2366 18.7926C59.3082 18.8442 59.3799 18.8957 59.4536 18.9488C59.9883 19.3674 59.9883 19.3674 60.0458 19.7432C60.0459 19.8593 60.046 19.9754 60.0461 20.095C60.0471 20.2291 60.0481 20.3631 60.0491 20.5011C60.0484 20.649 60.0477 20.7969 60.047 20.9493C60.0475 21.1075 60.0481 21.2657 60.0489 21.4239C60.0506 21.8595 60.0501 22.2951 60.0492 22.7308C60.0487 23.2003 60.0501 23.6698 60.0513 24.1392C60.0534 25.0595 60.0535 25.9798 60.0528 26.9001C60.0524 27.6481 60.0525 28.3962 60.0532 29.1442C60.0533 29.2506 60.0533 29.3569 60.0534 29.4665C60.0536 29.6826 60.0538 29.8986 60.054 30.1147C60.0556 32.1426 60.0549 34.1705 60.0536 36.1984C60.0524 38.0536 60.0539 39.9088 60.0568 41.7639C60.0596 43.6682 60.0607 45.5725 60.06 47.4767C60.0595 48.5461 60.0598 49.6154 60.0619 50.6848C60.0636 51.5954 60.0637 52.5061 60.0616 53.4167C60.0606 53.8813 60.0604 54.3459 60.0622 54.8105C60.0638 55.236 60.0632 55.6616 60.061 56.0871C60.0603 56.3135 60.062 56.5399 60.0637 56.7662C60.0555 57.7317 59.9351 58.3757 59.2769 59.1175C59.1462 59.2285 59.1462 59.2285 59.0128 59.3418C58.9259 59.4176 58.8391 59.4935 58.7496 59.5716C58.1715 59.9869 57.648 60.035 56.9515 60.0311C56.857 60.0315 56.7624 60.032 56.665 60.0324C56.3467 60.0335 56.0286 60.0329 55.7104 60.0323C55.4804 60.0328 55.2505 60.0333 55.0206 60.0339C54.3877 60.0354 53.7549 60.0353 53.122 60.0351C52.4399 60.035 51.7577 60.0363 51.0756 60.0374C49.7388 60.0394 48.402 60.04 47.0652 60.0401C45.9788 60.0402 44.8924 60.0407 43.8061 60.0415C43.4934 60.0417 43.1808 60.0419 42.8682 60.0421C42.7905 60.0421 42.7128 60.0422 42.6327 60.0423C40.4464 60.0437 38.26 60.0446 36.0737 60.0445C35.9913 60.0445 35.9088 60.0445 35.8239 60.0445C35.406 60.0445 34.9882 60.0445 34.5703 60.0444C34.4458 60.0444 34.4458 60.0444 34.3188 60.0444C34.151 60.0444 33.9832 60.0444 33.8154 60.0444C31.2042 60.0443 28.593 60.046 25.9818 60.0492C23.0486 60.0528 20.1155 60.0548 17.1823 60.0546C15.6291 60.0545 14.0758 60.0552 12.5226 60.0577C11.2002 60.0598 9.87787 60.0604 8.5555 60.0588C7.88062 60.058 7.20577 60.058 6.5309 60.06C5.91321 60.0618 5.29556 60.0615 4.67787 60.0595C4.4543 60.0591 4.23073 60.0595 4.00716 60.0608C3.70333 60.0625 3.39964 60.0613 3.09581 60.0593C3.00895 60.0605 2.92209 60.0616 2.83259 60.0628C2.01337 60.0517 1.30341 59.732 0.726656 59.144C0.663059 59.0817 0.599462 59.0193 0.533937 58.955C-0.0788828 58.1312 -0.0496357 57.333 -0.047029 56.3392C-0.0478543 56.1806 -0.0488304 56.0219 -0.0499437 55.8632C-0.0525436 55.4284 -0.0529521 54.9936 -0.0529871 54.5588C-0.0533981 54.0894 -0.0558146 53.62 -0.0579474 53.1506C-0.062211 52.125 -0.0638512 51.0994 -0.0649605 50.0738C-0.0656664 49.4334 -0.0669273 48.7929 -0.0683007 48.1525C-0.072021 46.3789 -0.075152 44.6054 -0.0758896 42.8319C-0.0759612 42.6617 -0.0759632 42.6617 -0.0760362 42.4881C-0.0761309 42.2582 -0.0762245 42.0283 -0.0763187 41.7984C-0.0763663 41.6842 -0.0764128 41.5701 -0.0764618 41.4525C-0.0765089 41.3382 -0.0765563 41.224 -0.0766048 41.1062C-0.0774832 39.2532 -0.0826988 37.4003 -0.0898049 35.5473C-0.0970436 33.6445 -0.100776 31.7417 -0.100949 29.8389C-0.101125 28.7706 -0.102795 27.7025 -0.108309 26.6342C-0.112982 25.725 -0.114443 24.8158 -0.11171 23.9066C-0.11041 23.4426 -0.110627 22.9789 -0.114928 22.515C-0.11883 22.0901 -0.118392 21.6656 -0.114521 21.2407C-0.113578 21.0146 -0.117251 20.7884 -0.121094 20.5622C-0.106199 19.5969 -0.1062 19.5969 0.202922 19.1872C0.438705 18.977 0.673091 18.8036 0.939058 18.6338C1.08175 18.5312 1.2243 18.4284 1.36661 18.3253C1.51182 18.2274 1.6574 18.13 1.80332 18.0332C2.49389 17.567 3.17351 17.0886 3.84677 16.5977C4.66151 16.0048 5.48645 15.4292 6.32136 14.8651C6.49646 14.7465 6.66941 14.6246 6.8404 14.5002C7.08923 14.3376 7.30903 14.2239 7.57792 14.1049C8.07745 13.8589 8.49219 13.6081 8.79062 13.126C9.07495 12.0825 8.9665 10.9509 8.92978 9.88135C8.92145 9.43792 8.91544 8.99455 8.91094 8.55106C8.9074 8.27607 8.90128 8.0011 8.89219 7.72624C8.8708 6.82611 8.93845 6.25259 9.52304 5.53809C10.1901 4.99234 10.7831 4.8711 11.6289 4.89636C11.7216 4.89761 11.8144 4.89887 11.9099 4.90016C12.1103 4.90292 12.3106 4.90641 12.5109 4.91054C12.8301 4.91654 13.1491 4.9193 13.4683 4.92102C14.3755 4.92594 15.2826 4.93205 16.1896 4.95135C19.3183 5.14918 19.3183 5.14918 22.0389 3.87586C22.1758 3.74151 22.3103 3.60456 22.4415 3.46463C22.6902 3.20866 22.9715 3.02199 23.2706 2.82904C23.3583 2.76937 23.446 2.7097 23.5363 2.64823C23.6202 2.59158 23.7042 2.53493 23.7906 2.47656C24.3632 2.08867 24.9315 1.69822 25.4898 1.29004C26.839 0.345402 28.3453 -0.0670545 29.9796 -0.050291Z" fill="#010100"/>
<path d="M11.0175 7.03125C23.5472 7.03125 36.0768 7.03125 48.9862 7.03125C49.0406 11.9438 49.0406 11.9438 49.0961 16.9556C49.1121 17.9879 49.1281 19.0202 49.1446 20.0838C49.1525 21.3489 49.1525 21.3489 49.154 21.9421C49.1556 22.3546 49.1622 22.7667 49.1718 23.1791C49.2535 26.8411 49.2535 26.8411 48.6043 27.6717C48.2533 28.0175 47.8793 28.2667 47.4389 28.4849C47.1347 28.6422 46.8869 28.8552 46.6278 29.0771C46.5367 29.1489 46.4456 29.2207 46.3518 29.2946C45.9963 29.5795 45.6491 29.8733 45.3021 30.1685C44.8346 30.5662 44.3647 30.9602 43.8886 31.3477C43.4151 31.733 42.9474 32.1243 42.4823 32.5195C41.9142 33.0023 41.3399 33.4767 40.7616 33.9473C40.3919 34.2513 40.027 34.5605 39.6625 34.8706C39.1288 35.3245 38.5876 35.7664 38.0383 36.2013C37.6882 36.4841 37.3459 36.7755 37.0038 37.0679C36.397 37.5859 35.7759 38.0823 35.1456 38.5714C34.7721 38.8623 34.4108 39.1599 34.0595 39.4775C32.8138 40.581 31.3586 41.0576 29.7061 41.0408C28.0401 40.9378 26.7892 40.1995 25.5487 39.1406C25.4264 39.0373 25.304 38.934 25.1816 38.8307C24.9868 38.6663 24.7922 38.5016 24.598 38.3365C24.1958 37.9945 23.7903 37.6574 23.3807 37.3242C22.8412 36.885 22.3096 36.4371 21.7795 35.9866C21.276 35.5595 20.7659 35.1413 20.2538 34.7246C19.8841 34.4206 19.5192 34.1114 19.1547 33.8013C18.7131 33.4257 18.2687 33.0554 17.8143 32.6953C17.2926 32.2818 16.7846 31.8536 16.2776 31.4223C15.8754 31.0805 15.4699 30.7433 15.0604 30.4102C14.587 30.0248 14.1193 29.6335 13.6542 29.2383C12.5146 28.2371 12.5146 28.2371 11.297 27.3413C11.0175 27.0703 11.0175 27.0703 10.9454 26.6997C10.9459 26.5523 10.9465 26.405 10.947 26.2532C10.9465 26.1711 10.946 26.0891 10.9455 26.0046C10.9445 25.7288 10.9478 25.4533 10.951 25.1776C10.9511 24.9769 10.9511 24.7762 10.9507 24.5755C10.9506 24.0377 10.954 23.5 10.9581 22.9622C10.9615 22.4577 10.9616 21.9532 10.962 21.4487C10.9651 19.9729 10.9733 18.4972 10.9808 17.0215C10.9929 13.7247 11.005 10.4279 11.0175 7.03125Z" fill="#F3F3F3"/>
<path d="M35.5078 40.7812C36.2234 41.2924 36.8813 41.8569 37.5425 42.4352C38.0448 42.8735 38.556 43.2961 39.0797 43.7086C39.5022 44.0473 39.9135 44.3988 40.3258 44.7497C40.7281 45.0914 41.1335 45.4286 41.543 45.7617C42.0164 46.1471 42.4841 46.5384 42.9492 46.9336C43.626 47.5085 44.3109 48.0727 45 48.6328C45.7553 49.2468 46.504 49.8674 47.2457 50.4977C47.6461 50.8374 48.0498 51.1724 48.457 51.5039C48.9304 51.8892 49.3981 52.2805 49.8633 52.6758C50.4222 53.1504 50.9858 53.6184 51.5543 54.0816C52.7441 55.0519 53.9283 56.0284 55.0978 57.0232C55.2736 57.1722 55.4496 57.321 55.6282 57.4667C55.7983 57.6057 55.9658 57.7479 56.1328 57.8906C56.1328 57.9293 56.1328 57.968 56.1328 58.0078C38.8852 58.0078 21.6375 58.0078 3.86719 58.0078C4.72667 57.1483 5.62773 56.3563 6.57211 55.5917C6.94385 55.2882 7.3102 54.9789 7.67578 54.668C8.45509 54.006 9.24624 53.3592 10.0397 52.7142C10.6899 52.1843 11.3331 51.647 11.9723 51.1039C12.4759 50.6766 12.9863 50.2582 13.4985 49.8413C13.8654 49.5397 14.2279 49.2333 14.5898 48.9258C15.1582 48.4428 15.7326 47.9684 16.311 47.4976C16.6779 47.1959 17.0404 46.8896 17.4023 46.582C18.1817 45.9201 18.9728 45.2733 19.7662 44.6283C20.4158 44.0988 21.0584 43.5621 21.6971 43.0195C22.2182 42.5774 22.7449 42.1425 23.2768 41.7133C23.5094 41.5216 23.7293 41.3228 23.9502 41.1182C24.2578 40.8984 24.2578 40.8984 24.5325 40.9158C24.9058 41.0355 25.1376 41.2116 25.4443 41.4551C27.1498 42.7279 29.1388 43.1116 31.2383 42.8357C32.8965 42.5244 34.2211 41.8417 35.5078 40.7812Z" fill="#FE5621"/>
<path d="M1.99219 22.1484C2.56802 22.5803 3.12614 23.0063 3.66943 23.4741C4.14152 23.8772 4.61599 24.2763 5.09766 24.668C5.63725 25.1072 6.16877 25.5551 6.69891 26.0056C7.09929 26.3452 7.50294 26.6803 7.91016 27.0117C8.38357 27.3971 8.85127 27.7884 9.31641 28.1836C9.87529 28.6582 10.439 29.1262 11.0074 29.5894C12.1299 30.5048 13.2483 31.425 14.3517 32.3634C14.8434 32.7809 15.3421 33.1891 15.8423 33.5962C16.275 33.952 16.7017 34.3147 17.1286 34.6774C17.632 35.1045 18.1422 35.5228 18.6543 35.9395C19.024 36.2435 19.3889 36.5527 19.7534 36.8628C20.3858 37.4003 21.0288 37.9225 21.6797 38.4375C21.8995 38.6132 22.1192 38.7889 22.3389 38.9648C22.4371 39.0434 22.5352 39.1219 22.6364 39.2029C22.7429 39.2881 22.7429 39.2881 22.8516 39.375C22.6738 39.8219 22.4128 40.0397 22.0386 40.3345C21.9224 40.4271 21.8062 40.5197 21.6866 40.6151C21.5683 40.7086 21.45 40.8021 21.3281 40.8984C21.1178 41.0688 20.9078 41.2397 20.6982 41.4111C20.5922 41.4978 20.4862 41.5846 20.3769 41.6739C19.9421 42.0332 19.5122 42.3981 19.0824 42.7633C18.5788 43.1906 18.0684 43.609 17.5562 44.0259C17.1893 44.3275 16.8268 44.6339 16.4648 44.9414C15.906 45.416 15.3423 45.884 14.7739 46.3472C13.6513 47.2626 12.5329 48.1828 11.4295 49.1212C10.9379 49.5387 10.4392 49.9469 9.93896 50.354C9.57211 50.6556 9.20956 50.962 8.84766 51.2695C8.27951 51.7523 7.70526 52.2267 7.12692 52.6973C6.75728 53.0013 6.39234 53.3105 6.02783 53.6206C5.49557 54.0733 4.95601 54.5143 4.40781 54.9477C3.96787 55.3034 3.53879 55.6719 3.11165 56.0429C2.74833 56.3547 2.40825 56.5863 1.99219 56.8359C1.99219 45.3891 1.99219 33.9422 1.99219 22.1484Z" fill="#FE9701"/>
<path d="M58.0078 22.1484C58.0078 33.5953 58.0078 45.0422 58.0078 56.8359C57.432 56.4041 56.8739 55.9781 56.3306 55.5103C55.8585 55.1072 55.384 54.7081 54.9023 54.3164C54.4262 53.929 53.9563 53.535 53.4888 53.1372C53.0472 52.7616 52.6028 52.3914 52.1484 52.0312C51.6267 51.6177 51.1187 51.1896 50.6117 50.7582C50.2095 50.4164 49.804 50.0793 49.3945 49.7461C48.8549 49.3069 48.3234 48.859 47.7933 48.4085C47.2898 47.9814 46.7796 47.5631 46.2675 47.1465C45.8979 46.8424 45.533 46.5333 45.1685 46.2231C44.7268 45.8476 44.2825 45.4773 43.8281 45.1172C43.3063 44.7037 42.7984 44.2755 42.2914 43.8441C41.8892 43.5023 41.4837 43.1652 41.0742 42.832C40.6008 42.4467 40.1331 42.0554 39.668 41.6602C38.535 40.6797 38.535 40.6797 37.3466 39.7705C37.2812 39.7173 37.2158 39.6642 37.1484 39.6094C37.1484 39.532 37.1484 39.4547 37.1484 39.375C37.3251 39.2139 37.51 39.0617 37.6978 38.9136C37.8154 38.8195 37.9331 38.7254 38.0544 38.6284C38.1171 38.5783 38.1798 38.5281 38.2445 38.4765C38.5675 38.2152 38.8831 37.9453 39.1992 37.6758C39.7674 37.1928 40.342 36.7184 40.9204 36.2476C41.2873 35.9459 41.6498 35.6396 42.0117 35.332C42.7911 34.6701 43.5822 34.0233 44.3756 33.3783C45.0258 32.8483 45.669 32.3111 46.3082 31.7679C46.8118 31.3407 47.3223 30.9223 47.8345 30.5054C48.2013 30.2037 48.5639 29.8974 48.9258 29.5898C49.4939 29.1071 50.0682 28.6327 50.6465 28.1621C51.0162 27.8581 51.3811 27.5489 51.7456 27.2388C52.2788 26.7853 52.8197 26.3438 53.3684 25.909C53.7926 25.5666 54.2072 25.2132 54.6224 24.86C55.1291 24.4295 55.642 24.0071 56.158 23.5876C56.3977 23.3913 56.6359 23.1938 56.873 22.9944C56.97 22.9129 56.97 22.9129 57.0689 22.8298C57.2518 22.676 57.4343 22.5219 57.6169 22.3677C57.8906 22.1484 57.8906 22.1484 58.0078 22.1484Z" fill="#FE9701"/>
<path d="M30.9661 10.9926C31.0995 10.9912 31.2329 10.9898 31.3703 10.9883C34.1516 10.9836 36.4754 11.9358 38.4845 13.8532C39.5394 14.9829 40.2572 16.2443 40.7806 17.6943C40.8229 17.8112 40.8652 17.9282 40.9088 18.0486C41.4866 20.0443 41.3571 22.7204 40.4803 24.6084C40.4393 24.6982 40.3983 24.7879 40.356 24.8805C39.5392 26.603 38.3602 27.9058 36.5618 28.5927C35.6669 28.891 34.4116 28.8581 33.5063 28.612C32.8722 28.2822 32.4233 27.746 31.9915 27.1865C31.9104 27.2524 31.9104 27.2524 31.8277 27.3197C30.4034 28.4372 28.7789 29.0276 26.9525 28.8271C25.7211 28.5384 24.7093 27.909 23.9646 26.8862C23.1205 25.518 22.9735 23.8093 23.2473 22.2426C23.6136 20.7409 24.4185 19.3225 25.429 18.1631C25.5163 18.0593 25.5163 18.0593 25.6053 17.9534C26.5418 16.9254 27.9285 16.0443 29.32 15.8967C30.7488 15.8322 31.9809 16.2701 33.0462 17.2256C33.2064 17.3778 33.3651 17.5319 33.515 17.6943C33.5281 17.5903 33.5281 17.5903 33.5415 17.4842C33.6223 16.9989 33.697 16.6191 34.0643 16.2734C34.4525 16.0537 34.4525 16.0537 34.8773 16.039C35.353 16.1976 35.5028 16.3175 35.7415 16.7568C35.7961 17.4714 35.6463 18.1224 35.4925 18.8149C35.4385 19.0651 35.3846 19.3154 35.3309 19.5656C35.3024 19.6984 35.2738 19.8312 35.2443 19.968C35.1192 20.5623 35.0032 21.1584 34.8865 21.7544C34.4163 24.1567 34.4163 24.1567 34.0615 25.3335C33.976 25.6957 33.9448 25.9956 33.9837 26.3662C34.5339 26.7329 35.0973 26.6522 35.7415 26.6006C36.6166 26.4252 37.2123 25.9286 37.7383 25.2273C39.0442 23.2512 39.3128 21.138 38.8983 18.8149C38.3826 16.7908 37.1569 15.1578 35.39 14.0615C34.9308 13.8338 34.4674 13.6442 33.9837 13.4756C33.8147 13.4137 33.8147 13.4137 33.6422 13.3506C31.7865 12.7892 29.2191 12.8675 27.4212 13.5927C27.3415 13.6248 27.2617 13.6569 27.1795 13.69C26.0084 14.1723 24.9929 14.762 24.0228 15.5849C23.9048 15.6839 23.7868 15.7828 23.6653 15.8848C21.6808 17.5972 20.2424 19.871 19.9212 22.499C19.8071 24.735 20.2746 26.6829 21.679 28.4756C21.7749 28.6004 21.7749 28.6004 21.8727 28.7278C23.6002 30.8456 26.4707 31.5221 29.0646 31.8145C32.6019 32.1492 36.2513 31.7904 39.0831 29.4508C39.4614 29.1141 39.793 28.7397 40.1159 28.3506C40.4148 28.005 40.5287 28.0082 41.0003 27.9702C41.3518 27.9766 41.469 27.9976 41.7767 28.1899C42.0299 28.6013 42.032 28.8185 41.9525 29.2959C41.7578 29.6454 41.5148 29.9353 41.2493 30.2334C41.1913 30.3009 41.1333 30.3684 41.0736 30.438C38.9244 32.7644 35.519 33.8389 32.442 34.0031C28.1195 34.1554 23.8057 33.4827 20.5438 30.4458C19.1648 29.0117 18.4225 27.2104 17.929 25.3115C17.9082 25.2377 17.8873 25.1639 17.8658 25.0878C17.2761 22.4108 18.2563 19.4677 19.6868 17.2256C20.1535 16.5662 20.6735 15.9534 21.2103 15.3506C21.3419 15.201 21.3419 15.201 21.4762 15.0484C23.1396 13.2801 25.3195 11.9881 27.6556 11.3662C27.8181 11.3061 27.8181 11.3061 27.9838 11.2449C28.9496 10.9536 29.9661 10.9932 30.9661 10.9926Z" fill="#030303"/>
<path d="M58.0086 22.1484C58.0086 33.5953 58.0086 45.0422 58.0086 56.8359C57.6992 56.6039 57.3899 56.3719 57.0711 56.1328C56.9581 56.077 56.8451 56.0211 56.7286 55.9636C56.3338 55.7507 56.1459 55.5745 55.8992 55.1953C55.6627 54.235 55.7379 53.2037 55.7457 52.2226C55.744 51.9148 55.7417 51.6069 55.7389 51.2991C55.7333 50.5504 55.734 49.8019 55.737 49.0533C55.7393 48.4446 55.7394 47.836 55.7379 47.2273C55.7376 47.1406 55.7374 47.0539 55.7372 46.9645C55.7368 46.7883 55.7363 46.6121 55.7359 46.4359C55.7319 44.7846 55.7352 43.1334 55.741 41.4822C55.7458 40.0665 55.744 38.651 55.7376 37.2353C55.7302 35.59 55.7269 33.9448 55.7303 32.2995C55.7306 32.1239 55.731 31.9483 55.7313 31.7727C55.7315 31.6863 55.7316 31.5999 55.7318 31.5109C55.7327 30.9033 55.7305 30.2958 55.7271 29.6882C55.7227 28.8697 55.725 28.0514 55.732 27.2329C55.7335 26.9327 55.7328 26.6324 55.7298 26.3322C55.7077 23.9431 55.7077 23.9431 56.1823 23.3839C56.5072 23.1143 56.8129 22.9243 57.1883 22.7344C57.3334 22.619 57.4758 22.5 57.6131 22.3755C57.8914 22.1484 57.8914 22.1484 58.0086 22.1484Z" fill="#F37B00"/>
<path d="M30.9596 18.1654C31.969 18.7319 32.5992 19.6405 32.9298 20.7435C32.9614 21.117 32.8949 21.4345 32.8126 21.7982C32.7852 21.9888 32.7852 21.9888 32.7572 22.1832C32.5827 23.2452 32.2209 23.9187 31.5235 24.7279C31.4368 24.8334 31.3501 24.9388 31.2608 25.0474C30.364 26.0994 29.4473 26.6831 28.0656 26.879C27.2773 26.9247 26.6588 26.706 26.0157 26.2514C25.2555 25.4858 25.1429 24.5559 25.1445 23.518C25.1665 22.6659 25.3971 21.9729 25.7813 21.2123C25.8436 21.089 25.9058 20.9658 25.9699 20.8388C26.9161 19.1027 28.849 17.2038 30.9596 18.1654Z" fill="#F2F2F2"/>
<path d="M46.9922 7.03125C47.6496 7.03125 48.307 7.03125 48.9844 7.03125C49.0251 9.61765 49.0565 12.204 49.0755 14.7906C49.0845 15.9918 49.0968 17.1927 49.117 18.3938C49.1346 19.4411 49.1459 20.4883 49.1498 21.5358C49.152 22.0901 49.1574 22.6439 49.1702 23.1981C49.2516 26.8409 49.2516 26.8409 48.5896 27.6887C48.172 28.1031 47.6085 28.5938 46.9922 28.5938C46.9922 21.4781 46.9922 14.3625 46.9922 7.03125Z" fill="#CED7DB"/>
<path d="M50.9766 15.5859C51.898 16.1125 51.898 16.1125 52.2601 16.3802C52.3413 16.4396 52.4224 16.499 52.506 16.5602C52.591 16.623 52.676 16.6858 52.7637 16.7505C53.792 17.5018 54.8396 18.2219 55.8928 18.9377C56.3667 19.2612 56.8362 19.5907 57.3047 19.9219C57.1227 20.4 56.7817 20.6692 56.3965 20.9839C56.3289 21.0401 56.2614 21.0963 56.1918 21.1542C55.649 21.6032 55.094 22.0361 54.5373 22.4676C53.929 22.9427 53.3483 23.4466 52.7678 23.955C51.2143 25.3125 51.2143 25.3125 50.9766 25.3125C50.9766 22.1027 50.9766 18.893 50.9766 15.5859Z" fill="#FDDA00"/>
<path d="M9.02344 15.5859C9.02344 18.7957 9.02344 22.0055 9.02344 25.3125C8.2331 24.7856 8.2331 24.7856 7.93808 24.5274C7.87296 24.4709 7.80785 24.4144 7.74076 24.3562C7.67339 24.2971 7.60603 24.2381 7.53662 24.1772C7.39115 24.0511 7.24558 23.9251 7.09991 23.7991C7.02858 23.7375 6.95724 23.6758 6.88374 23.6123C6.50068 23.2842 6.10808 22.968 5.71655 22.6501C5.28276 22.2943 4.85577 21.9308 4.42898 21.5666C3.93001 21.1425 3.41838 20.7368 2.8981 20.3389C2.83118 20.2786 2.76426 20.2184 2.69531 20.1562C2.69531 20.0789 2.69531 20.0016 2.69531 19.9219C2.96239 19.7213 3.23011 19.5347 3.5083 19.3506C3.68172 19.2337 3.85506 19.1166 4.02832 18.9995C4.16314 18.9086 4.16314 18.9086 4.30069 18.816C4.724 18.5284 5.14164 18.233 5.55908 17.937C5.64036 17.8795 5.72164 17.822 5.80539 17.7627C5.97175 17.645 6.13808 17.5272 6.30438 17.4094C6.75635 17.0893 7.20874 16.7697 7.66113 16.4502C7.74549 16.3905 7.82985 16.3309 7.91677 16.2694C7.99525 16.214 8.07374 16.1585 8.1546 16.1014C8.22354 16.0526 8.29248 16.0039 8.36351 15.9537C8.89061 15.5859 8.89061 15.5859 9.02344 15.5859Z" fill="#FBD800"/>
<path d="M35.5078 40.7812C36.2234 41.2924 36.8813 41.8569 37.5425 42.4352C38.0448 42.8735 38.556 43.2961 39.0797 43.7086C39.5022 44.0473 39.9135 44.3988 40.3258 44.7497C40.7281 45.0914 41.1335 45.4286 41.543 45.7617C42.0164 46.1471 42.4841 46.5384 42.9492 46.9336C43.626 47.5085 44.3109 48.0727 45 48.6328C45.7553 49.2468 46.504 49.8674 47.2457 50.4977C47.6461 50.8374 48.0498 51.1724 48.457 51.5039C48.9304 51.8892 49.3981 52.2805 49.8633 52.6758C50.4222 53.1504 50.9858 53.6184 51.5543 54.0816C52.7441 55.0519 53.9283 56.0284 55.0978 57.0232C55.2736 57.1722 55.4496 57.321 55.6282 57.4667C55.7983 57.6057 55.9658 57.7479 56.1328 57.8906C56.1328 57.9293 56.1328 57.968 56.1328 58.0078C55.5741 58.1295 55.0222 58.1868 54.5139 57.8791C54.0423 57.5158 53.6178 57.0998 53.1886 56.6883C52.8589 56.3825 52.5061 56.1117 52.1484 55.8398C51.479 55.3237 50.8389 54.7793 50.203 54.2226C49.6784 53.7637 49.1443 53.3187 48.6026 52.8799C48.2379 52.5817 47.8785 52.2778 47.5195 51.9727C46.9607 51.498 46.397 51.0301 45.8286 50.5669C44.706 49.6514 43.5876 48.7313 42.4842 47.7929C41.9926 47.3754 41.4939 46.9672 40.9937 46.5601C40.5609 46.2043 40.1342 45.8416 39.7073 45.4788C39.2039 45.0517 38.6937 44.6335 38.1816 44.2168C37.7466 43.859 37.3178 43.4943 36.8894 43.1286C36.3988 42.7114 35.8953 42.3133 35.3819 41.9243C35.1497 41.7128 35.0404 41.5383 34.9219 41.25C35.1152 41.0953 35.3086 40.9406 35.5078 40.7812Z" fill="#D44214"/>
<path d="M33.6328 3.16334C33.7152 3.22112 33.7976 3.2789 33.8825 3.33843C34.3533 3.67016 34.8219 4.00501 35.2876 4.34391C35.3667 4.40142 35.4458 4.45893 35.5272 4.51818C35.7422 4.68678 35.7422 4.68678 36.0938 5.03834C32.0719 5.03834 28.05 5.03834 23.9062 5.03834C24.2183 4.72631 24.466 4.48783 24.8154 4.24091C24.8978 4.18252 24.9802 4.12412 25.0651 4.06396C25.1516 4.00362 25.2381 3.94328 25.3271 3.88111C25.4163 3.81873 25.5054 3.75635 25.5972 3.69208C28.1568 1.91293 30.8793 1.2318 33.6328 3.16334Z" fill="#EFB707"/>
<path d="M50.9766 15.5859C51.898 16.1125 51.898 16.1125 52.2601 16.3802C52.3413 16.4396 52.4224 16.499 52.506 16.5602C52.591 16.623 52.676 16.6858 52.7637 16.7505C53.792 17.5018 54.8396 18.2219 55.8928 18.9377C56.3667 19.2612 56.8362 19.5907 57.3047 19.9219C57.1265 20.3766 56.8523 20.5944 56.4697 20.8887C56.3631 20.9715 56.2564 21.0542 56.1465 21.1395C56.0647 21.2018 55.9828 21.264 55.8984 21.3281C55.8425 21.2859 55.7865 21.2436 55.7289 21.2001C55.1409 20.7573 54.5474 20.3228 53.9502 19.8926C53.8262 19.8031 53.8262 19.8031 53.6998 19.7118C52.8722 19.1148 52.0413 18.5228 51.2109 17.9297C51.1723 20.366 51.1336 22.8023 51.0938 25.3125C51.0551 25.3125 51.0164 25.3125 50.9766 25.3125C50.9766 22.1027 50.9766 18.893 50.9766 15.5859Z" fill="#F6BD07"/>
<path d="M28.0371 3.0239C28.1318 3.02246 28.2265 3.02103 28.3241 3.01955C29.975 3.01559 31.5941 3.67605 32.8125 4.80368C32.8125 4.84235 32.8125 4.88103 32.8125 4.92087C29.9508 4.92087 27.0891 4.92087 24.1406 4.92087C24.603 4.4585 25.0233 4.09339 25.5469 3.7197C25.6176 3.66743 25.6883 3.61516 25.7611 3.56131C26.516 3.01974 27.1423 3.0246 28.0371 3.0239Z" fill="#FDDA00"/>
<path d="M24.2578 40.8984C24.886 40.9377 25.3234 41.3188 25.7812 41.7188C25.7812 41.7574 25.7812 41.7961 25.7812 41.8359C25.1178 41.7777 24.6238 41.6549 24.0234 41.3672C24.1008 41.2125 24.1781 41.0578 24.2578 40.8984Z" fill="#CF4014"/>
</g>
<defs>
<clipPath id="clip0_3014_369">
<rect width="60" height="60" fill="white"/>
</clipPath>
</defs>
</svg>
