<svg width="112" height="112" viewBox="0 0 112 112" fill="none" xmlns="http://www.w3.org/2000/svg">
<g clip-path="url(#clip0_3014_342)">
<path d="M-0.000123977 -0.000507355C2.51938 -0.0207804 5.03887 -0.0363284 7.55844 -0.045843C8.72838 -0.0504095 9.89826 -0.0566039 11.0682 -0.0665169C12.1972 -0.0760235 13.3261 -0.0812562 14.4552 -0.0835249C14.8859 -0.0851418 15.3167 -0.0882991 15.7475 -0.0930212C16.3508 -0.0993724 16.9539 -0.100248 17.5573 -0.0998421C17.7354 -0.102988 17.9135 -0.106134 18.097 -0.109375C19.1973 -0.10137 19.7536 0.0583697 20.5624 0.874493C20.8511 0.585743 21.1399 0.296993 21.4374 -0.000507355C22.1094 0.294772 22.5126 0.613823 22.996 1.1616C24.5018 2.70642 26.5902 3.29635 28.6057 3.91307C28.8478 3.98877 29.09 4.06447 29.3394 4.14246C29.8536 4.30294 30.3681 4.46257 30.8829 4.62139C31.6849 4.86892 32.4861 5.11892 33.2872 5.3695C35.491 6.05776 37.6962 6.74104 39.9089 7.40025C42.6395 8.21571 45.2273 9.0404 47.6874 10.4995C47.9183 10.636 48.1493 10.7725 48.3872 10.9131C49.8473 11.8329 51.097 12.9116 52.3435 14.0943C53.032 14.7452 53.7437 15.3586 54.4686 15.9682C54.3245 16.641 54.132 17.0789 53.8124 17.7182C54.3899 18.2236 54.9674 18.7289 55.5624 19.2495C56.2121 18.8164 56.2121 18.8164 56.8749 18.3745C57.7071 19.1357 58.5361 19.9 59.3614 20.6686C59.6583 20.9436 59.9581 21.2155 60.2587 21.4866C61.5939 22.7345 62.7331 24.4108 62.8094 26.29C62.8097 26.5761 62.8099 26.8622 62.8102 27.157C62.8105 27.3137 62.8108 27.4704 62.8111 27.6319C62.8115 28.1463 62.8101 28.6608 62.8085 29.1753C62.8083 29.351 62.8081 29.5268 62.8079 29.7079C62.8048 32.112 62.7616 34.511 62.6717 36.9136C62.6634 37.1733 62.6551 37.4331 62.6465 37.7008C62.6107 38.7709 62.5676 39.8321 62.4556 40.8972C62.3467 42.114 62.2992 42.9722 63.0785 43.9785C63.6307 44.5163 64.23 44.9839 64.8442 45.4483C68.2535 48.1297 70.1466 52.8769 70.7817 57.042C70.8999 58.0442 70.8992 59.0385 70.8885 60.0464C70.8871 60.3162 70.8871 60.3162 70.8856 60.5915C70.883 61.0296 70.8791 61.4677 70.8749 61.9057C70.2489 62.2187 69.7956 62.037 69.1249 61.9057C69.1116 62.0352 69.0984 62.1646 69.0847 62.298C68.9892 63.1985 68.8872 64.0835 68.6874 64.9682C69.1205 65.0404 69.5536 65.1126 69.9999 65.187C69.8964 66.5148 69.6066 67.4861 68.9882 68.6596C68.9095 68.8121 68.8308 68.9645 68.7497 69.1216C66.1299 74.0983 61.9241 77.7193 56.5703 79.4321C51.2388 81.0426 45.6356 80.4472 40.7139 77.8813C36.1341 75.3565 32.7093 71.1585 31.0692 66.1996C30.3473 63.6591 30.085 61.2635 30.1874 58.6245C29.901 58.5387 29.901 58.5387 29.6089 58.4511C28.8771 58.1878 28.2897 57.8707 27.6299 57.4615C27.3903 57.3142 27.1507 57.1669 26.9038 57.0151C26.7774 56.9366 26.6509 56.8581 26.5207 56.7772C25.8406 56.355 25.1578 55.9372 24.4751 55.5193C24.3337 55.4326 24.1923 55.3459 24.0466 55.2566C22.649 54.4021 21.2363 53.5742 19.8206 52.75C13.2857 48.9439 7.55093 45.3478 5.46863 37.6245C5.18096 36.3685 4.98479 35.096 4.78503 33.8237C4.73259 33.5012 4.6799 33.1788 4.62695 32.8564C4.52205 32.2165 4.41801 31.5765 4.31447 30.9363C4.15108 29.9322 3.98201 28.9292 3.80835 27.9269C3.78211 27.7723 3.75588 27.6177 3.72885 27.4585C3.2786 24.8857 1.83965 23.6101 -0.000123977 21.8745C0.26321 21.329 0.536751 20.8504 0.874876 20.3432C0.73255 20.2378 0.590224 20.1323 0.443584 20.0236C-0.178484 19.245 -0.116231 18.5356 -0.0994587 17.5817C-0.0995865 17.3917 -0.0997142 17.2017 -0.0998459 17.0059C-0.0992368 16.3785 -0.0924319 15.7514 -0.0855732 15.124C-0.0839411 14.6888 -0.0826956 14.2535 -0.0818214 13.8183C-0.078482 12.6732 -0.0698872 11.5282 -0.0602055 10.3832C-0.0512517 9.21457 -0.0472575 8.04594 -0.0428486 6.8773C-0.0334668 4.58465 -0.0185342 2.29208 -0.000123977 -0.000507355ZM37.2164 28.0687C37.0768 28.1242 36.9371 28.1796 36.7932 28.2368C36.4988 28.3546 36.2051 28.474 35.9119 28.5949C35.4691 28.777 35.0242 28.9527 34.5786 29.1278C32.0265 30.1496 30.0568 31.3231 28.7928 33.8511C28.4189 35.7953 28.5005 37.6466 29.5311 39.3745C30.5192 40.829 31.863 41.6178 33.3593 42.4917C33.5823 42.6253 33.8053 42.759 34.0352 42.8967C35.0684 43.5121 36.0998 44.1105 37.1874 44.6245C37.3337 44.5027 37.4801 44.3809 37.6309 44.2554C40.7052 41.8123 44.0738 40.554 47.9061 39.812C47.8736 36.027 47.8736 36.027 46.7064 32.5317C46.2571 32.1246 45.7962 31.8201 45.2811 31.4995C45.0403 31.3278 44.8009 31.1542 44.5625 30.9791C44.0388 30.5952 43.5116 30.2176 42.9791 29.8461C42.5075 29.5168 42.0435 29.1822 41.5812 28.8395C41.3945 28.7021 41.2078 28.5648 41.0155 28.4233C40.8553 28.3035 40.6952 28.1836 40.5301 28.0602C39.3344 27.3906 38.4469 27.5765 37.2164 28.0687Z" fill="#FEDDCE"/>
<path d="M86.1875 73.9375C86.3319 74.4428 86.4762 74.9481 86.625 75.4688C87.5634 75.4688 88.5019 75.4688 89.4688 75.4688C89.4688 74.9634 89.4688 74.4581 89.4688 73.9375C94.0388 74.0636 99.0985 74.9919 103.159 77.1786C106.13 78.7618 108.137 78.1837 112 78.3125C112 85.5312 112 92.75 112 100.188C108.535 100.26 105.07 100.332 101.5 100.406C99.2167 100.931 97.1596 101.478 94.9922 102.279C94.426 102.477 93.8582 102.67 93.2901 102.862C92.3886 103.169 91.4876 103.476 90.5889 103.791C88.1949 104.629 85.7856 105.411 83.366 106.171C83.1818 106.229 82.9976 106.286 82.8078 106.346C81.8819 106.637 80.9557 106.926 80.0295 107.216C78.8041 107.599 77.58 107.986 76.3559 108.373C75.5368 108.632 74.7175 108.891 73.8977 109.148C73.581 109.248 73.2644 109.347 72.9478 109.446C72.7164 109.519 72.7164 109.519 72.4803 109.593C71.5527 109.885 70.6269 110.182 69.7024 110.483C69.1158 110.674 68.5286 110.862 67.9412 111.05C67.5402 111.18 67.1403 111.312 66.7405 111.445C65.2357 111.925 64.1338 112.219 62.6463 111.507C62.4678 111.392 62.2893 111.276 62.1053 111.157C61.9005 111.027 61.6956 110.897 61.4846 110.762C61.2673 110.62 61.05 110.478 60.8262 110.332C60.3548 110.031 59.8834 109.729 59.412 109.428C59.0521 109.196 59.0521 109.196 58.6849 108.96C57.5777 108.249 56.4606 107.555 55.3438 106.859C54.9062 106.586 54.4687 106.313 54.0312 106.039C53.8147 105.904 53.5981 105.768 53.375 105.629C49.6562 103.305 45.9375 100.98 42.2188 98.6562C42.3203 98.4058 42.3203 98.4058 42.4238 98.1504C42.586 97.7401 42.7355 97.3248 42.875 96.9062C42.7216 96.8476 42.5682 96.7889 42.4102 96.7285C41.7452 96.4538 41.1091 96.1401 40.4688 95.8125C40.1078 96.1734 39.7469 96.5344 39.375 96.9062C39.2457 96.8252 39.1165 96.7441 38.9833 96.6606C36.3997 95.0409 33.8118 93.4291 31.2129 91.834C29.3915 90.7155 27.5732 89.5928 25.771 88.4436C24.8874 87.8803 23.9991 87.3272 23.1021 86.7856C22.9083 86.6673 22.7146 86.5489 22.515 86.427C22.1418 86.1993 21.7672 85.974 21.391 85.7515C21.225 85.6495 21.0591 85.5475 20.8881 85.4424C20.7404 85.3537 20.5927 85.265 20.4406 85.1736C20.3364 85.0751 20.2323 84.9765 20.125 84.875C20.125 83.8353 20.4695 83.3999 21.082 82.6191C21.181 82.4927 21.2801 82.3662 21.3821 82.2359C23.0537 80.1769 25.4066 78.8743 28 78.3125C34.2211 77.7569 38.759 81.0193 43.9734 83.9899C46.6413 85.5038 49.3533 86.9369 52.0625 88.375C52.1488 88.2257 52.2352 88.0763 52.3241 87.9224C52.4394 87.7261 52.5547 87.5297 52.6735 87.3274C52.7869 87.1329 52.9003 86.9385 53.0171 86.7381C53.9213 85.347 55.2871 84.4487 56.875 84C57.8594 83.9202 58.8328 83.939 59.8183 83.974C60.3097 83.9901 60.8007 83.9982 61.2924 84.0039C62.6886 84.0204 64.0842 84.0413 65.4796 84.0907C69.1159 84.4014 69.1159 84.4014 72.4671 83.4477C73.1929 82.636 73.5 81.7574 73.7788 80.721C74.0528 79.9619 74.5747 79.4199 75.127 78.8457C75.2285 78.7398 75.3301 78.6338 75.4347 78.5246C78.1997 75.7408 82.2322 73.9375 86.1875 73.9375Z" fill="#FDDCCD"/>
<path d="M56.6563 18.375C59.3452 20.2035 61.7387 22.4661 62.7813 25.5938C62.8024 26.1147 62.8099 26.6361 62.8103 27.1575C62.8106 27.3142 62.8109 27.4709 62.8112 27.6324C62.8116 28.1469 62.8102 28.6613 62.8086 29.1758C62.8084 29.3515 62.8082 29.5273 62.808 29.7084C62.8049 32.1125 62.7618 34.5115 62.6719 36.9141C62.6635 37.1738 62.6552 37.4336 62.6466 37.7013C62.6109 38.7714 62.5678 39.8326 62.4557 40.8977C62.3469 42.1145 62.2994 42.9727 63.0786 43.979C63.6308 44.5168 64.2301 44.9844 64.8443 45.4488C68.2536 48.1302 70.1467 52.8774 70.7819 57.0425C70.9001 58.0447 70.8993 59.039 70.8887 60.0469C70.8877 60.2268 70.8867 60.4067 70.8857 60.592C70.8831 61.0301 70.8792 61.4682 70.875 61.9062C70.249 62.2193 69.7957 62.0375 69.125 61.9062C69.1118 62.0357 69.0985 62.1651 69.0848 62.2985C68.9894 63.199 68.8873 64.084 68.6875 64.9688C69.1206 65.0409 69.5538 65.1131 70 65.1875C69.8965 66.5153 69.6067 67.4866 68.9883 68.6602C68.9096 68.8126 68.8309 68.965 68.7498 69.1221C66.13 74.0988 61.9242 77.7198 56.5704 79.4326C51.239 81.0431 45.6357 80.4477 40.714 77.8818C36.1342 75.357 32.7094 71.159 31.0693 66.2001C30.3474 63.6596 30.0851 61.264 30.1875 58.625C29.9012 58.5392 29.9012 58.5392 29.6091 58.4516C28.8772 58.1883 28.2899 57.8713 27.63 57.462C27.3904 57.3147 27.1508 57.1674 26.9039 57.0156C26.7143 56.8978 26.7143 56.8978 26.5208 56.7777C25.8407 56.3555 25.1579 55.9377 24.4752 55.5198C24.3338 55.4331 24.1924 55.3464 24.0467 55.2571C22.6491 54.4026 21.2364 53.5747 19.8207 52.7505C13.2858 48.9444 7.55105 45.3483 5.46875 37.625C5.18109 36.369 4.98492 35.0965 4.78516 33.8242C4.73272 33.5017 4.68002 33.1793 4.62708 32.8569C4.52218 32.217 4.41813 31.577 4.3146 30.9368C4.1512 29.9327 3.98213 28.9297 3.80847 27.9274C3.78224 27.7728 3.756 27.6182 3.72897 27.459C3.27873 24.8862 1.83977 23.6106 0 21.875C0.31671 21.1216 0.716832 20.7022 1.33984 20.1797C1.49832 20.0455 1.65679 19.9112 1.82007 19.7729C2.00195 19.6224 2.00195 19.6224 2.1875 19.4688C2.97668 19.7539 3.28107 20.2043 3.76212 20.8673C4.51366 21.8309 5.18209 22.4305 6.40912 22.6751C8.21004 22.8467 10.0065 22.8143 11.8125 22.75C11.8125 23.905 11.8125 25.06 11.8125 26.25C10.2966 26.25 8.78063 26.25 7.21875 26.25C7.32703 26.6831 7.32703 26.6831 7.4375 27.125C7.4375 27.8469 7.4375 28.5687 7.4375 29.3125C9.60313 29.3125 11.7688 29.3125 14 29.3125C14 30.3953 14 31.4781 14 32.5938C12.0509 32.5938 10.1019 32.5938 8.09375 32.5938C8.23813 33.0269 8.3825 33.46 8.53125 33.9062C8.63371 34.4565 8.72893 35.0081 8.81836 35.5605C9.28877 38.2104 10.242 40.4631 11.8125 42.6562C11.9597 42.8644 11.9597 42.8644 12.1099 43.0767C13.6756 45.0845 16.1355 46.4423 18.3094 47.6817C19.0012 48.0763 19.6898 48.4765 20.3788 48.8761C20.5202 48.958 20.6616 49.0398 20.8073 49.1241C22.5866 50.1565 24.3401 51.2312 26.0936 52.3065C27.3495 53.0744 28.6116 53.8296 29.8876 54.5636C30.0171 54.6385 30.1466 54.7135 30.2801 54.7907C31.6704 55.5847 32.8589 55.817 34.4266 55.436C35.603 54.9981 36.3223 54.3754 36.9602 53.2938C37.4437 52.0705 37.4676 50.794 36.9773 49.5682C36.193 48.227 35.0367 47.4637 33.7183 46.6792C33.4741 46.532 33.2299 46.3848 32.9783 46.2332C32.5963 46.0039 32.2141 45.7753 31.8309 45.5481C28.5469 43.5963 26.3609 41.6905 25.3084 37.9224C24.7703 35.3228 25.2243 32.9272 26.6328 30.6797C28.1558 28.5912 29.7942 27.4961 32.1563 26.4688C32.3636 26.3765 32.5709 26.2843 32.7845 26.1892C33.4883 25.879 34.1955 25.578 34.9043 25.2793C35.1292 25.1809 35.354 25.0825 35.5857 24.9812C37.3816 24.2466 39.1663 23.8523 41.061 24.4763C42.3906 25.1024 43.5678 25.9793 44.7344 26.8652C44.915 27.0009 45.0957 27.1366 45.2818 27.2764C45.6359 27.5431 45.9893 27.8107 46.342 28.0794C46.7331 28.3771 47.1263 28.6716 47.5209 28.9647C49.5869 30.5417 50.4484 31.8212 50.8397 34.4292C51.0793 36.2182 51.2497 38.0147 51.4063 39.8125C51.5935 39.808 51.5935 39.808 51.7845 39.8034C54.4018 39.7671 56.6955 40.4871 59.0625 41.5625C59.0612 41.3509 59.06 41.1394 59.0587 40.9214C59.0505 38.9371 59.0863 36.9583 59.1563 34.9752C59.1885 34.0371 59.2146 33.0989 59.2417 32.1606C59.2618 31.4718 59.2835 30.7832 59.3092 30.0946C59.3325 29.4648 59.3489 28.8352 59.3633 28.2051C59.3758 27.9404 59.3758 27.9404 59.3885 27.6704C59.4122 26.0468 58.6957 25.0759 57.6483 23.889C57.3806 23.6298 57.3806 23.6298 57.1074 23.3652C56.9188 23.1822 56.7301 22.9992 56.5358 22.8107C55.9368 22.2537 55.3293 21.7255 54.6875 21.2188C54.811 20.3638 55.2172 19.9283 55.7949 19.3047C55.9554 19.1299 56.1158 18.955 56.2811 18.7749C56.4049 18.6429 56.5287 18.511 56.6563 18.375ZM37.2166 28.0692C37.0769 28.1247 36.9372 28.1801 36.7934 28.2373C36.499 28.3551 36.2052 28.4745 35.9121 28.5954C35.4693 28.7775 35.0243 28.9532 34.5787 29.1284C32.0266 30.1501 30.0569 31.3237 28.793 33.8516C28.4191 35.7959 28.5006 37.6471 29.5313 39.375C30.5193 40.8295 31.8631 41.6183 33.3594 42.4922C33.5824 42.6258 33.8055 42.7595 34.0353 42.8972C35.0685 43.5126 36.0999 44.111 37.1875 44.625C37.3339 44.5032 37.4802 44.3814 37.631 44.2559C40.7054 41.8129 44.074 40.5545 47.9063 39.8125C47.8738 36.0275 47.8738 36.0275 46.7065 32.5322C46.2572 32.1251 45.7963 31.8206 45.2813 31.5C45.0404 31.3283 44.801 31.1547 44.5626 30.9796C44.039 30.5957 43.5117 30.2182 42.9793 29.8466C42.5076 29.5173 42.0436 29.1827 41.5813 28.84C41.3946 28.7026 41.208 28.5653 41.0156 28.4238C40.8555 28.304 40.6953 28.1841 40.5303 28.0607C39.3345 27.3911 38.4471 27.577 37.2166 28.0692Z" fill="#020201"/>
<path d="M60.589 46.1691C61.1212 46.5844 61.625 47.0156 62.1237 47.4705C62.2568 47.5836 62.3898 47.6967 62.527 47.8132C64.4288 49.5378 65.8086 52.0968 66.7174 54.4705C66.7871 54.6403 66.8567 54.81 66.9285 54.9849C67.6624 57.1158 67.431 59.467 67.3737 61.6893C67.9512 61.6893 68.5287 61.6893 69.1237 61.6893C68.9129 63.9988 68.9129 63.9988 68.6862 64.9705C68.003 64.8642 67.3746 64.7521 66.7174 64.533C66.6971 64.7149 66.6768 64.8968 66.6559 65.0842C65.8896 68.7949 62.9468 72.1405 59.8883 74.193C56.0115 76.5881 51.3072 77.4767 46.7992 76.6489C42.4167 75.5001 38.4254 72.8006 36.0448 68.9121C34.5194 66.2987 33.6455 63.6617 33.6725 60.6092C33.674 60.3848 33.674 60.3848 33.6755 60.1559C33.678 59.792 33.6819 59.4281 33.6862 59.0643C33.8528 59.0163 34.0195 58.9684 34.1912 58.919C36.8134 58.1137 38.5033 57.0437 39.8667 54.644C40.699 52.8952 40.8158 50.8413 40.2692 48.9847C40.1188 48.6175 39.9583 48.2541 39.7838 47.8978C39.5924 47.4705 39.5924 47.4705 39.5924 46.8143C40.0728 46.4222 40.5376 46.0842 41.0553 45.7479C41.2035 45.6506 41.3517 45.5533 41.5044 45.4531C47.3612 41.7226 54.9615 42.3021 60.589 46.1691Z" fill="#F8ED91"/>
<path d="M86.1875 73.9375C86.516 74.5944 86.4265 75.2042 86.4199 75.9336C86.4179 76.2139 86.416 76.4942 86.4139 76.783C86.4101 77.107 86.4101 77.107 86.4062 77.4375C86.0882 77.4781 86.0882 77.4781 85.7637 77.5195C82.6936 77.969 79.4682 79.1222 77.4375 81.5938C76.4328 83.0346 75.6215 84.5941 74.7819 86.1338C74.6058 86.4568 74.6058 86.4568 74.4261 86.7862C74.3371 86.9496 74.248 87.1129 74.1562 87.2813C73.853 87.2824 73.853 87.2824 73.5437 87.2837C71.6352 87.292 69.7267 87.3044 67.8183 87.3215C66.8372 87.3301 65.8561 87.3372 64.875 87.3405C63.9275 87.3439 62.9801 87.3514 62.0326 87.3618C61.6719 87.3651 61.3111 87.3668 60.9503 87.367C60.4433 87.3675 59.9367 87.3734 59.4299 87.3806C58.9978 87.3835 58.9978 87.3835 58.557 87.3865C57.4064 87.5483 56.5675 87.97 55.7949 88.8672C55.3717 89.9625 55.4293 90.8543 55.8223 91.9297C56.2788 92.6224 56.6051 92.9657 57.3125 93.4063C58.0164 93.5356 58.7105 93.5296 59.4246 93.5257C59.7417 93.5291 59.7417 93.5291 60.0652 93.5325C60.7624 93.539 61.4594 93.5393 62.1566 93.5396C62.6406 93.5428 63.1246 93.5465 63.6085 93.5505C64.8812 93.5601 66.1539 93.5644 67.4266 93.5677C68.7258 93.572 70.0249 93.5812 71.324 93.59C73.8723 93.6064 76.4205 93.6174 78.9687 93.625C78.9687 94.7078 78.9687 95.7906 78.9687 96.9063C76.1259 96.9316 73.283 96.9511 70.4401 96.9629C69.1198 96.9686 67.7997 96.9763 66.4795 96.9888C65.2044 97.0007 63.9293 97.0072 62.6542 97.01C62.1688 97.012 61.6833 97.016 61.198 97.0219C60.5157 97.0299 59.8338 97.0309 59.1515 97.0304C58.9527 97.0344 58.754 97.0383 58.5493 97.0423C56.7835 97.0283 55.3896 96.423 54.0586 95.2656C53.9052 95.0852 53.7518 94.9047 53.5937 94.7188C53.4313 94.5383 53.2689 94.3578 53.1016 94.1719C52.7187 93.625 52.7187 93.625 52.623 93.0371C52.5824 92.8702 52.5418 92.7032 52.5 92.5313C52.1404 92.3736 51.7743 92.2306 51.4062 92.0938C50.9157 91.8467 50.4297 91.5957 49.9451 91.3375C49.8049 91.2633 49.6648 91.1892 49.5204 91.1127C49.064 90.8708 48.6082 90.6278 48.1523 90.3848C47.9956 90.3014 47.8388 90.218 47.6772 90.1321C45.7067 89.0835 43.7476 88.0182 41.8086 86.9121C39.9983 85.8808 38.1818 84.8622 36.3535 83.8633C36.1199 83.7337 35.8863 83.604 35.6457 83.4705C33.243 82.1661 30.79 81.2402 28.035 81.9791C26.9826 82.3795 26.0612 82.8957 25.1562 83.5625C25.6953 84.1576 26.29 84.5406 26.9746 84.9562C27.2077 85.0985 27.4408 85.2407 27.681 85.3873C27.8659 85.4994 27.8659 85.4994 28.0546 85.6137C28.7047 86.0076 29.3528 86.4045 30.0012 86.801C30.1308 86.8801 30.2603 86.9592 30.3938 87.0408C31.6338 87.7986 32.8633 88.5723 34.089 89.3529C35.0777 89.9816 36.0719 90.6002 37.0713 91.2119C37.3128 91.3605 37.5543 91.5091 37.8031 91.6622C38.2784 91.9544 38.7547 92.2452 39.232 92.5343C39.554 92.7329 39.554 92.7329 39.8826 92.9354C40.0749 93.0527 40.2673 93.1701 40.4654 93.2909C40.9062 93.625 40.9062 93.625 41.125 94.2813C40.9302 94.8085 40.9302 94.8085 40.6328 95.3887C40.489 95.6767 40.489 95.6767 40.3423 95.9706C40.0312 96.4688 40.0312 96.4688 39.375 96.9063C39.2457 96.8252 39.1165 96.7441 38.9833 96.6606C36.3997 95.0409 33.8118 93.4291 31.2129 91.834C29.3915 90.7155 27.5732 89.5928 25.7709 88.4436C24.8874 87.8803 23.9991 87.3272 23.1021 86.7856C22.9083 86.6673 22.7146 86.5489 22.515 86.427C22.1418 86.1993 21.7672 85.974 21.391 85.7515C21.225 85.6495 21.0591 85.5475 20.8881 85.4424C20.7404 85.3537 20.5927 85.265 20.4406 85.1736C20.3364 85.0751 20.2323 84.9765 20.125 84.875C20.125 83.8353 20.4695 83.3999 21.082 82.6191C21.181 82.4927 21.2801 82.3662 21.3821 82.2359C23.0537 80.1769 25.4066 78.8743 28 78.3125C34.2211 77.7569 38.759 81.0194 43.9734 83.9899C46.6413 85.5038 49.3533 86.9369 52.0625 88.375C52.1488 88.2257 52.2352 88.0763 52.3241 87.9224C52.4394 87.7261 52.5547 87.5297 52.6735 87.3274C52.7869 87.1329 52.9003 86.9385 53.0171 86.7381C53.9213 85.347 55.2871 84.4487 56.875 84C57.8594 83.9202 58.8328 83.939 59.8183 83.974C60.3097 83.9901 60.8007 83.9982 61.2924 84.0039C62.6886 84.0204 64.0842 84.0413 65.4796 84.0907C69.1159 84.4014 69.1159 84.4014 72.4671 83.4477C73.1929 82.636 73.5 81.7574 73.7788 80.721C74.0527 79.9619 74.5747 79.4199 75.1269 78.8457C75.2285 78.7398 75.3301 78.6338 75.4347 78.5246C78.1997 75.7408 82.2322 73.9375 86.1875 73.9375Z" fill="#020101"/>
<path d="M102.365 91.8496C102.579 91.8497 102.794 91.8497 103.015 91.8497C103.245 91.8508 103.475 91.8519 103.711 91.8531C103.948 91.8534 104.185 91.8537 104.429 91.854C105.184 91.8553 105.94 91.858 106.695 91.8608C107.208 91.8619 107.72 91.8629 108.233 91.8638C109.488 91.866 110.744 91.8703 112 91.8745C112 93.5348 112 95.1951 112 96.9057C111.007 96.8457 111.007 96.8457 109.995 96.7844C103.668 96.5262 98.3778 97.4443 92.4219 99.4487C92.2607 99.5029 92.0994 99.5572 91.9333 99.6131C89.9782 100.274 88.0337 100.963 86.0915 101.66C84.9592 102.063 83.8212 102.447 82.6807 102.826C82.5034 102.885 82.3262 102.944 82.1436 103.005C80.7937 103.452 79.433 103.855 78.0664 104.248C76.685 104.651 75.3116 105.079 73.9375 105.505C73.667 105.589 73.3966 105.672 73.1179 105.758C71.7691 106.177 70.4245 106.605 69.0857 107.055C68.8387 107.137 68.5917 107.219 68.3372 107.303C67.8719 107.459 67.4076 107.617 66.9443 107.778C65.7671 108.169 64.8767 108.453 63.6562 108.062C62.8855 107.653 62.166 107.18 61.4414 106.695C61.0104 106.413 60.5791 106.132 60.1477 105.851C59.9299 105.708 59.7122 105.565 59.4878 105.418C58.5177 104.788 57.5329 104.182 56.5469 103.578C54.1609 102.108 51.7979 100.603 49.4375 99.0932C50.2241 98.831 50.4408 98.9377 51.2109 99.2007C51.4389 99.2774 51.6669 99.3541 51.9018 99.4332C52.1485 99.5184 52.3953 99.6036 52.6495 99.6914C52.9046 99.7775 53.1596 99.8637 53.4224 99.9524C54.1026 100.182 54.7823 100.414 55.4616 100.646C56.4107 100.971 57.3603 101.294 58.3104 101.615C58.8156 101.786 59.3203 101.958 59.8247 102.132C60.5162 102.366 61.2106 102.59 61.9062 102.812C62.1214 102.889 62.3365 102.966 62.5581 103.045C64.4341 103.64 65.754 103.277 67.5792 102.644C67.8691 102.55 68.1591 102.455 68.4493 102.362C69.2117 102.114 69.9711 101.858 70.7302 101.6C71.4801 101.347 72.2322 101.1 72.9843 100.853C73.8762 100.56 74.7678 100.267 75.6587 99.9707C77.5786 99.3325 79.5007 98.7017 81.4304 98.0937C81.8366 97.9653 82.2421 97.8351 82.6477 97.7049C82.8929 97.6282 83.1381 97.5515 83.3908 97.4725C83.7111 97.3712 83.7111 97.3712 84.0379 97.2679C84.7007 97.1142 85.2908 97.0989 85.9688 97.1245C85.9688 96.9801 85.9688 96.8357 85.9688 96.687C87.836 96.0915 89.7032 95.4963 91.5707 94.9015C92.4378 94.6252 93.3049 94.3489 94.1719 94.0724C95.0086 93.8055 95.8455 93.5389 96.6824 93.2724C97.0016 93.1708 97.3208 93.069 97.64 92.9671C98.0871 92.8244 98.5343 92.682 98.9816 92.5397C99.2361 92.4586 99.4907 92.3775 99.7529 92.2939C100.663 92.0142 101.409 91.8472 102.365 91.8496Z" fill="#FDCBBC"/>
<path d="M43.9688 95.8125C45.0703 96.1937 46.026 96.7971 47.0176 97.3984C47.2099 97.5144 47.4021 97.6304 47.6002 97.7498C49.2019 98.721 50.7823 99.7239 52.3592 100.734C54.1783 101.898 56.0147 103.033 57.8589 104.156C58.9726 104.836 60.0767 105.523 61.1603 106.25C61.3476 106.374 61.5349 106.498 61.7279 106.626C62.0718 106.856 62.4133 107.089 62.7515 107.326C62.9803 107.478 62.9803 107.478 63.2136 107.633C63.3424 107.722 63.4711 107.81 63.6038 107.902C65.0086 108.362 66.6782 107.623 68.0201 107.183C68.2246 107.118 68.429 107.052 68.6396 106.984C69.2895 106.776 69.9387 106.565 70.5879 106.354C71.0195 106.214 71.4512 106.075 71.8829 105.936C72.5123 105.733 73.1417 105.531 73.7709 105.327C75.04 104.918 76.3113 104.516 77.5872 104.128C80.0208 103.384 82.4466 102.613 84.8709 101.839C85.3499 101.686 85.829 101.533 86.3081 101.38C87.3252 101.056 88.3423 100.731 89.3594 100.406C90.5409 100.029 91.7225 99.6518 92.9041 99.2748C93.5166 99.0793 94.1291 98.8837 94.7416 98.6879C95.0315 98.5955 95.3216 98.5037 95.6119 98.4123C96.3457 98.1813 97.0756 97.943 97.8024 97.6908C99.6506 97.0606 101.319 96.7523 103.284 96.7994C103.537 96.801 103.789 96.8025 104.049 96.8041C104.84 96.8102 105.631 96.8239 106.422 96.8379C106.964 96.8434 107.507 96.8484 108.05 96.8528C109.367 96.8648 110.683 96.8836 112 96.9062C112 97.9891 112 99.0719 112 100.187C111.754 100.171 111.508 100.155 111.255 100.138C105.527 99.8096 100.432 100.448 94.9922 102.279C94.8517 102.327 94.7112 102.374 94.5665 102.423C93.2383 102.871 91.913 103.328 90.5899 103.791C88.1954 104.628 85.786 105.41 83.366 106.171C83.1818 106.229 82.9976 106.286 82.8078 106.346C81.8819 106.637 80.9557 106.926 80.0295 107.216C78.8041 107.599 77.58 107.986 76.3559 108.373C75.5368 108.632 74.7175 108.891 73.8977 109.148C73.581 109.248 73.2644 109.347 72.9478 109.446C72.7935 109.495 72.6392 109.543 72.4803 109.593C71.5527 109.885 70.6269 110.182 69.7024 110.483C69.1158 110.674 68.5286 110.862 67.9412 111.05C67.5402 111.18 67.1403 111.312 66.7405 111.445C65.2357 111.925 64.1338 112.219 62.6463 111.507C62.4678 111.392 62.2893 111.276 62.1053 111.157C61.9005 111.027 61.6956 110.897 61.4846 110.762C61.2673 110.62 61.05 110.478 60.8262 110.332C60.3548 110.031 59.8834 109.729 59.412 109.428C59.1721 109.273 58.9321 109.119 58.6849 108.96C57.5777 108.249 56.4606 107.555 55.3438 106.859C54.9062 106.586 54.4687 106.313 54.0312 106.039C53.8147 105.904 53.5981 105.768 53.375 105.629C49.6562 103.305 45.9375 100.98 42.2188 98.6562C42.6289 97.6172 42.6289 97.6172 42.875 97.125C43.0194 97.125 43.1637 97.125 43.3125 97.125C43.3802 96.949 43.4479 96.7731 43.5176 96.5918C43.75 96.0312 43.75 96.0312 43.9688 95.8125Z" fill="#020101"/>
<path d="M49.2179 47.25C50.3007 47.25 51.3835 47.25 52.4992 47.25C52.4992 48.405 52.4992 49.56 52.4992 50.75C53.7263 50.75 54.9535 50.75 56.2179 50.75C56.2179 51.8328 56.2179 52.9156 56.2179 54.0312C55.6779 54.0394 55.1379 54.0476 54.5816 54.056C54.0566 54.0661 53.5318 54.0774 53.0069 54.0887C52.643 54.0959 52.2792 54.1021 51.9153 54.107C51.3912 54.1144 50.8673 54.1258 50.3433 54.1381C50.1005 54.1402 50.1005 54.1402 49.8529 54.1423C48.8804 54.1698 48.242 54.3058 47.4679 54.9062C47.2164 55.4093 47.1985 55.7407 47.1808 56.3008C47.1726 56.4694 47.1644 56.638 47.156 56.8118C47.2236 57.3334 47.2236 57.3334 47.5405 57.8073C48.4755 58.4164 49.4395 58.2881 50.5304 58.2832C52.7145 58.3292 54.5471 58.4137 56.2606 59.923C57.6427 61.403 57.91 62.7927 57.844 64.7927C57.6753 66.2734 57.0663 67.2272 55.988 68.2295C54.788 69.1333 53.7655 69.3019 52.2804 69.3438C52.2804 70.5709 52.2804 71.7981 52.2804 73.0625C51.2698 73.0625 50.2592 73.0625 49.2179 73.0625C49.2179 71.8353 49.2179 70.6081 49.2179 69.3438C47.9185 69.3438 46.6192 69.3438 45.2804 69.3438C45.2804 68.2609 45.2804 67.1781 45.2804 66.0625C45.5132 66.0605 45.7461 66.0584 45.9859 66.0563C46.8524 66.0476 47.7186 66.0332 48.5849 66.0171C48.9593 66.0109 49.3338 66.0063 49.7083 66.0032C50.2477 65.9985 50.7867 65.9883 51.3259 65.9771C51.5759 65.9766 51.5759 65.9766 51.8308 65.9762C52.9124 65.9466 53.4962 65.753 54.2492 64.9688C54.4393 64.298 54.388 63.6806 54.2492 63C53.8387 62.4528 53.5406 62.2082 52.9367 61.9062C52.5496 61.8882 52.162 61.8826 51.7745 61.8832C51.5391 61.8799 51.3036 61.8767 51.061 61.8734C50.5683 61.868 50.0755 61.8668 49.5828 61.8699C47.8369 61.8358 46.6508 61.4775 45.2804 60.375C44.7874 59.8315 44.7874 59.8315 44.5011 59.3359C44.4016 59.1701 44.302 59.0043 44.1995 58.8335C43.4525 57.4553 43.4873 55.5854 43.9243 54.0868C44.5665 52.8134 45.5683 51.8735 46.8117 51.1875C47.5527 50.9563 48.2241 50.8482 48.9992 50.75C49.0713 49.595 49.1435 48.44 49.2179 47.25Z" fill="#050402"/>
<path d="M67.1562 61.4688C67.8059 61.5409 68.4556 61.6131 69.125 61.6875C68.9142 63.9971 68.9142 63.9971 68.6875 64.9688C68.0044 64.8625 67.3759 64.7503 66.7188 64.5313C66.6984 64.7131 66.6781 64.895 66.6572 65.0824C65.8909 68.7932 62.9481 72.1387 59.8896 74.1913C56.0128 76.5864 51.3085 77.4749 46.8005 76.6471C42.4178 75.4983 38.4273 72.7988 36.0461 68.9104C34.7799 66.7404 33.8186 64.4404 33.6875 61.9063C33.8319 61.9063 33.9762 61.9063 34.125 61.9063C34.4479 62.3745 34.7467 62.8424 35.041 63.3281C37.5593 67.3455 41.3497 70.0673 45.9375 71.3125C46.9506 71.5166 47.9723 71.6454 49 71.75C49 71.0281 49 70.3063 49 69.5625C47.7728 69.5625 46.5456 69.5625 45.2812 69.5625C45.2812 69.4903 45.2812 69.4181 45.2812 69.3438C46.5806 69.3438 47.88 69.3438 49.2188 69.3438C49.2188 70.5709 49.2188 71.7981 49.2188 73.0625C50.2294 73.0625 51.24 73.0625 52.2812 73.0625C52.2812 71.8353 52.2812 70.6081 52.2812 69.3438C52.3534 69.3438 52.4256 69.3438 52.5 69.3438C52.5 70.1378 52.5 70.9319 52.5 71.75C56.1984 71.2663 59.4473 69.9873 62.3438 67.5938C62.4836 67.4866 62.6235 67.3794 62.7676 67.269C64.7114 65.7244 65.9753 63.6166 67.1562 61.4688Z" fill="#F3E466"/>
<path d="M21.4375 0C22.1095 0.29528 22.5127 0.61433 22.9961 1.16211C24.5019 2.70693 26.5903 3.29686 28.6058 3.91357C28.848 3.98927 29.0901 4.06497 29.3396 4.14297C29.8538 4.30345 30.3683 4.46308 30.883 4.6219C31.685 4.86943 32.4862 5.11942 33.2873 5.37C35.4911 6.05826 37.6963 6.74155 39.9091 7.40076C42.6396 8.21622 45.2275 9.0409 47.6875 10.5C47.9184 10.6365 48.1494 10.773 48.3873 10.9136C49.8474 11.8334 51.0971 12.9121 52.3436 14.0948C53.0321 14.7457 53.7438 15.3591 54.4688 15.9688C54.3582 16.8614 53.9217 17.2075 53.252 17.7734C53.0712 17.928 52.8905 18.0825 52.7042 18.2417C52.5646 18.3579 52.4251 18.4741 52.2812 18.5938C51.4189 18.0852 50.7695 17.5303 50.0801 16.8027C46.5968 13.2554 41.9159 11.6663 37.2383 10.3624C35.6639 9.9197 34.1181 9.41184 32.5706 8.88351C31.2039 8.42124 29.8276 8.01488 28.4375 7.62891C24.837 6.6173 22.0651 5.41713 19.4688 2.625C19.7847 1.91655 20.1814 1.39569 20.6992 0.820312C20.8374 0.665786 20.9756 0.51126 21.1179 0.352051C21.2234 0.235874 21.3288 0.119697 21.4375 0Z" fill="#020202"/>
<path d="M8.96875 36.75C9.1041 36.8899 9.23945 37.0297 9.37891 37.1738C9.60667 37.3972 9.83455 37.6205 10.0625 37.8438C10.1939 37.9794 10.3253 38.115 10.4607 38.2548C13.3789 41.0945 17.274 42.9236 20.7706 44.9601C22.0993 45.7343 23.4242 46.5136 24.7393 47.3107C25.1076 47.5336 25.1076 47.5336 25.4833 47.7611C25.9432 48.0403 26.4025 48.3204 26.8612 48.6017C29.9107 50.4653 29.9107 50.4653 33.391 50.6458C34.7254 50.2816 35.7648 49.7664 36.75 48.7812C37.5681 50.0083 37.632 51.277 37.4062 52.7188C36.8126 54.1397 35.9441 54.9368 34.5625 55.5625C33.4389 55.937 32.4522 55.99 31.3546 55.5449C29.6835 54.6876 28.0791 53.748 26.4824 52.7598C25.9454 52.4297 25.4078 52.1007 24.87 51.772C24.6642 51.6461 24.6642 51.6461 24.4543 51.5178C23.4659 50.9151 22.4708 50.325 21.4708 49.7417C21.3301 49.6596 21.1893 49.5775 21.0443 49.4929C20.3701 49.1001 19.6951 48.7088 19.0193 48.3187C14.7527 45.8405 10.6374 43.1768 9.2439 38.1309C9.13951 37.6733 9.05204 37.2119 8.96875 36.75Z" fill="#FCCBBC"/>
<path d="M89.4688 73.9375C94.0546 74.1058 99.0741 74.9787 103.159 77.1786C104.471 77.8776 105.599 78.1635 107.082 78.2228C107.229 78.2292 107.377 78.2356 107.53 78.2421C109.019 78.3015 110.509 78.3106 112 78.3125C112 79.4675 112 80.6225 112 81.8125C110.34 81.8125 108.679 81.8125 106.969 81.8125C106.969 83.6172 106.969 85.4219 106.969 87.2812C105.886 87.2812 104.803 87.2812 103.688 87.2812C103.688 85.4766 103.688 83.6719 103.688 81.8125C103.543 81.8125 103.399 81.8125 103.25 81.8125C103.241 81.6805 103.233 81.5486 103.224 81.4126C103.064 80.8736 103.064 80.8736 102.436 80.6128C102.074 80.4757 102.074 80.4757 101.705 80.3359C101.276 80.1735 100.848 80.0111 100.406 79.8438C100.406 81.2875 100.406 82.7312 100.406 84.2188C99.3234 84.2188 98.2406 84.2188 97.125 84.2188C97.125 82.4141 97.125 80.6094 97.125 78.75C96.2678 78.574 95.4105 78.3981 94.5273 78.2168C94.129 78.1341 94.129 78.1341 93.7225 78.0498C92.3042 77.7626 90.9112 77.5548 89.4688 77.4375C89.4688 76.2825 89.4688 75.1275 89.4688 73.9375Z" fill="#040303"/>
<path d="M59.0625 34.5625C59.1347 34.5625 59.2069 34.5625 59.2812 34.5625C59.3093 36.9066 59.2366 39.2247 59.0625 41.5625C58.9458 41.5227 58.829 41.483 58.7087 41.442C58.3609 41.3247 58.0125 41.2089 57.6637 41.0942C57.3077 40.9768 56.9526 40.8565 56.599 40.7319C54.9048 40.1682 53.1736 39.9989 51.4062 39.8125C51.2961 39.0971 51.187 38.3816 51.0781 37.666C51.0468 37.4628 51.0155 37.2597 50.9833 37.0504C50.9537 36.8551 50.9241 36.6598 50.8936 36.4586C50.8661 36.2788 50.8386 36.0989 50.8102 35.9136C50.75 35.4375 50.75 35.4375 50.75 34.7812C53.5815 34.8468 56.1499 35.1958 58.8438 36.0938C58.9159 35.5884 58.9881 35.0831 59.0625 34.5625Z" fill="#FAC9BA"/>
<path d="M82.6875 93.625C83.7703 93.625 84.8531 93.625 85.9688 93.625C85.9688 94.7078 85.9688 95.7906 85.9688 96.9062C84.8859 96.9062 83.8031 96.9062 82.6875 96.9062C82.6875 95.8234 82.6875 94.7406 82.6875 93.625Z" fill="#FFFEFD"/>
<path d="M17.2812 29.3125C18.3641 29.3125 19.4469 29.3125 20.5625 29.3125C20.5625 30.3953 20.5625 31.4781 20.5625 32.5938C19.4797 32.5938 18.3969 32.5938 17.2812 32.5938C17.2812 31.5109 17.2812 30.4281 17.2812 29.3125Z" fill="#FFFDFD"/>
</g>
<defs>
<clipPath id="clip0_3014_342">
<rect width="112" height="112" fill="white"/>
</clipPath>
</defs>
</svg>
