<svg width="60" height="60" viewBox="0 0 60 60" fill="none" xmlns="http://www.w3.org/2000/svg">
<g clip-path="url(#clip0_3014_358)">
<path d="M14.8843 0.467961C15.0307 0.538431 15.0307 0.538431 15.18 0.610325C16.8256 1.50577 18.1584 3.13547 19.472 4.44593C19.5655 4.5391 19.659 4.63228 19.7554 4.72827C20.2489 5.22003 20.742 5.71211 21.2349 6.20448C21.7416 6.71053 22.2494 7.21547 22.7574 7.72017C23.1507 8.11127 23.5432 8.50316 23.9355 8.89526C24.1223 9.08177 24.3095 9.268 24.497 9.45392C24.7591 9.71401 25.02 9.97521 25.2807 10.2367C25.3571 10.312 25.4334 10.3872 25.5121 10.4648C26.8221 11.7866 27.6526 13.3937 27.709 15.2702C27.6522 17.7012 26.3882 19.2339 24.7253 20.8522C24.6646 20.9114 24.6039 20.9706 24.5414 21.0317C24.2914 21.2753 24.0412 21.5188 23.7889 21.76C22.6346 22.8618 22.6346 22.8618 22.2158 24.3742C22.2865 25.4928 23.0917 26.2037 23.8411 26.9463C23.9542 27.0601 24.0672 27.1739 24.1802 27.2879C24.4854 27.5952 24.7921 27.9011 25.0991 28.2066C25.4211 28.5275 25.742 28.8495 26.0631 29.1713C26.6022 29.7112 27.1422 30.2502 27.6829 30.7886C28.307 31.4101 28.9294 32.0333 29.5509 32.6574C30.0858 33.1944 30.6215 33.7305 31.1581 34.2659C31.478 34.5851 31.7977 34.9046 32.1165 35.2249C32.4162 35.526 32.717 35.8259 33.0188 36.125C33.1814 36.2867 33.3429 36.4495 33.5043 36.6124C34.1727 37.2719 34.6568 37.677 35.6118 37.7849C36.623 37.7392 37.342 37.156 38.0064 36.4491C38.0828 36.3708 38.1591 36.2925 38.2378 36.2118C38.4797 35.9636 38.7195 35.7136 38.959 35.4631C40.6029 33.7476 42.1168 32.3751 44.6206 32.321C47.6234 32.358 49.3583 34.3189 51.3424 36.3049C51.5462 36.5082 51.7499 36.7114 51.9537 36.9146C52.3788 37.3389 52.8034 37.7635 53.2278 38.1885C53.7696 38.731 54.3128 39.2722 54.8563 39.813C55.2767 40.2317 55.6964 40.6512 56.1158 41.071C56.3156 41.2708 56.5158 41.4703 56.7162 41.6696C56.9968 41.9488 57.2763 42.2291 57.5555 42.5096C57.6371 42.5903 57.7187 42.671 57.8028 42.7542C58.5653 43.5248 59.2395 44.3767 59.6353 45.3947C59.6809 45.5092 59.7265 45.6237 59.7735 45.7417C60.2295 47.0266 60.2073 48.7933 59.6499 50.0383C59.6187 50.1162 59.5874 50.1942 59.5552 50.2745C58.8951 51.7648 57.6211 52.7037 56.3687 53.6711C56.2387 53.7724 56.1087 53.8737 55.9787 53.975C55.6708 54.2133 55.3616 54.4495 55.0517 54.685C54.8218 54.8609 54.5936 55.0388 54.3655 55.2169C51.6677 57.3165 48.8186 58.8556 45.4702 59.6476C45.3501 59.6769 45.3501 59.6769 45.2275 59.7068C42.4604 60.3497 39.1818 60.2428 36.4468 59.5305C36.3504 59.5066 36.254 59.4827 36.1548 59.4581C33.9093 58.8915 31.7712 57.9462 29.8843 56.6008C29.766 56.518 29.6477 56.4352 29.5259 56.3499C27.7801 55.0877 26.2924 53.4961 24.7727 51.9786C24.5567 51.7634 24.3408 51.5483 24.1248 51.3331C23.4816 50.6922 22.839 50.0508 22.1964 49.4092C21.9534 49.1667 21.7105 48.9242 21.4675 48.6817C20.3931 47.6094 19.3188 46.537 18.245 45.4642C17.9835 45.2029 17.722 44.9416 17.4605 44.6803C17.3956 44.6154 17.3306 44.5505 17.2636 44.4836C16.2111 43.432 15.1576 42.3815 14.1036 41.3313C13.0169 40.2485 11.9311 39.1649 10.8462 38.0803C10.2389 37.4732 9.6312 36.8665 9.02249 36.2608C8.44966 35.6908 7.87807 35.1196 7.30725 34.5476C7.09892 34.3392 6.89019 34.1312 6.68102 33.9237C3.33097 30.5981 0.798198 26.6811 0.11868 21.9133C0.0973803 21.7642 0.0760805 21.6151 0.0541353 21.4615C-0.183455 19.2224 -0.182959 16.7211 0.353055 14.5305C0.375714 14.435 0.398374 14.3395 0.42172 14.2412C1.21865 10.9747 2.72842 8.23691 4.80618 5.62421C4.9191 5.48029 5.03187 5.33625 5.14447 5.19208C5.3554 4.9222 5.56701 4.65288 5.77939 4.38413C5.99835 4.10694 6.2161 3.82884 6.43307 3.55008C6.74786 3.14586 7.06541 2.74396 7.38431 2.34296C7.4942 2.20315 7.4942 2.20315 7.60632 2.06052C9.31332 -0.0142662 12.4505 -0.704806 14.8843 0.467961Z" fill="#FE5C5C"/>
<path d="M14.8843 0.467961C15.0307 0.538431 15.0307 0.538431 15.18 0.610325C16.8256 1.50577 18.1584 3.13547 19.472 4.44593C19.5655 4.5391 19.659 4.63228 19.7554 4.72827C20.2489 5.22003 20.742 5.71211 21.2349 6.20448C21.7416 6.71053 22.2494 7.21547 22.7574 7.72017C23.1507 8.11127 23.5432 8.50316 23.9355 8.89526C24.1223 9.08177 24.3095 9.268 24.497 9.45392C24.7591 9.71401 25.02 9.97521 25.2807 10.2367C25.3571 10.312 25.4334 10.3872 25.5121 10.4648C26.8221 11.7866 27.6526 13.3937 27.709 15.2702C27.6522 17.7012 26.3882 19.2339 24.7253 20.8522C24.6646 20.9114 24.6039 20.9706 24.5414 21.0317C24.2914 21.2753 24.0412 21.5188 23.7889 21.76C22.6346 22.8618 22.6346 22.8618 22.2158 24.3742C22.2865 25.4928 23.0917 26.2037 23.8411 26.9463C23.9542 27.0601 24.0672 27.1739 24.1802 27.2879C24.4854 27.5952 24.7921 27.9011 25.0991 28.2066C25.4211 28.5275 25.742 28.8495 26.0631 29.1713C26.6022 29.7112 27.1422 30.2502 27.6829 30.7886C28.307 31.4101 28.9294 32.0333 29.5509 32.6574C30.0858 33.1944 30.6215 33.7305 31.1581 34.2659C31.478 34.5851 31.7977 34.9046 32.1165 35.2249C32.4162 35.526 32.717 35.8259 33.0188 36.125C33.1814 36.2867 33.3429 36.4495 33.5043 36.6124C34.1727 37.2719 34.6568 37.677 35.6118 37.7849C36.623 37.7392 37.342 37.156 38.0064 36.4491C38.0828 36.3708 38.1591 36.2925 38.2378 36.2118C38.4797 35.9636 38.7195 35.7136 38.959 35.4631C40.6029 33.7476 42.1168 32.3751 44.6206 32.321C47.6234 32.358 49.3583 34.3189 51.3424 36.3049C51.5462 36.5082 51.7499 36.7114 51.9537 36.9146C52.3788 37.3389 52.8034 37.7635 53.2278 38.1885C53.7696 38.731 54.3128 39.2722 54.8563 39.813C55.2767 40.2317 55.6964 40.6512 56.1158 41.071C56.3156 41.2708 56.5158 41.4703 56.7162 41.6696C56.9968 41.9488 57.2763 42.2291 57.5555 42.5096C57.6371 42.5903 57.7187 42.671 57.8028 42.7542C58.5653 43.5248 59.2395 44.3767 59.6353 45.3947C59.6809 45.5092 59.7265 45.6237 59.7735 45.7417C60.2295 47.0266 60.2073 48.7933 59.6499 50.0383C59.6187 50.1162 59.5874 50.1942 59.5552 50.2745C58.8951 51.7648 57.6211 52.7037 56.3687 53.6711C56.2387 53.7724 56.1087 53.8737 55.9787 53.975C55.6708 54.2133 55.3616 54.4495 55.0517 54.685C54.8218 54.8609 54.5936 55.0388 54.3655 55.2169C51.6677 57.3165 48.8186 58.8556 45.4702 59.6476C45.3501 59.6769 45.3501 59.6769 45.2275 59.7068C42.4604 60.3497 39.1818 60.2428 36.4468 59.5305C36.3504 59.5066 36.254 59.4827 36.1548 59.4581C33.9093 58.8915 31.7712 57.9462 29.8843 56.6008C29.766 56.518 29.6477 56.4352 29.5259 56.3499C27.7801 55.0877 26.2924 53.4961 24.7727 51.9786C24.5567 51.7634 24.3408 51.5483 24.1248 51.3331C23.4816 50.6922 22.839 50.0508 22.1964 49.4092C21.9534 49.1667 21.7105 48.9242 21.4675 48.6817C20.3931 47.6094 19.3188 46.537 18.245 45.4642C17.9835 45.2029 17.722 44.9416 17.4605 44.6803C17.3956 44.6154 17.3306 44.5505 17.2636 44.4836C16.2111 43.432 15.1576 42.3815 14.1036 41.3313C13.0169 40.2485 11.9311 39.1649 10.8462 38.0803C10.2389 37.4732 9.6312 36.8665 9.02249 36.2608C8.44966 35.6908 7.87807 35.1196 7.30725 34.5476C7.09892 34.3392 6.89019 34.1312 6.68102 33.9237C3.33097 30.5981 0.798198 26.6811 0.11868 21.9133C0.0973803 21.7642 0.0760805 21.6151 0.0541353 21.4615C-0.183455 19.2224 -0.182959 16.7211 0.353055 14.5305C0.375714 14.435 0.398374 14.3395 0.42172 14.2412C1.21865 10.9747 2.72842 8.23691 4.80618 5.62421C4.9191 5.48029 5.03187 5.33625 5.14447 5.19208C5.3554 4.9222 5.56701 4.65288 5.77939 4.38413C5.99835 4.10694 6.2161 3.82884 6.43307 3.55008C6.74786 3.14586 7.06541 2.74396 7.38431 2.34296C7.4942 2.20315 7.4942 2.20315 7.60632 2.06052C9.31332 -0.0142662 12.4505 -0.704806 14.8843 0.467961ZM11.4286 2.37821C9.88311 2.70112 8.88384 4.27016 8.00412 5.46125C7.69579 5.87785 7.37318 6.27877 7.04104 6.67652C5.71825 8.2621 4.59517 9.94768 3.75149 11.8351C3.7186 11.9084 3.6857 11.9816 3.65181 12.057C3.16176 13.1661 2.82871 14.2836 2.57962 15.468C2.55303 15.592 2.52644 15.716 2.49905 15.8438C1.9693 18.8273 2.36459 22.0124 3.39993 24.843C3.47742 25.0603 3.47742 25.0603 3.55649 25.282C4.80367 28.655 7.24654 31.0507 9.73987 33.5455C9.95217 33.7584 10.1644 33.9712 10.3767 34.1841C10.9498 34.7587 11.5232 35.3329 12.0968 35.907C12.4559 36.2664 12.8149 36.6259 13.1739 36.9855C14.1709 37.9839 15.1679 38.9822 16.1654 39.98C16.2608 40.0755 16.2608 40.0755 16.3581 40.1728C16.4218 40.2365 16.4855 40.3003 16.5512 40.366C16.6803 40.4951 16.8094 40.6242 16.9384 40.7534C17.0025 40.8174 17.0665 40.8815 17.1325 40.9475C18.1701 41.9856 19.2069 43.0244 20.2434 44.0637C21.3115 45.1345 22.3802 46.2047 23.4495 47.2742C24.0484 47.8731 24.647 48.4724 25.2448 49.0723C25.8072 49.6367 26.3705 50.2002 26.9344 50.763C27.1401 50.9687 27.3456 51.1747 27.5508 51.3811C28.9241 52.7617 30.3135 54.0896 31.9864 55.1066C32.1025 55.1779 32.1025 55.1779 32.2209 55.2507C36.1187 57.5966 40.8663 58.2956 45.2853 57.243C47.5448 56.6605 50.3881 55.6317 52.0327 53.9055C51.8466 53.4462 51.531 53.1386 51.1838 52.7974C51.1213 52.735 51.0588 52.6727 50.9944 52.6084C50.788 52.4029 50.5809 52.1981 50.3738 51.9934C50.2301 51.8504 50.0865 51.7075 49.943 51.5644C49.5652 51.1882 49.1868 50.8126 48.8081 50.4372C48.202 49.8361 47.5966 49.2342 46.9916 48.6319C46.7801 48.4216 46.5682 48.2117 46.3563 48.0019C46.2267 47.8731 46.0971 47.7443 45.9676 47.6155C45.9085 47.5573 45.8495 47.499 45.7886 47.439C45.3769 47.0286 45.1345 46.7802 45.0674 46.1857C45.0803 45.7977 45.1265 45.6899 45.3457 45.3434C45.7657 45.0777 45.978 45.0293 46.4602 45.1251C46.8178 45.2548 47.0135 45.4237 47.2916 45.6828C47.3941 45.7782 47.4965 45.8736 47.6021 45.9719C48.1932 46.5402 48.7746 47.1174 49.353 47.6986C49.4853 47.8312 49.6176 47.9636 49.75 48.0961C50.0943 48.4409 50.4383 48.786 50.7822 49.1312C51.1347 49.485 51.4876 49.8384 51.8405 50.1918C52.5299 50.8825 53.2189 51.5736 53.9077 52.2648C54.297 52.1145 54.6067 51.9696 54.9322 51.7073C55.0108 51.6441 55.0894 51.5809 55.1704 51.5159C55.2516 51.4488 55.3328 51.3818 55.4165 51.3127C55.5002 51.2437 55.5838 51.1747 55.67 51.1035C56.7522 50.1986 57.4867 49.4068 57.7063 47.9609C57.7662 46.8655 57.3497 45.8453 56.6222 45.0329C56.4462 44.8529 56.268 44.6749 56.088 44.4989C55.9903 44.4002 55.8927 44.3015 55.7921 44.1998C55.4719 43.8772 55.1489 43.5577 54.8256 43.2382C54.6003 43.0134 54.3755 42.788 54.1507 42.5627C53.6806 42.0921 53.2089 41.6232 52.7361 41.1553C52.1916 40.6165 51.6497 40.0752 51.1091 39.5325C50.5861 39.0075 50.0614 38.4843 49.5359 37.9617C49.3136 37.7407 49.092 37.519 48.8706 37.2969C48.5605 36.9865 48.2486 36.678 47.9361 36.3699C47.8459 36.2789 47.7557 36.1879 47.6628 36.0941C46.9012 35.3501 46.0527 34.7393 44.9528 34.7223C44.8722 34.7251 44.7916 34.7278 44.7085 34.7307C44.6222 34.7327 44.536 34.7348 44.4471 34.7369C42.7317 34.8194 41.6737 36.1187 40.5511 37.2813C40.4459 37.3892 40.3406 37.4972 40.2322 37.6084C40.0234 37.8232 39.8162 38.0397 39.611 38.258C38.5944 39.3045 37.4534 40.0706 35.9614 40.1176C33.9347 40.1443 32.7555 39.2981 31.3221 37.9129C31.1356 37.7281 30.9497 37.5426 30.7642 37.3566C30.6614 37.2544 30.5585 37.1521 30.4525 37.0467C30.1743 36.7699 29.8967 36.4926 29.6194 36.215C29.3864 35.9818 29.153 35.749 28.9196 35.5162C28.3686 34.9664 27.8182 34.4161 27.2681 33.8653C26.7035 33.3 26.1378 32.7358 25.5716 32.1721C25.0825 31.685 24.5941 31.1973 24.1062 30.709C23.8161 30.4187 23.5257 30.1286 23.2347 29.8393C22.9101 29.5165 22.587 29.1922 22.264 28.8679C22.1693 28.774 22.0745 28.6802 21.9769 28.5835C20.7211 27.3161 19.89 26.1118 19.8721 24.301C19.8709 24.2072 19.8697 24.1135 19.8685 24.017C19.8756 23.5329 19.927 23.1447 20.1097 22.6942C20.2933 22.2306 20.2933 22.2306 20.1577 21.7961C20.0178 21.6051 20.0178 21.6051 19.8346 21.4314C19.7659 21.3625 19.6972 21.2935 19.6265 21.2224C19.5508 21.1481 19.475 21.0738 19.397 20.9973C19.3175 20.918 19.2381 20.8386 19.1562 20.7569C18.893 20.4946 18.6286 20.2335 18.3642 19.9724C18.1812 19.7903 17.9983 19.6082 17.8155 19.426C17.3336 18.9461 16.8507 18.4672 16.3675 17.9886C15.5947 17.2227 14.8234 16.4553 14.0521 15.6879C13.7824 15.4198 13.5123 15.1523 13.2421 14.8847C13.0766 14.7204 12.9112 14.5561 12.7457 14.3918C12.6704 14.3175 12.5952 14.2432 12.5176 14.1667C11.6285 13.282 11.6285 13.282 11.5646 12.8857C11.5791 12.5102 11.6008 12.1935 11.7202 11.8351C12.0547 11.5809 12.4484 11.5144 12.8649 11.529C14.0023 11.8411 15.2316 13.574 16.0534 14.3991C16.2199 14.5658 16.3864 14.7324 16.5529 14.899C16.9874 15.3339 17.4215 15.7692 17.8555 16.2046C18.3 16.6503 18.7448 17.0956 19.1896 17.5409C20.0595 18.4121 20.9291 19.2837 21.7984 20.1555C22.3922 19.8721 22.7874 19.4394 23.2486 18.9763C23.3356 18.8911 23.4226 18.806 23.5122 18.7183C24.466 17.7653 25.2291 16.8325 25.2334 15.4387C25.199 12.5013 21.7067 10.1766 19.7828 8.24225C19.3438 7.80063 18.906 7.3579 18.4691 6.91416C17.9386 6.3753 17.4061 5.83849 16.8721 5.30307C16.6701 5.09983 16.4688 4.8959 16.2682 4.69124C14.6056 2.93941 14.6056 2.93941 12.3501 2.28437C12.0405 2.30342 11.7365 2.34099 11.4286 2.37821Z" fill="#020101"/>
<path d="M44.6704 34.754C44.753 34.7502 44.8355 34.7463 44.9206 34.7423C46.0411 34.7312 46.8859 35.338 47.6613 36.0955C47.7515 36.1865 47.8417 36.2775 47.9346 36.3713C48.0333 36.4686 48.132 36.5659 48.2336 36.6661C48.557 36.9856 48.8781 37.3073 49.1991 37.6292C49.3674 37.797 49.5358 37.9645 49.7043 38.132C50.2333 38.658 50.7607 39.1856 51.2871 39.7141C51.8277 40.2567 52.3707 40.7967 52.9151 41.3354C53.3849 41.8005 53.8531 42.2672 54.32 42.7352C54.5978 43.0136 54.8763 43.2912 55.156 43.5676C55.4682 43.8766 55.7776 44.1881 56.0865 44.5003C56.1779 44.5896 56.2693 44.679 56.3634 44.7711C57.1491 45.575 57.6581 46.506 57.7222 47.6446C57.6464 48.9635 57.0864 49.8599 56.1328 50.7428C55.8324 51.0052 55.5268 51.2603 55.2173 51.5118C55.1416 51.5734 55.0658 51.6349 54.9878 51.6983C54.9153 51.7554 54.8429 51.8124 54.7682 51.8712C54.7037 51.922 54.6393 51.9729 54.5728 52.0252C54.3259 52.1797 54.2013 52.2516 53.9062 52.2662C53.6582 52.0727 53.4563 51.8867 53.2403 51.6612C53.175 51.5955 53.1098 51.5297 53.0426 51.462C52.8265 51.2437 52.6125 51.0235 52.3984 50.8032C52.2485 50.6513 52.0985 50.4996 51.9483 50.3481C51.5524 49.9479 51.1581 49.5462 50.7643 49.144C50.1351 48.5015 49.5042 47.8607 48.8719 47.2213C48.6515 46.9978 48.4324 46.7732 48.2133 46.5485C48.0775 46.4106 47.9416 46.2728 47.8057 46.135C47.7153 46.0413 47.7153 46.0413 47.623 45.9457C47.155 45.4748 46.7134 45.1424 46.04 45.0885C45.715 45.0972 45.715 45.0972 45.4898 45.218C45.2344 45.235 45.2344 45.235 44.9066 44.9644C44.7897 44.8437 44.6744 44.7214 44.5605 44.5978C44.5012 44.5357 44.4418 44.4737 44.3806 44.4098C44.2342 44.2565 44.0896 44.1014 43.9453 43.9459C44.0033 43.7719 44.0033 43.7719 44.0625 43.5943C44.1183 43.0973 44.1425 42.6822 43.894 42.2394C43.4456 41.9878 43.0408 42.0391 42.5391 42.0709C42.0703 42.0709 42.0703 42.0709 41.7374 41.7912C41.6097 41.6635 41.4834 41.5344 41.358 41.4044C41.2911 41.3368 41.2241 41.2691 41.1551 41.1995C40.9415 40.9832 40.7295 40.7654 40.5176 40.5475C40.373 40.4006 40.2284 40.2538 40.0836 40.1071C39.729 39.7473 39.3758 39.3861 39.0234 39.024C39.2092 38.5701 39.5174 38.2598 39.8589 37.919C39.9184 37.8589 39.978 37.7988 40.0394 37.7369C40.1657 37.6099 40.2923 37.4833 40.4192 37.3569C40.6103 37.1661 40.7998 36.9739 40.9893 36.7814C42.0755 35.6884 43.0608 34.7669 44.6704 34.754Z" fill="#FD8E8C"/>
<path d="M14.4122 2.93101C14.8116 3.22759 15.1536 3.56447 15.5003 3.92041C15.5992 4.01862 15.6981 4.11683 15.8 4.21801C16.1231 4.53993 16.4432 4.86467 16.7633 5.18962C16.9884 5.41576 17.214 5.64134 17.4396 5.86696C17.9106 6.33861 18.3801 6.8118 18.8485 7.28606C19.3886 7.83293 19.9307 8.37774 20.4741 8.9214C21.0552 9.50288 21.635 10.0857 22.2143 10.669C22.3803 10.8359 22.5465 11.0027 22.7128 11.1694C23.023 11.4809 23.332 11.7936 23.6407 12.1066C23.7322 12.1981 23.8236 12.2895 23.9178 12.3838C24.9013 13.3867 25.2367 14.1961 25.2375 15.611C25.2008 17.0375 24.2651 17.9109 23.3185 18.8685C23.2269 18.9616 23.2269 18.9616 23.1335 19.0565C22.7684 19.4265 22.4002 19.7932 22.0294 20.1576C21.697 20.0064 21.4567 19.8483 21.1997 19.5896C21.1315 19.5216 21.0633 19.4536 20.9931 19.3835C20.883 19.2719 20.883 19.2719 20.7707 19.158C20.6924 19.0795 20.614 19.001 20.5333 18.9201C20.2744 18.6605 20.0164 18.4001 19.7584 18.1398C19.5787 17.9593 19.3989 17.7789 19.2191 17.5986C18.7458 17.1237 18.2731 16.6482 17.8006 16.1724C17.044 15.4108 16.2867 14.65 15.5289 13.8895C15.2641 13.6235 14.9997 13.3571 14.7353 13.0906C14.5734 12.9279 14.4114 12.7651 14.2494 12.6024C14.1758 12.528 14.1022 12.4536 14.0264 12.377C13.9585 12.3089 13.8907 12.2409 13.8208 12.1708C13.7621 12.1117 13.7034 12.0526 13.6429 11.9917C13.2366 11.6186 12.9654 11.578 12.4241 11.5832C12.1838 11.5916 12.1838 11.5916 11.9667 11.6883C11.7169 11.7201 11.7169 11.7201 11.4818 11.5594C11.3579 11.4362 11.3579 11.4362 11.2315 11.3105C11.1373 11.2182 11.0431 11.1258 10.9461 11.0307C10.8456 10.929 10.7451 10.8274 10.6416 10.7226C10.5379 10.6195 10.4343 10.5164 10.3275 10.4102C10.1084 10.1915 9.88992 9.97223 9.67238 9.75195C9.39324 9.46948 9.11156 9.18971 8.829 8.91067C8.5602 8.64449 8.29363 8.37608 8.02686 8.10786C7.92519 8.00738 7.82353 7.9069 7.71878 7.80337C7.62643 7.70918 7.53409 7.61499 7.43895 7.51795C7.35683 7.43536 7.27471 7.35278 7.1901 7.26769C7.02939 7.03258 7.02939 7.03258 7.04637 6.79032C7.21258 6.41465 7.47508 6.111 7.73252 5.79478C7.79058 5.72248 7.84865 5.65018 7.90847 5.57569C8.02722 5.42806 8.1463 5.2807 8.2657 5.1336C8.41843 4.94451 8.56865 4.75339 8.71854 4.56202C10.2899 2.57701 12.001 1.65445 14.4122 2.93101Z" fill="#FD8E8C"/>
<path d="M41.1339 0.4706C41.2332 0.491919 41.3326 0.513238 41.435 0.535202C45.4129 1.42087 49.1446 3.464 52.1294 6.21462C52.3533 6.41918 52.5819 6.6134 52.816 6.80605C53.2686 7.19231 53.643 7.63264 54.0245 8.08779C54.1153 8.19308 54.2061 8.29837 54.2996 8.40685C56.1632 10.593 57.558 13.0305 58.5948 15.705C58.6291 15.7929 58.6634 15.8809 58.6987 15.9716C59.5693 18.2562 60.0163 20.7281 60.0377 23.1684C60.0411 23.2989 60.0445 23.4295 60.048 23.5641C60.0554 24.5192 60.0554 24.5192 59.7791 24.987C59.3904 25.318 59.1118 25.3552 58.5989 25.3469C58.2115 25.294 58.0309 25.1321 57.7745 24.8456C57.5366 24.2835 57.5085 23.755 57.4962 23.1537C57.3051 18.0414 55.1206 12.5459 51.3292 9.02529C50.7433 8.43935 50.7433 8.43935 50.5651 8.25499C47.6905 5.31034 43.5939 3.58025 39.6104 2.81435C39.4808 2.78912 39.3512 2.7639 39.2177 2.7379C38.3628 2.58965 37.513 2.53973 36.6467 2.52336C35.946 2.50063 35.3595 2.38936 34.8131 1.91347C34.6287 1.51221 34.6096 1.13317 34.6886 0.704975C35.7373 -0.93808 39.5219 0.124119 41.1339 0.4706Z" fill="black"/>
<path d="M45.3053 10.958C46.9353 12.1701 48.3732 13.6298 49.4531 15.3526C49.4987 15.4252 49.5442 15.4978 49.5912 15.5726C50.9205 17.7301 51.6807 20.0455 51.9507 22.5596C51.9611 22.6548 51.9714 22.75 51.9822 22.8481C52.0398 23.4731 52.0704 24.1144 51.914 24.7276C51.6262 25.0716 51.4221 25.2673 50.9765 25.3648C50.581 25.3887 50.2917 25.3222 49.9365 25.1524C49.4784 24.5865 49.4752 23.922 49.4124 23.2137C49.1111 19.828 47.8129 16.9904 45.4687 14.5322C45.4085 14.4632 45.3482 14.3942 45.2861 14.323C43.0534 11.87 39.5933 10.8092 36.4005 10.561C35.2482 10.461 35.2482 10.461 34.8047 9.96193C34.6152 9.58305 34.6191 9.19959 34.6875 8.79005C34.8773 8.43542 35.1076 8.14352 35.5003 8.00945C38.7163 7.48131 42.7588 9.14645 45.3053 10.958Z" fill="black"/>
<path d="M7.61664 14.7668C8.12332 15.034 8.12332 15.034 8.31976 15.3528C8.48009 16.1587 8.27708 17.0191 8.16996 17.8246C7.81024 20.5833 8.54965 23.3731 10.2167 25.6067C10.6499 26.1388 11.1202 26.6395 11.5908 27.1386C12.2872 27.8785 12.2872 27.8785 12.3554 28.4045C12.2915 28.9338 12.1205 29.0816 11.7182 29.4153C11.6795 29.454 11.6409 29.4926 11.601 29.5325C11.0895 29.6255 10.8195 29.6377 10.382 29.3425C10.0704 29.0664 9.78024 28.7778 9.49164 28.4778C9.39465 28.3817 9.29767 28.2856 9.19775 28.1867C6.68867 25.591 5.54892 22.1107 5.58276 18.5422C5.60331 17.9155 5.67635 17.298 5.77093 16.6785C5.78372 16.5914 5.7965 16.5044 5.80967 16.4147C5.90833 15.8491 6.07966 15.459 6.44476 15.0012C6.88641 14.7068 7.09298 14.7047 7.61664 14.7668Z" fill="#040101"/>
<path d="M38.4391 16.8732C40.4704 17.7105 41.9148 19.0102 42.8922 20.9748C43.2634 21.9011 43.492 22.7936 43.5075 23.7946C43.5105 23.912 43.5135 24.0294 43.5166 24.1503C43.4718 24.5466 43.363 24.7577 43.1266 25.0763C42.7725 25.3124 42.6676 25.3502 42.2623 25.362C42.1744 25.3667 42.0865 25.3713 41.9959 25.3762C41.5629 25.2733 41.4033 25.0751 41.1344 24.7248C41.0173 24.3768 40.9631 24.025 40.9074 23.6628C40.638 22.1767 40.1031 20.8835 38.8346 19.9764C37.9254 19.4096 36.9753 19.1403 35.9219 19.012C35.3362 18.9273 35.0488 18.7473 34.6891 18.2795C34.5832 17.9157 34.6037 17.5929 34.6891 17.2248C35.6052 16.0676 37.1853 16.4626 38.4391 16.8732Z" fill="black"/>
<path d="M43.5944 41.9538C43.9533 42.1808 43.9533 42.1808 44.1804 42.5397C44.3022 43.0964 44.2588 43.4704 43.9533 43.9533C43.4704 44.2588 43.0964 44.3022 42.5397 44.1804C42.1808 43.9533 42.1808 43.9533 41.9538 43.5944C41.832 43.0377 41.8753 42.6638 42.1808 42.1808C42.6638 41.8753 43.0377 41.832 43.5944 41.9538Z" fill="#040202"/>
<path d="M14.8916 30.7678C15.2478 30.8477 15.4541 31.0299 15.7041 31.2874C15.8813 31.6418 15.8415 31.951 15.8213 32.3421C15.6821 32.7382 15.5989 32.8029 15.2354 33.0452C14.6887 33.1425 14.294 33.1169 13.8218 32.8182C13.5166 32.3358 13.472 31.9608 13.5947 31.4046C13.9467 30.8656 14.2723 30.7292 14.8916 30.7678Z" fill="#050101"/>
</g>
<defs>
<clipPath id="clip0_3014_358">
<rect width="60" height="60" fill="white"/>
</clipPath>
</defs>
</svg>
