<svg width="112" height="112" viewBox="0 0 112 112" fill="none" xmlns="http://www.w3.org/2000/svg">
<g clip-path="url(#clip0_3014_252)">
<path d="M0 0C36.96 0 73.92 0 112 0C112 36.96 112 73.92 112 112C75.04 112 38.08 112 0 112C0 75.04 0 38.08 0 0Z" fill="#020101"/>
<path d="M3.28125 74.8125C38.0756 74.8125 72.87 74.8125 108.719 74.8125C108.719 83.1141 108.719 91.4156 108.719 99.9688C100.056 99.9688 91.3937 99.9688 82.4688 99.9688C82.4688 100.546 82.4688 101.124 82.4688 101.719C81.3859 101.719 80.3031 101.719 79.1875 101.719C79.1875 101.141 79.1875 100.564 79.1875 99.9688C54.1384 99.9688 29.0894 99.9688 3.28125 99.9688C3.28125 91.6672 3.28125 83.3656 3.28125 74.8125Z" fill="#E3694A"/>
<path d="M3.28125 9.84375C38.0756 9.84375 72.87 9.84375 108.719 9.84375C108.719 15.1856 108.719 20.5275 108.719 26.0312C109.296 26.0312 109.874 26.0312 110.469 26.0312C110.469 27.1141 110.469 28.1969 110.469 29.3125C109.891 29.3125 109.314 29.3125 108.719 29.3125C108.719 32.4888 108.719 35.665 108.719 38.9375C104.893 38.9375 101.067 38.9375 97.125 38.9375C97.2694 38.36 97.4137 37.7825 97.5625 37.1875C97.608 36.7171 97.6389 36.2449 97.6531 35.7725C97.6615 35.5215 97.67 35.2705 97.6787 35.012C97.6855 34.7554 97.6922 34.4988 97.6992 34.2344C97.7077 33.971 97.7161 33.7076 97.7249 33.4363C97.7453 32.7909 97.7635 32.1455 97.7812 31.5C99.0806 31.5 100.38 31.5 101.719 31.5C101.719 30.4172 101.719 29.3344 101.719 28.2188C100.203 28.2188 98.6869 28.2188 97.125 28.2188C97.2694 27.6412 97.4137 27.0638 97.5625 26.4688C97.608 25.9983 97.6389 25.5261 97.6531 25.0537C97.6615 24.8027 97.67 24.5518 97.6787 24.2932C97.6855 24.0366 97.6922 23.78 97.6992 23.5156C97.7077 23.2523 97.7161 22.9889 97.7249 22.7175C97.7453 22.0722 97.7635 21.4267 97.7812 20.7812C99.0084 20.7812 100.236 20.7812 101.5 20.7812C101.5 19.6984 101.5 18.6156 101.5 17.5C87.7844 17.5 74.0687 17.5 59.9375 17.5C59.9375 18.5828 59.9375 19.6656 59.9375 20.7812C61.2369 20.7812 62.5363 20.7812 63.875 20.7812C63.8883 21.2082 63.9015 21.6351 63.9152 22.075C63.9336 22.6372 63.9521 23.1995 63.9707 23.7617C63.9793 24.0429 63.9879 24.324 63.9968 24.6136C64.0059 24.8858 64.0151 25.1579 64.0245 25.4382C64.0326 25.688 64.0406 25.9377 64.0488 26.195C64.0882 27.0104 64.0882 27.0104 64.3125 28.2188C62.8688 28.2188 61.425 28.2188 59.9375 28.2188C59.9375 29.3016 59.9375 30.3844 59.9375 31.5C61.2369 31.5 62.5363 31.5 63.875 31.5C63.8883 31.9269 63.9015 32.3538 63.9152 32.7937C63.9336 33.356 63.9521 33.9182 63.9707 34.4805C63.9793 34.7616 63.9879 35.0427 63.9968 35.3324C64.0059 35.6045 64.0151 35.8766 64.0245 36.157C64.0326 36.4067 64.0406 36.6564 64.0488 36.9137C64.0882 37.7292 64.0882 37.7292 64.3125 38.9375C58.7541 38.9375 53.1956 38.9375 47.4688 38.9375C47.5508 32.9629 47.5508 32.9629 47.6007 31.0913C47.7394 28.2816 47.7394 28.2816 46.6324 25.8276C46.0088 25.2849 45.3283 24.8752 44.5965 24.4946C43.5194 23.9328 42.5271 23.2774 41.7812 22.3125C41.5011 21.1591 41.5503 20.078 41.6309 18.9082C41.643 18.6011 41.6539 18.2939 41.6638 17.9866C41.692 17.2406 41.7351 16.4951 41.7812 15.75C40.6984 15.75 39.6156 15.75 38.5 15.75C38.5406 16.2065 38.5812 16.6631 38.623 17.1334C38.9428 21.7575 38.9428 21.7575 38.1565 23.1315C37.2587 24.127 36.1905 24.7784 35 25.375C34.4024 25.0941 33.8941 24.7864 33.3773 24.3761C33.243 24.2699 33.1086 24.1638 32.9702 24.0544C32.8324 23.9443 32.6947 23.8342 32.5527 23.7207C32.4124 23.6097 32.2722 23.4988 32.1276 23.3845C31.1037 22.5725 31.1037 22.5725 30.8438 22.3125C30.8245 21.8272 30.8204 21.3413 30.8224 20.8556C30.8227 20.7102 30.823 20.5649 30.8233 20.4151C30.8246 19.9493 30.8273 19.4834 30.8301 19.0176C30.8312 18.7024 30.8322 18.3872 30.8331 18.0721C30.8353 17.298 30.8396 16.524 30.8438 15.75C29.7609 15.75 28.6781 15.75 27.5625 15.75C27.6196 16.4386 27.6196 16.4386 27.6779 17.1411C28.0082 22.2428 28.0082 22.2428 26.855 23.5583C25.8919 24.3968 24.8369 24.971 23.625 25.375C23.2327 25.1423 23.2327 25.1423 22.803 24.782C22.6482 24.654 22.4934 24.5259 22.3339 24.394C22.1734 24.2576 22.013 24.1211 21.8477 23.9805C21.6855 23.8457 21.5234 23.7109 21.3563 23.572C20.2109 22.6172 20.2109 22.6172 19.9062 22.3125C19.887 21.8272 19.8829 21.3413 19.8849 20.8556C19.8852 20.7102 19.8855 20.5649 19.8858 20.4151C19.8871 19.9493 19.8898 19.4834 19.8926 19.0176C19.8937 18.7024 19.8947 18.3872 19.8956 18.0721C19.8978 17.298 19.9021 16.524 19.9062 15.75C18.8234 15.75 17.7406 15.75 16.625 15.75C16.6605 16.2116 16.6961 16.6732 16.7327 17.1488C17.043 22.2649 17.043 22.2649 16.02 23.4558C15.4171 23.9705 14.7569 24.3239 14.0502 24.6756C12.2328 25.642 12.2328 25.642 11.1744 27.3177C11.1012 28.0657 11.0946 28.7867 11.1135 29.5381C11.1118 29.8075 11.11 30.0769 11.1082 30.3545C11.1049 31.2107 11.1167 32.0658 11.1289 32.9219C11.1306 33.5041 11.1288 34.0862 11.1272 34.6685C11.1236 36.0921 11.1404 37.5134 11.1562 38.9375C8.5575 38.9375 5.95875 38.9375 3.28125 38.9375C3.28125 29.3366 3.28125 19.7356 3.28125 9.84375Z" fill="#EDEDED"/>
<path d="M3.28125 42.2188C38.0756 42.2188 72.87 42.2188 108.719 42.2188C108.719 51.8919 108.719 61.565 108.719 71.5312C105.47 71.5312 102.222 71.5312 98.875 71.5312C98.8947 70.7552 98.9145 69.9792 98.9348 69.1797C99.2658 61.6237 99.2658 61.6237 95.9459 55.1096C93.516 52.197 94.9375 50.5253 94.9375 45.5C89.4513 45.5 83.965 45.5 78.3125 45.5C78.3125 48.2431 78.3125 50.9862 78.3125 53.8125C76.5048 57.5191 76.5048 57.5191 75.3573 59.0602C74.8343 59.7658 74.782 60.1819 74.7676 61.0514C74.7632 61.2835 74.7589 61.5156 74.7544 61.7547C74.7507 62.0061 74.7471 62.2574 74.7433 62.5164C74.7365 62.9014 74.7365 62.9014 74.7295 63.2943C74.7152 64.1168 74.7023 64.9392 74.6895 65.7617C74.68 66.3183 74.6705 66.8748 74.6608 67.4314C74.6372 68.798 74.6155 70.1646 74.5938 71.5312C72.4281 71.5312 70.2625 71.5312 68.0312 71.5312C68.0535 70.7445 68.0758 69.9578 68.0988 69.1472C68.3631 60.9747 68.3631 60.9747 64.5312 54.0312C64.4591 53.9591 64.3869 53.8869 64.3125 53.8125C64.3125 51.0694 64.3125 48.3263 64.3125 45.5C58.8263 45.5 53.34 45.5 47.6875 45.5C47.6875 48.2431 47.6875 50.9862 47.6875 53.8125C46.1532 56.9874 46.1532 56.9874 45.1793 58.191C44.4746 59.1025 44.1066 59.7597 44.0929 60.9273C44.0864 61.2819 44.0864 61.2819 44.0798 61.6437C44.0784 61.8964 44.077 62.1491 44.0756 62.4095C44.0716 62.6702 44.0677 62.9308 44.0637 63.1994C44.0518 64.0307 44.0444 64.862 44.0371 65.6934C44.0299 66.2575 44.0223 66.8216 44.0145 67.3857C43.9953 68.7675 43.9822 70.1493 43.9688 71.5312C41.8031 71.5312 39.6375 71.5312 37.4062 71.5312C37.4206 70.3444 37.4206 70.3444 37.4353 69.1335C37.4371 68.3537 37.4352 67.574 37.433 66.7942C37.4334 66.2587 37.4376 65.7233 37.446 65.1879C37.5004 61.4931 37.1118 59.0457 35 56C33.6875 53.8125 33.6875 53.8125 33.6875 45.5C28.2013 45.5 22.715 45.5 17.0625 45.5C17.0625 48.1709 17.0625 50.8419 17.0625 53.5938C16.0337 55.7037 15.152 57.4523 13.7812 59.2812C13.3002 60.0028 13.286 60.2359 13.274 61.0763C13.2697 61.3083 13.2653 61.5404 13.2608 61.7795C13.257 62.1548 13.257 62.1548 13.2532 62.5377C13.2489 62.7941 13.2447 63.0505 13.2403 63.3147C13.2272 64.1349 13.2171 64.9551 13.207 65.7754C13.1987 66.331 13.1901 66.8865 13.1814 67.4421C13.16 68.8051 13.1426 70.1681 13.125 71.5312C9.87656 71.5312 6.62813 71.5312 3.28125 71.5312C3.28125 61.8581 3.28125 52.185 3.28125 42.2188Z" fill="#ECECEC"/>
<path d="M8.09375 92.3125C11.7753 92.3125 15.4569 92.3125 19.25 92.3125C19.25 93.1788 19.25 94.045 19.25 94.9375C20.2606 94.9375 21.2712 94.9375 22.3125 94.9375C22.3125 94.0712 22.3125 93.205 22.3125 92.3125C23.4675 92.3125 24.6225 92.3125 25.8125 92.3125C25.8125 93.1788 25.8125 94.045 25.8125 94.9375C45.7363 94.9375 65.66 94.9375 86.1875 94.9375C86.1875 94.0712 86.1875 93.205 86.1875 92.3125C87.3425 92.3125 88.4975 92.3125 89.6875 92.3125C89.6875 93.1788 89.6875 94.045 89.6875 94.9375C90.6981 94.9375 91.7087 94.9375 92.75 94.9375C92.75 94.0712 92.75 93.205 92.75 92.3125C96.4316 92.3125 100.113 92.3125 103.906 92.3125C103.906 93.1788 103.906 94.045 103.906 94.9375C105.494 94.9375 107.082 94.9375 108.719 94.9375C108.719 96.5978 108.719 98.2581 108.719 99.9688C100.056 99.9688 91.3937 99.9688 82.4688 99.9688C82.4688 100.546 82.4688 101.124 82.4688 101.719C81.3859 101.719 80.3031 101.719 79.1875 101.719C79.1875 101.141 79.1875 100.564 79.1875 99.9688C54.1384 99.9688 29.0894 99.9688 3.28125 99.9688C3.28125 98.3084 3.28125 96.6481 3.28125 94.9375C4.86938 94.9375 6.4575 94.9375 8.09375 94.9375C8.09375 94.0712 8.09375 93.205 8.09375 92.3125Z" fill="#D9380E"/>
<path d="M79.1875 101.719C80.2703 101.719 81.3531 101.719 82.4688 101.719C82.4688 102.224 82.4688 102.729 82.4688 103.25C89.4709 103.25 96.4731 103.25 103.688 103.25C103.688 105.055 103.688 106.859 103.688 108.719C81.0928 108.719 58.4981 108.719 35.2188 108.719C35.2188 109.296 35.2188 109.874 35.2188 110.469C34.1359 110.469 33.0531 110.469 31.9375 110.469C31.9375 109.891 31.9375 109.314 31.9375 108.719C24.1413 108.719 16.345 108.719 8.3125 108.719C8.3125 106.914 8.3125 105.109 8.3125 103.25C31.7012 103.25 55.09 103.25 79.1875 103.25C79.1875 102.745 79.1875 102.239 79.1875 101.719Z" fill="#606060"/>
<path d="M70.4375 1.53125C71.5203 1.53125 72.6031 1.53125 73.7188 1.53125C73.7188 2.10875 73.7188 2.68625 73.7188 3.28125C85.2687 3.28125 96.8187 3.28125 108.719 3.28125C108.719 4.36406 108.719 5.44688 108.719 6.5625C73.9244 6.5625 39.13 6.5625 3.28125 6.5625C3.28125 5.47969 3.28125 4.39687 3.28125 3.28125C25.4428 3.28125 47.6044 3.28125 70.4375 3.28125C70.4375 2.70375 70.4375 2.12625 70.4375 1.53125Z" fill="#E36949"/>
<path d="M47.0312 62.125C50.3519 62.125 53.6725 62.125 57.0938 62.125C57.0938 65.2291 57.0938 68.3331 57.0938 71.5312C53.7731 71.5312 50.4525 71.5312 47.0312 71.5312C47.0312 68.4272 47.0312 65.3231 47.0312 62.125Z" fill="#99C8E4"/>
<path d="M40.3716 25.3555C41.8189 25.9988 43.143 26.83 43.9674 28.2175C44.4644 30.0009 44.2559 31.9143 44.1588 33.741C44.1434 34.2454 44.1295 34.7498 44.117 35.2543C44.086 36.4837 44.0262 37.7067 43.9674 38.9363C41.4409 38.9363 38.9143 38.9363 36.3112 38.9363C36.2302 37.4594 36.1609 35.9903 36.1189 34.513C36.1014 34.0122 36.0776 33.5117 36.0471 33.0116C35.8087 28.9956 35.8087 28.9956 36.6484 27.6954C37.5855 26.6527 38.9027 25.4035 40.3716 25.3555Z" fill="#F8ED92"/>
<path d="M18.8113 25.594C19.1883 25.8363 19.1883 25.8363 19.559 26.1341C19.7605 26.2944 19.7605 26.2944 19.9662 26.4579C20.1039 26.5699 20.2417 26.6818 20.3836 26.7971C20.5239 26.9091 20.6642 27.021 20.8087 27.1364C21.817 27.9434 21.817 27.9434 22.0926 28.219C22.113 28.5548 22.1183 28.8914 22.1174 29.2278C22.1174 29.4424 22.1174 29.657 22.1174 29.878C22.1162 30.1114 22.1151 30.3447 22.1139 30.5851C22.1136 30.8227 22.1133 31.0603 22.113 31.3051C22.1118 32.0674 22.109 32.8298 22.1062 33.5921C22.1051 34.1075 22.1041 34.6229 22.1033 35.1383C22.101 36.4048 22.0967 37.6713 22.0926 38.9378C19.566 38.9378 17.0394 38.9378 14.4363 38.9378C14.3554 37.4609 14.286 35.9918 14.2441 34.5144C14.2266 34.0137 14.2028 33.5132 14.1723 33.0131C13.9334 28.9897 13.9334 28.9897 14.777 27.6969C15.749 26.6262 17.2734 25.0295 18.8113 25.594Z" fill="#F8ED92"/>
<path d="M29.9674 25.5943C30.4664 25.9677 30.4664 25.9677 30.9518 26.4283C31.677 27.1139 31.677 27.1139 32.5076 27.6587C33.3374 28.5493 33.1655 29.4768 33.1367 30.6495C33.1352 30.8862 33.1336 31.1228 33.132 31.3667C33.1259 32.1224 33.1122 32.8778 33.0983 33.6334C33.0928 34.1458 33.0878 34.6582 33.0833 35.1706C33.0722 36.4267 33.0508 37.682 33.0299 38.9381C30.5034 38.9381 27.9768 38.9381 25.3737 38.9381C25.2927 37.4612 25.2234 35.9921 25.1814 34.5147C25.1639 34.014 25.1401 33.5135 25.1096 33.0134C24.8712 28.9973 24.8712 28.9973 25.7109 27.6972C26.7164 26.5784 28.3612 24.907 29.9674 25.5943Z" fill="#F9EE92"/>
<path d="M77.875 62.125C81.1234 62.125 84.3719 62.125 87.7188 62.125C87.7188 65.2291 87.7188 68.3331 87.7188 71.5312C84.4703 71.5312 81.2219 71.5312 77.875 71.5312C77.875 68.4272 77.875 65.3231 77.875 62.125Z" fill="#9DCEEA"/>
<path d="M16.4062 62.125C19.6547 62.125 22.9031 62.125 26.25 62.125C26.25 65.2291 26.25 68.3331 26.25 71.5312C23.0016 71.5312 19.7531 71.5312 16.4062 71.5312C16.4062 68.4272 16.4062 65.3231 16.4062 62.125Z" fill="#9ECEEB"/>
<path d="M59.9375 31.5C61.2369 31.5 62.5363 31.5 63.875 31.5C63.8883 31.9269 63.9015 32.3538 63.9152 32.7937C63.9336 33.356 63.9521 33.9182 63.9707 34.4805C63.9793 34.7616 63.9879 35.0427 63.9968 35.3324C64.0059 35.6045 64.0151 35.8766 64.0245 36.157C64.0326 36.4067 64.0406 36.6564 64.0488 36.9137C64.0882 37.7292 64.0882 37.7292 64.3125 38.9375C58.7541 38.9375 53.1956 38.9375 47.4688 38.9375C47.4688 37.3494 47.4688 35.7613 47.4688 34.125C52.8106 34.125 58.1525 34.125 63.6562 34.125C63.6562 33.3309 63.6562 32.5369 63.6562 31.7188C62.4291 31.7188 61.2019 31.7188 59.9375 31.7188C59.9375 31.6466 59.9375 31.5744 59.9375 31.5Z" fill="#DDDDDD"/>
<path d="M62.3451 57.3125C63.4999 57.6974 64.0109 58.8762 64.5462 59.9161C65.4433 61.9716 65.1708 64.3092 65.0932 66.5C65.0833 66.9899 65.0743 67.4798 65.0663 67.9697C65.0465 69.1578 65.008 70.3431 64.9701 71.5312C63.382 71.5312 61.7939 71.5312 60.1576 71.5312C60.1069 70.103 60.0636 68.6779 60.0375 67.2494C60.0266 66.7655 60.0117 66.2816 59.9926 65.7979C59.8601 62.3564 60.2311 60.0827 62.3451 57.3125Z" fill="#C2E3F7"/>
<path d="M93.1856 57.0938C93.4776 57.458 93.7692 57.8227 94.0606 58.1875C94.1982 58.3482 94.3358 58.5088 94.4776 58.6743C96.1362 60.9655 95.7592 63.6354 95.6875 66.3359C95.6798 66.8404 95.6728 67.3448 95.6666 67.8492C95.6511 69.0771 95.6212 70.3033 95.5918 71.5312C94.0759 71.5312 92.5599 71.5312 90.9981 71.5312C90.9474 70.0718 90.904 68.6156 90.8779 67.156C90.867 66.6614 90.8522 66.1669 90.833 65.6726C90.7023 62.2015 91.0421 59.885 93.1856 57.0938Z" fill="#C2E3F7"/>
<path d="M31.7183 57.3125C31.8627 57.3125 32.007 57.3125 32.1558 57.3125C34.3428 60.234 34.3709 62.8363 34.2476 66.3906C34.2377 66.8911 34.2287 67.3915 34.2207 67.892C34.2009 69.1059 34.1624 70.3172 34.1245 71.5312C32.6086 71.5312 31.0927 71.5312 29.5308 71.5312C29.4801 70.0678 29.4368 68.6076 29.4106 67.144C29.3997 66.6479 29.3849 66.1519 29.3658 65.6561C29.2413 62.3395 29.4135 59.8542 31.7183 57.3125Z" fill="#C2E3F7"/>
<path d="M66.9373 31.5C69.5361 31.5 72.1348 31.5 74.8123 31.5C74.8304 32.3753 74.8484 33.2505 74.867 34.1523C74.875 34.4259 74.883 34.6995 74.8912 34.9813C74.914 37.268 74.914 37.268 73.9373 38.2812C72.9764 39.1046 71.9717 39.0434 70.7655 39.0332C70.5813 39.0376 70.3972 39.0419 70.2075 39.0464C69.3506 39.0458 68.8131 39.0063 68.0516 38.5897C66.7952 37.1435 66.8523 35.7544 66.8963 33.9199C66.9099 33.1213 66.9234 32.3228 66.9373 31.5Z" fill="#DC6647"/>
<path d="M86.8442 31.5C89.3708 31.5 91.8973 31.5 94.5005 31.5C94.5185 32.3753 94.5365 33.2505 94.5551 34.1523C94.5631 34.4259 94.5711 34.6995 94.5793 34.9813C94.6021 37.268 94.6021 37.268 93.6255 38.2812C92.6645 39.1046 91.6598 39.0434 90.4536 39.0332C90.2694 39.0376 90.0853 39.0419 89.8956 39.0464C89.0166 39.0458 88.4992 39.009 87.726 38.5624C86.9283 37.6649 86.7894 36.8447 86.8015 35.6656C86.8026 35.4463 86.8037 35.227 86.8048 35.001C86.8088 34.7255 86.8128 34.4499 86.8169 34.166C86.8259 33.2862 86.8349 32.4064 86.8442 31.5Z" fill="#E06848"/>
<path d="M67.1552 20.7812C69.6817 20.7812 72.2083 20.7812 74.8114 20.7812C74.8295 21.6565 74.8475 22.5318 74.8661 23.4336C74.8741 23.7072 74.882 23.9807 74.8902 24.2626C74.9131 26.5493 74.9131 26.5493 73.9364 27.5625C73.012 28.3326 72.1469 28.3188 70.997 28.3008C70.7548 28.3046 70.7548 28.3046 70.5078 28.3085C69.4574 28.3029 68.7057 28.1658 67.8114 27.5625C67.1947 26.7293 67.0759 26.1452 67.0911 25.1178C67.0927 24.8896 67.0944 24.6614 67.096 24.4262C67.102 24.1393 67.108 23.8523 67.1141 23.5566C67.1277 22.6408 67.1412 21.7249 67.1552 20.7812Z" fill="#E06848"/>
<path d="M86.8454 20.7812C89.372 20.7812 91.8985 20.7812 94.5017 20.7812C94.5197 21.6565 94.5378 22.5318 94.5564 23.4336C94.5643 23.7072 94.5723 23.9807 94.5805 24.2626C94.6033 26.5493 94.6033 26.5493 93.6267 27.5625C92.6814 28.3626 91.7455 28.318 90.5642 28.3008C90.3905 28.3033 90.2168 28.3059 90.0378 28.3085C89.0245 28.3034 88.2967 28.2553 87.5017 27.5625C86.5775 26.3396 86.7725 24.8926 86.8044 23.4336C86.8179 22.5583 86.8315 21.683 86.8454 20.7812Z" fill="#E16849"/>
<path d="M97.7812 34.125C101.391 34.125 105 34.125 108.719 34.125C108.719 35.7131 108.719 37.3012 108.719 38.9375C104.893 38.9375 101.067 38.9375 97.125 38.9375C97.2694 38.36 97.4137 37.7825 97.5625 37.1875C97.6347 36.1769 97.7069 35.1663 97.7812 34.125Z" fill="#DFDFDF"/>
<path d="M98.875 66.5C102.123 66.5 105.372 66.5 108.719 66.5C108.719 68.1603 108.719 69.8206 108.719 71.5312C105.47 71.5312 102.222 71.5312 98.875 71.5312C98.875 69.8709 98.875 68.2106 98.875 66.5Z" fill="#DCDCDC"/>
<path d="M3.28125 66.5C6.52969 66.5 9.77812 66.5 13.125 66.5C13.125 68.1603 13.125 69.8206 13.125 71.5312C9.87656 71.5312 6.62813 71.5312 3.28125 71.5312C3.28125 69.8709 3.28125 68.2106 3.28125 66.5Z" fill="#DCDCDC"/>
<path d="M78.0938 20.7812C79.8984 20.7812 81.7031 20.7812 83.5625 20.7812C83.5758 21.2082 83.589 21.6351 83.6027 22.075C83.6211 22.6372 83.6396 23.1995 83.6582 23.7617C83.6668 24.0429 83.6754 24.324 83.6843 24.6136C83.6934 24.8858 83.7026 25.1579 83.712 25.4382C83.7201 25.688 83.7281 25.9377 83.7363 26.195C83.7757 27.0104 83.7757 27.0104 84 28.2188C81.8344 28.2188 79.6687 28.2188 77.4375 28.2188C77.5819 27.6412 77.7262 27.0638 77.875 26.4688C77.9205 25.9983 77.9514 25.5261 77.9656 25.0537C77.974 24.8027 77.9825 24.5518 77.9912 24.2932C77.998 24.0366 78.0047 23.78 78.0117 23.5156C78.0202 23.2523 78.0286 22.9889 78.0374 22.7175C78.0578 22.0722 78.076 21.4267 78.0938 20.7812Z" fill="#EAEAEA"/>
<path d="M78.0938 31.5C79.8984 31.5 81.7031 31.5 83.5625 31.5C83.5758 31.9453 83.589 32.3905 83.6027 32.8492C83.6164 33.2829 83.6301 33.7166 83.6439 34.1503C83.6534 34.4505 83.6625 34.7507 83.6713 35.0509C83.684 35.4837 83.698 35.9165 83.712 36.3492C83.7201 36.6093 83.7281 36.8693 83.7363 37.1372C83.7699 37.9136 83.7699 37.9136 84 38.9375C81.8344 38.9375 79.6687 38.9375 77.4375 38.9375C77.5819 38.36 77.7262 37.7825 77.875 37.1875C77.9205 36.7171 77.9514 36.2449 77.9656 35.7725C77.974 35.5215 77.9825 35.2705 77.9912 35.012C77.998 34.7554 78.0047 34.4988 78.0117 34.2344C78.0202 33.971 78.0286 33.7076 78.0374 33.4363C78.0578 32.7909 78.076 32.1455 78.0938 31.5Z" fill="#DBDBDB"/>
<path d="M77.875 62.3438C81.0513 62.3438 84.2275 62.3438 87.5 62.3438C87.5 63.7153 87.5 65.0869 87.5 66.5C84.3237 66.5 81.1475 66.5 77.875 66.5C77.875 65.1284 77.875 63.7569 77.875 62.3438Z" fill="#C4E5F9"/>
<path d="M47.25 62.3438C50.4263 62.3438 53.6025 62.3438 56.875 62.3438C56.875 63.7153 56.875 65.0869 56.875 66.5C53.6987 66.5 50.5225 66.5 47.25 66.5C47.25 65.1284 47.25 63.7569 47.25 62.3438Z" fill="#C4E5F9"/>
<path d="M16.625 62.3438C19.8013 62.3438 22.9775 62.3438 26.25 62.3438C26.25 63.7153 26.25 65.0869 26.25 66.5C23.0737 66.5 19.8975 66.5 16.625 66.5C16.625 65.1284 16.625 63.7569 16.625 62.3438Z" fill="#C4E5F9"/>
<path d="M14.8768 27.7812C15.0212 27.8534 15.1656 27.9256 15.3143 28C15.17 28.1444 15.0256 28.2887 14.8768 28.4375C14.7954 29.0317 14.7954 29.0317 14.7863 29.7244C14.7785 29.9542 14.7707 30.1841 14.7626 30.4209C14.7552 30.7138 14.7478 31.0068 14.7401 31.3086C14.713 32.238 14.686 33.1674 14.6581 34.125C17.1125 34.125 19.5668 34.125 22.0956 34.125C22.0956 35.7131 22.0956 37.3012 22.0956 38.9375C19.569 38.9375 17.0425 38.9375 14.4393 38.9375C14.4293 37.419 14.4206 35.9005 14.4153 34.382C14.4131 33.8651 14.4101 33.3482 14.4063 32.8313C14.401 32.0896 14.3985 31.3479 14.3966 30.6062C14.3943 30.374 14.3921 30.1418 14.3898 29.9026C14.3897 29.688 14.3897 29.4734 14.3897 29.2524C14.3882 28.9682 14.3882 28.9682 14.3867 28.6783C14.4393 28.2188 14.4393 28.2188 14.8768 27.7812Z" fill="#F5E668"/>
<path d="M36.3125 28.2188C36.3847 28.2188 36.4569 28.2188 36.5312 28.2188C36.5312 30.1678 36.5312 32.1169 36.5312 34.125C38.9856 34.125 41.44 34.125 43.9688 34.125C43.9688 35.7131 43.9688 37.3012 43.9688 38.9375C41.4422 38.9375 38.9156 38.9375 36.3125 38.9375C36.3125 35.4003 36.3125 31.8631 36.3125 28.2188Z" fill="#F3E366"/>
<path d="M25.375 28.2188C25.4472 28.2188 25.5194 28.2188 25.5938 28.2188C25.5938 30.1678 25.5938 32.1169 25.5938 34.125C28.0481 34.125 30.5025 34.125 33.0312 34.125C33.0312 35.7131 33.0312 37.3012 33.0312 38.9375C30.5047 38.9375 27.9781 38.9375 25.375 38.9375C25.375 35.4003 25.375 31.8631 25.375 28.2188Z" fill="#F4E467"/>
<path d="M3.28125 34.125C5.88 34.125 8.47875 34.125 11.1562 34.125C11.1562 35.7131 11.1562 37.3012 11.1562 38.9375C8.5575 38.9375 5.95875 38.9375 3.28125 38.9375C3.28125 37.3494 3.28125 35.7613 3.28125 34.125Z" fill="#DFDFDF"/>
<path d="M92.75 79.1875C96.4316 79.1875 100.113 79.1875 103.906 79.1875C103.906 80.2703 103.906 81.3531 103.906 82.4688C100.225 82.4688 96.5431 82.4688 92.75 82.4688C92.75 81.3859 92.75 80.3031 92.75 79.1875Z" fill="#070302"/>
<path d="M8.09375 79.1875C11.7753 79.1875 15.4569 79.1875 19.25 79.1875C19.25 80.2703 19.25 81.3531 19.25 82.4688C15.5684 82.4688 11.8869 82.4688 8.09375 82.4688C8.09375 81.3859 8.09375 80.3031 8.09375 79.1875Z" fill="#070302"/>
<path d="M92.75 92.3125C96.3594 92.3125 99.9688 92.3125 103.688 92.3125C103.688 93.3953 103.688 94.4781 103.688 95.5938C100.078 95.5938 96.4688 95.5938 92.75 95.5938C92.75 94.5109 92.75 93.4281 92.75 92.3125Z" fill="#030100"/>
<path d="M8.3125 92.3125C11.9219 92.3125 15.5312 92.3125 19.25 92.3125C19.25 93.3953 19.25 94.4781 19.25 95.5938C15.6406 95.5938 12.0312 95.5938 8.3125 95.5938C8.3125 94.5109 8.3125 93.4281 8.3125 92.3125Z" fill="#030100"/>
<path d="M86.1875 85.75C89.7969 85.75 93.4062 85.75 97.125 85.75C97.125 86.8328 97.125 87.9156 97.125 89.0312C93.5156 89.0312 89.9062 89.0312 86.1875 89.0312C86.1875 87.9484 86.1875 86.8656 86.1875 85.75Z" fill="#040201"/>
<path d="M14.875 85.75C18.4844 85.75 22.0938 85.75 25.8125 85.75C25.8125 86.8328 25.8125 87.9156 25.8125 89.0312C22.2031 89.0312 18.5938 89.0312 14.875 89.0312C14.875 87.9484 14.875 86.8656 14.875 85.75Z" fill="#040201"/>
<path d="M68.0312 59.9375C68.1034 59.9375 68.1756 59.9375 68.25 59.9375C68.25 62.1031 68.25 64.2688 68.25 66.5C70.2712 66.5 72.2925 66.5 74.375 66.5C74.375 64.4066 74.375 62.3131 74.375 60.1562C74.4472 60.1562 74.5194 60.1562 74.5938 60.1562C74.5938 63.91 74.5938 67.6637 74.5938 71.5312C72.4281 71.5312 70.2625 71.5312 68.0312 71.5312C68.0312 67.7053 68.0312 63.8794 68.0312 59.9375Z" fill="#CECECE"/>
<path d="M43.75 59.9375C43.8222 59.9375 43.8944 59.9375 43.9688 59.9375C43.9688 63.7634 43.9688 67.5894 43.9688 71.5312C41.8031 71.5312 39.6375 71.5312 37.4062 71.5312C37.4062 67.7775 37.4062 64.0238 37.4062 60.1562C37.4784 60.1562 37.5506 60.1562 37.625 60.1562C37.625 62.2497 37.625 64.3431 37.625 66.5C39.6462 66.5 41.6675 66.5 43.75 66.5C43.75 64.3344 43.75 62.1687 43.75 59.9375Z" fill="#CECECE"/>
<path d="M55.1113 55.1784C55.5575 55.1916 56.0037 55.2036 56.4499 55.2143C57.5404 55.2431 58.6292 55.2884 59.7188 55.3425C59.6567 55.4947 59.5947 55.6469 59.5308 55.8037C59.2715 56.4375 59.2715 56.4375 59.0723 57.1115C58.7267 57.9573 58.4368 58.4498 57.75 59.0612C56.2178 59.5145 54.5252 59.3057 52.9512 59.2253C52.505 59.2121 52.0588 59.2001 51.6126 59.1894C50.5221 59.1605 49.4333 59.1153 48.3438 59.0612C48.4058 58.909 48.4678 58.7568 48.5317 58.6C48.791 57.9661 48.791 57.9661 48.9902 57.2922C50.1316 54.4984 52.53 55.0465 55.1113 55.1784Z" fill="#B7D6E9"/>
<path d="M80.9375 55.3438C84.0416 55.3438 87.1456 55.3438 90.3438 55.3438C90.1994 55.7047 90.055 56.0656 89.9062 56.4375C89.836 56.6603 89.7658 56.8832 89.6934 57.1128C89.3468 57.9524 89.0543 58.4511 88.375 59.0625C86.8793 59.5137 85.2237 59.3071 83.6855 59.2266C83.2499 59.2134 82.8143 59.2014 82.3786 59.1907C81.314 59.1618 80.2511 59.1166 79.1875 59.0625C79.4062 58.1875 79.4062 58.1875 80.9375 55.3438Z" fill="#B8D6E9"/>
<path d="M24.377 55.1811C24.8126 55.1943 25.2482 55.2063 25.6839 55.217C26.7485 55.2459 27.8114 55.2911 28.875 55.3452C28.6562 56.2202 28.6562 56.2202 27.125 59.0639C24.0209 59.0639 20.9169 59.0639 17.7188 59.0639C17.8631 58.703 18.0075 58.3421 18.1562 57.9702C18.2265 57.7473 18.2967 57.5245 18.3691 57.2949C19.5104 54.5301 21.809 55.0466 24.377 55.1811Z" fill="#B8D6E9"/>
<path d="M81.8125 48.7812C85.0609 48.7812 88.3094 48.7812 91.6562 48.7812C91.6562 49.8641 91.6562 50.9469 91.6562 52.0625C88.4078 52.0625 85.1594 52.0625 81.8125 52.0625C81.8125 50.9797 81.8125 49.8969 81.8125 48.7812Z" fill="#5D5D5D"/>
<path d="M20.3438 48.7812C23.5922 48.7812 26.8406 48.7812 30.1875 48.7812C30.1875 49.8641 30.1875 50.9469 30.1875 52.0625C26.9391 52.0625 23.6906 52.0625 20.3438 52.0625C20.3438 50.9797 20.3438 49.8969 20.3438 48.7812Z" fill="#5D5D5D"/>
<path d="M51.1875 49C54.3638 49 57.54 49 60.8125 49C60.8125 50.0106 60.8125 51.0212 60.8125 52.0625C57.6362 52.0625 54.46 52.0625 51.1875 52.0625C51.1875 51.0519 51.1875 50.0413 51.1875 49Z" fill="#616161"/>
<path d="M60.1562 61.0312C60.2284 61.0312 60.3006 61.0312 60.375 61.0312C60.375 62.8359 60.375 64.6406 60.375 66.5C61.8187 66.5 63.2625 66.5 64.75 66.5C64.75 64.6953 64.75 62.8906 64.75 61.0312C64.8222 61.0312 64.8944 61.0312 64.9688 61.0312C64.9688 64.4963 64.9688 67.9613 64.9688 71.5312C63.3806 71.5312 61.7925 71.5312 60.1562 71.5312C60.1562 68.0662 60.1562 64.6012 60.1562 61.0312Z" fill="#95C3DD"/>
<path d="M95.375 60.8125C95.4472 60.8125 95.5194 60.8125 95.5938 60.8125C95.5938 64.3497 95.5938 67.8869 95.5938 71.5312C94.0778 71.5312 92.5619 71.5312 91 71.5312C91 69.8709 91 68.2106 91 66.5C92.4437 66.5 93.8875 66.5 95.375 66.5C95.375 64.6231 95.375 62.7463 95.375 60.8125Z" fill="#A0D1EE"/>
<path d="M29.5312 60.8125C29.6034 60.8125 29.6756 60.8125 29.75 60.8125C29.75 62.6894 29.75 64.5662 29.75 66.5C31.1937 66.5 32.6375 66.5 34.125 66.5C34.125 68.1603 34.125 69.8206 34.125 71.5312C32.6091 71.5312 31.0931 71.5312 29.5312 71.5312C29.5312 67.9941 29.5312 64.4569 29.5312 60.8125Z" fill="#9ECFEB"/>
<path d="M78.0938 31.7188C79.8263 31.7188 81.5588 31.7188 83.3438 31.7188C83.3438 32.5128 83.3438 33.3069 83.3438 34.125C81.6112 34.125 79.8787 34.125 78.0938 34.125C78.0938 33.3309 78.0938 32.5369 78.0938 31.7188Z" fill="#EDEDED"/>
<path d="M86.1875 92.3125C87.2703 92.3125 88.3531 92.3125 89.4688 92.3125C89.4688 93.3953 89.4688 94.4781 89.4688 95.5938C88.3859 95.5938 87.3031 95.5938 86.1875 95.5938C86.1875 94.5109 86.1875 93.4281 86.1875 92.3125Z" fill="#060201"/>
<path d="M22.5312 92.3125C23.6141 92.3125 24.6969 92.3125 25.8125 92.3125C25.8125 93.3953 25.8125 94.4781 25.8125 95.5938C24.7297 95.5938 23.6469 95.5938 22.5312 95.5938C22.5312 94.5109 22.5312 93.4281 22.5312 92.3125Z" fill="#060201"/>
<path d="M100.406 85.75C101.489 85.75 102.572 85.75 103.688 85.75C103.688 86.8328 103.688 87.9156 103.688 89.0312C102.605 89.0312 101.522 89.0312 100.406 89.0312C100.406 87.9484 100.406 86.8656 100.406 85.75Z" fill="#FDF9F7"/>
<path d="M61.0312 85.75C62.1141 85.75 63.1969 85.75 64.3125 85.75C64.3125 86.8328 64.3125 87.9156 64.3125 89.0312C63.2297 89.0312 62.1469 89.0312 61.0312 89.0312C61.0312 87.9484 61.0312 86.8656 61.0312 85.75Z" fill="#FDF8F7"/>
<path d="M47.6875 85.75C48.7703 85.75 49.8531 85.75 50.9688 85.75C50.9688 86.8328 50.9688 87.9156 50.9688 89.0312C49.8859 89.0312 48.8031 89.0312 47.6875 89.0312C47.6875 87.9484 47.6875 86.8656 47.6875 85.75Z" fill="#FDF8F7"/>
<path d="M8.3125 85.75C9.39531 85.75 10.4781 85.75 11.5938 85.75C11.5938 86.8328 11.5938 87.9156 11.5938 89.0312C10.5109 89.0312 9.42812 89.0312 8.3125 89.0312C8.3125 87.9484 8.3125 86.8656 8.3125 85.75Z" fill="#FDF9F7"/>
<path d="M86.1875 79.1875C87.2703 79.1875 88.3531 79.1875 89.4688 79.1875C89.4688 80.2703 89.4688 81.3531 89.4688 82.4688C88.3859 82.4688 87.3031 82.4688 86.1875 82.4688C86.1875 81.3859 86.1875 80.3031 86.1875 79.1875Z" fill="#080302"/>
<path d="M22.5312 79.1875C23.6141 79.1875 24.6969 79.1875 25.8125 79.1875C25.8125 80.2703 25.8125 81.3531 25.8125 82.4688C24.7297 82.4688 23.6469 82.4688 22.5312 82.4688C22.5312 81.3859 22.5312 80.3031 22.5312 79.1875Z" fill="#080302"/>
<path d="M54.4688 85.75C55.4794 85.75 56.49 85.75 57.5312 85.75C57.5312 86.8328 57.5312 87.9156 57.5312 89.0312C56.5206 89.0312 55.51 89.0312 54.4688 89.0312C54.4688 87.9484 54.4688 86.8656 54.4688 85.75Z" fill="#FEFDFC"/>
</g>
<defs>
<clipPath id="clip0_3014_252">
<rect width="112" height="112" fill="white"/>
</clipPath>
</defs>
</svg>
