<svg width="112" height="112" viewBox="0 0 112 112" fill="none" xmlns="http://www.w3.org/2000/svg">
<g clip-path="url(#clip0_3014_313)">
<path d="M74.1836 -0.0953293C74.465 -0.0997 74.7464 -0.104071 75.0364 -0.108574C75.306 -0.108433 75.5755 -0.108292 75.8533 -0.108147C76.095 -0.108552 76.3367 -0.108957 76.5857 -0.109375C77.3574 0.0244132 77.5839 0.302288 78.0938 0.875374C78.5973 0.883665 78.5973 0.883665 79.1328 0.738655C81.7362 0.398478 84.6929 2.17166 86.8438 3.50037C87.2133 3.78573 87.5795 4.07564 87.9375 4.37537C87.8653 4.54231 87.7931 4.70924 87.7188 4.88123C87.4619 5.46709 87.4619 5.46709 87.5 6.12537C87.8856 6.5425 87.8856 6.5425 88.375 6.93201C88.5374 7.06821 88.6998 7.20441 88.8672 7.34473C88.9935 7.44766 89.1198 7.55058 89.25 7.65662C89.6109 7.36787 89.9719 7.07912 90.3438 6.78162C92.4717 7.5918 93.8605 10.714 94.7726 12.6751C96.2299 15.9646 96.7663 19.1359 96.7566 22.7097C96.7559 23.2386 96.761 23.7673 96.7665 24.2962C96.79 30.02 94.8827 34.9813 91.2188 39.3754C91.0967 39.4735 90.9746 39.5716 90.8488 39.6727C90.3616 40.2836 90.3258 41.0571 90.1934 41.809C89.5728 44.8916 88.1951 48.5277 85.5131 50.4147C84.8444 51.2988 84.9455 52.2409 84.9297 53.3207C84.9232 53.5358 84.9167 53.751 84.91 53.9727C84.8946 54.5028 84.8831 55.0326 84.875 55.5629C85.0344 55.5609 85.1938 55.559 85.358 55.557C86.8764 55.5393 88.3947 55.5261 89.9131 55.5175C90.6933 55.513 91.4735 55.5069 92.2536 55.4969C98.0892 55.4239 102.997 55.9138 107.406 60.1566C111.772 64.6929 112.135 69.6777 112.055 75.6879C112.05 76.2621 112.046 76.8363 112.043 77.4105C112.033 78.8051 112.019 80.1996 112 81.5941C111.495 81.5941 110.989 81.5941 110.469 81.5941C110.469 82.6047 110.469 83.6154 110.469 84.6566C110.974 84.6566 111.479 84.6566 112 84.6566C112 93.6801 112 102.703 112 112C75.04 112 38.08 112 0 112C0 107.236 0 102.472 0 97.5629C1.08281 97.5629 2.16563 97.5629 3.28125 97.5629C3.28125 88.1785 3.28125 78.7941 3.28125 69.1254C7.25156 69.1254 11.2219 69.1254 15.3125 69.1254C15.3125 67.3929 15.3125 65.6604 15.3125 63.8754C11.3422 63.8754 7.37188 63.8754 3.28125 63.8754C3.28125 58.3891 3.28125 52.9029 3.28125 47.2504C10.3556 47.2504 17.43 47.2504 24.7188 47.2504C24.7188 47.7557 24.7188 48.261 24.7188 48.7816C25.7294 48.7816 26.74 48.7816 27.7812 48.7816C27.7812 48.2763 27.7812 47.771 27.7812 47.2504C30.9575 47.2504 34.1337 47.2504 37.4062 47.2504C37.4062 52.7366 37.4062 58.2229 37.4062 63.8754C33.4359 63.8754 29.4656 63.8754 25.375 63.8754C25.375 65.6079 25.375 67.3404 25.375 69.1254C29.0566 69.1254 32.7381 69.1254 36.5312 69.1254C36.6034 68.5479 36.6756 67.9704 36.75 67.3754C37.944 63.3891 40.4622 59.7919 44.114 57.7222C44.4064 57.5657 44.6998 57.411 44.9941 57.2582C45.125 57.1888 45.2559 57.1193 45.3907 57.0478C47.9331 55.7958 50.5319 55.4314 53.3331 55.4774C53.6276 55.4791 53.9221 55.4803 54.2166 55.4812C54.9794 55.4845 55.742 55.493 56.5047 55.5028C57.2879 55.5119 58.0712 55.5158 58.8544 55.5201C60.3822 55.5294 61.9098 55.5443 63.4375 55.5629C63.4297 54.824 63.411 54.0858 63.3905 53.3472C63.3884 53.139 63.3864 52.9307 63.3842 52.7162C63.3396 51.3535 63.1845 50.6504 62.2207 49.6703C62.0236 49.4924 61.8265 49.3144 61.6234 49.1311C59.6231 47.2117 58.5868 44.2629 58.1738 41.5902C57.8897 40.162 57.2636 39.3273 56.307 38.287C52.6267 34.248 51.5284 28.8195 51.543 23.516C51.5431 23.3524 51.5432 23.1888 51.5433 23.0203C51.5651 16.5115 53.519 10.7939 58.1875 6.12537C62.6144 2.03797 68.1625 -0.12954 74.1836 -0.0953293Z" fill="#020201"/>
<path d="M6.5625 72.4062C25.0425 72.4062 43.5225 72.4062 62.5625 72.4062C62.5625 80.78 62.5625 89.1538 62.5625 97.7812C57.4372 97.7812 52.3119 97.7812 47.0312 97.7812C47.0312 98.7919 47.0312 99.8025 47.0312 100.844C53.2394 100.844 59.4475 100.844 65.8438 100.844C65.8438 104.525 65.8438 108.207 65.8438 112C45.1981 112 24.5525 112 3.28125 112C3.28125 108.318 3.28125 104.637 3.28125 100.844C16.6359 100.844 29.9906 100.844 43.75 100.844C43.75 99.8331 43.75 98.8225 43.75 97.7812C31.4781 97.7812 19.2062 97.7812 6.5625 97.7812C6.5625 96.6262 6.5625 95.4713 6.5625 94.2812C10.0997 94.2812 13.6369 94.2812 17.2812 94.2812C17.2812 93.2706 17.2812 92.26 17.2812 91.2188C13.7441 91.2188 10.2069 91.2188 6.5625 91.2188C6.5625 90.0637 6.5625 88.9088 6.5625 87.7188C8.65594 87.7188 10.7494 87.7188 12.9062 87.7188C12.9062 86.7081 12.9062 85.6975 12.9062 84.6562C10.8128 84.6562 8.71937 84.6562 6.5625 84.6562C6.5625 80.6138 6.5625 76.5713 6.5625 72.4062Z" fill="#99989C"/>
<path d="M89.9056 58.8438C91.4216 58.8438 92.9375 58.8438 94.4994 58.8438C94.4994 71.7653 94.4994 84.6869 94.4994 98C91.3953 98 88.2913 98 85.0931 98C85.0931 99.0106 85.0931 100.021 85.0931 101.062C88.1972 101.062 91.3013 101.062 94.4994 101.062C94.4994 102.218 94.4994 103.372 94.4994 104.562C92.8391 104.562 91.1788 104.562 89.4681 104.562C89.4681 105.573 89.4681 106.584 89.4681 107.625C91.1284 107.625 92.7888 107.625 94.4994 107.625C94.4994 109.069 94.4994 110.512 94.4994 112C86.0534 112 77.6075 112 68.9056 112C68.9056 107.308 68.9056 102.616 68.9056 97.7812C67.895 97.7812 66.8844 97.7812 65.8431 97.7812C65.4252 97.3633 65.5981 96.7448 65.5972 96.1887C65.598 95.9911 65.5987 95.7935 65.5996 95.5899C65.5995 95.3829 65.5995 95.1759 65.5995 94.9626C65.5996 94.2749 65.6013 93.5872 65.603 92.8995C65.6034 92.4241 65.6037 91.9487 65.604 91.4733C65.6048 90.2193 65.607 88.9653 65.6094 87.7113C65.6116 86.4327 65.6126 85.1542 65.6137 83.8757C65.6161 81.365 65.6198 78.8544 65.6244 76.3438C65.8662 76.343 66.108 76.3422 66.3571 76.3413C68.642 76.3332 70.9269 76.3206 73.2118 76.3035C74.3864 76.2949 75.5609 76.2879 76.7355 76.2845C77.8702 76.2811 79.0048 76.2736 80.1395 76.2632C80.5712 76.26 81.0029 76.2582 81.4346 76.258C84.9369 76.3176 84.9369 76.3176 88.0249 74.8356C88.1357 74.6971 88.2465 74.5587 88.3607 74.416C88.4755 74.2793 88.5902 74.1425 88.7085 74.0016C89.779 72.3348 89.7891 70.8996 89.7988 68.9481C89.8025 68.656 89.8065 68.364 89.8107 68.0719C89.8211 67.3077 89.8276 66.5436 89.8334 65.7794C89.8399 64.9977 89.8501 64.2161 89.8599 63.4345C89.8787 61.9043 89.8931 60.374 89.9056 58.8438Z" fill="#DF6848"/>
<path d="M43.75 99.3125C44.8328 99.3125 45.9156 99.3125 47.0312 99.3125C47.0312 99.8178 47.0312 100.323 47.0312 100.844C53.2394 100.844 59.4475 100.844 65.8438 100.844C65.8438 104.525 65.8438 108.207 65.8438 112C45.1981 112 24.5525 112 3.28125 112C3.28125 108.318 3.28125 104.637 3.28125 100.844C16.6359 100.844 29.9906 100.844 43.75 100.844C43.75 100.338 43.75 99.8331 43.75 99.3125Z" fill="#D0B57F"/>
<path d="M97.7812 59.0625C99.3125 59.3688 100.417 59.6131 101.746 60.3066C101.897 60.3847 102.049 60.4627 102.205 60.5431C105.232 62.1517 107.106 64.8356 108.281 68.0312C108.739 69.582 108.777 71.0726 108.761 72.6805C108.761 72.9302 108.76 73.1799 108.76 73.4372C108.757 74.2283 108.752 75.0194 108.746 75.8105C108.744 76.3496 108.742 76.8886 108.74 77.4277C108.735 78.7435 108.728 80.0592 108.719 81.375C109.296 81.375 109.874 81.375 110.469 81.375C110.469 82.4578 110.469 83.5406 110.469 84.6562C110.974 84.6562 111.479 84.6562 112 84.6562C112 93.6797 112 102.703 112 112C107.308 112 102.616 112 97.7812 112C97.7812 94.5306 97.7812 77.0612 97.7812 59.0625Z" fill="#E3E7EC"/>
<path d="M73.7042 3.15978C73.9684 3.14696 73.9684 3.14696 74.238 3.13388C75.4913 3.12825 75.4913 3.12825 76.0674 3.5842C76.2878 3.82123 76.5039 4.06225 76.7151 4.30753C76.9936 4.64563 76.9936 4.64563 77.5118 4.68334C77.6675 4.64979 77.8231 4.61623 77.9835 4.58166C78.1392 4.55205 78.2948 4.52244 78.4552 4.49194C78.832 4.40715 79.2067 4.31256 79.5797 4.21252C80.5029 4.14047 81.1605 4.44189 81.9757 4.82775C82.1285 4.89728 82.2814 4.96681 82.4388 5.03844C83.667 5.6082 84.8355 6.25843 85.9679 7.00158C86.2566 6.64064 86.5454 6.27971 86.8429 5.90783C88.0082 6.22563 88.6725 7.01932 89.4679 7.87658C89.0348 8.41799 89.0348 8.41799 88.5929 8.97033C88.8682 9.74412 89.1749 10.2825 89.714 10.8981C92.5958 14.5483 93.5006 18.8383 93.5148 23.3942C93.5162 23.6766 93.5176 23.959 93.519 24.25C93.4706 27.8757 92.4837 31.4724 90.5616 34.5641C90.4895 34.5641 90.4173 34.5641 90.3429 34.5641C90.3429 30.666 90.3429 26.7678 90.3429 22.7516C89.9098 22.7516 89.4766 22.7516 89.0304 22.7516C85.088 21.6534 82.2977 19.1274 79.8429 15.9703C79.3024 16.5108 79.1089 17.0329 78.8038 17.734C77.0592 21.5555 74.5433 23.726 70.7101 25.3595C68.9692 25.937 67.2869 26.106 65.4601 26.0875C65.2507 26.0864 65.0413 26.0852 64.8256 26.084C62.5955 26.0543 60.5575 25.7727 58.4054 25.1578C58.3332 28.3341 58.261 31.5103 58.1866 34.7828C56.1015 32.6977 55.1065 29.1177 55.0938 26.2262C55.0942 26.0615 55.0946 25.8967 55.0951 25.7269C55.0949 25.5533 55.0947 25.3796 55.0945 25.2007C55.0943 24.8349 55.0947 24.469 55.0956 24.1032C55.0968 23.5478 55.0956 22.9925 55.0942 22.4371C55.0944 22.08 55.0947 21.7228 55.0951 21.3656C55.0946 21.2017 55.0942 21.0378 55.0938 20.869C55.0944 20.7113 55.0951 20.5536 55.0958 20.3912C55.096 20.2552 55.0962 20.1193 55.0964 19.9792C55.1377 19.2229 55.2489 18.4719 55.3429 17.7203C57.5807 17.7203 59.8185 17.7203 62.1241 17.7203C62.1241 16.6375 62.1241 15.5547 62.1241 14.4391C60.3195 14.4391 58.5148 14.4391 56.6554 14.4391C56.7998 14.0781 56.9441 13.7172 57.0929 13.3453C57.1576 13.1538 57.2224 12.9622 57.2891 12.7648C57.5887 12.0777 57.8421 11.6589 58.4054 11.1578C59.6797 10.8785 60.9107 10.9512 62.2062 11.0211C62.5585 11.0321 62.9108 11.0421 63.2632 11.051C64.1245 11.0732 64.9814 11.1159 65.8429 11.1578C65.8429 10.075 65.8429 8.99221 65.8429 7.87658C64.4713 7.87658 63.0998 7.87658 61.6866 7.87658C64.7892 4.77402 69.3801 3.2778 73.7042 3.15978Z" fill="#F7ED91"/>
<path d="M80.2795 21.6562C81.2941 22.1103 82.1802 22.7856 83.0813 23.4289C83.9526 24.0275 84.8271 24.464 85.8072 24.8637C86.0423 24.9601 86.2774 25.0565 86.5197 25.1558C86.6982 25.2281 86.8768 25.3005 87.0607 25.375C87.0811 27.2578 87.0966 29.1405 87.106 31.0234C87.1106 31.898 87.1167 32.7726 87.1267 33.6472C87.1364 34.494 87.1415 35.3407 87.1437 36.1875C87.1453 36.5078 87.1484 36.828 87.1532 37.1483C87.2143 41.4084 86.0666 45.1243 83.0463 48.2489C80.5751 50.5196 77.4177 51.8208 74.0642 51.7353C70.3262 51.5407 67.4526 50.285 64.7482 47.6875C62.1787 44.8068 61.4284 41.7486 61.4456 38.0018C61.4459 37.7467 61.4462 37.4915 61.4465 37.2286C61.4478 36.4174 61.4505 35.6061 61.4533 34.7949C61.4544 34.2433 61.4554 33.6918 61.4563 33.1402C61.4587 31.7914 61.4623 30.4426 61.467 29.0938C61.7394 29.0989 61.7394 29.0989 62.0173 29.1042C68.0168 29.2028 73.4757 28.8132 78.092 24.5C78.9069 23.6374 79.7463 22.7226 80.2795 21.6562Z" fill="#FEDDCE"/>
<path d="M6.5625 72.4062C25.0425 72.4062 43.5225 72.4062 62.5625 72.4062C62.5625 80.78 62.5625 89.1538 62.5625 97.7812C57.4372 97.7812 52.3119 97.7812 47.0312 97.7812C47.0312 98.2866 47.0312 98.7919 47.0312 99.3125C45.9484 99.3125 44.8656 99.3125 43.75 99.3125C43.75 98.8072 43.75 98.3019 43.75 97.7812C31.4781 97.7812 19.2062 97.7812 6.5625 97.7812C6.5625 96.6262 6.5625 95.4713 6.5625 94.2812C10.0997 94.2812 13.6369 94.2812 17.2812 94.2812C17.2812 93.7759 17.2812 93.2706 17.2812 92.75C18.3641 92.75 19.4469 92.75 20.5625 92.75C20.5625 93.2553 20.5625 93.7606 20.5625 94.2812C21.6453 94.2812 22.7281 94.2812 23.8438 94.2812C23.8438 93.7759 23.8438 93.2706 23.8438 92.75C36.5488 92.75 49.2537 92.75 62.3438 92.75C62.3438 86.1087 62.3438 79.4675 62.3438 72.625C44.0081 72.625 25.6725 72.625 6.78125 72.625C6.78125 76.5231 6.78125 80.4212 6.78125 84.4375C8.8025 84.4375 10.8237 84.4375 12.9062 84.4375C12.9062 84.5097 12.9062 84.5819 12.9062 84.6562C10.8128 84.6562 8.71937 84.6562 6.5625 84.6562C6.5625 80.6138 6.5625 76.5713 6.5625 72.4062Z" fill="#737276"/>
<path d="M43.75 99.3125C44.8328 99.3125 45.9156 99.3125 47.0312 99.3125C47.0312 99.89 47.0312 100.467 47.0312 101.062C53.1672 101.062 59.3031 101.062 65.625 101.062C65.625 102.506 65.625 103.95 65.625 105.438C45.1237 105.438 24.6225 105.438 3.5 105.438C3.5 103.994 3.5 102.55 3.5 101.062C16.7825 101.062 30.065 101.062 43.75 101.062C43.75 100.485 43.75 99.9075 43.75 99.3125Z" fill="#DDCA9F"/>
<path d="M24.7188 48.7812C25.8016 48.7812 26.8844 48.7812 28 48.7812C28 49.3588 28 49.9362 28 50.5312C29.9491 50.5312 31.8981 50.5312 33.9062 50.5312C33.9062 53.7797 33.9062 57.0281 33.9062 60.375C24.8828 60.375 15.8594 60.375 6.5625 60.375C6.5625 57.1266 6.5625 53.8781 6.5625 50.5312C12.5541 50.5312 18.5456 50.5312 24.7188 50.5312C24.7188 49.9537 24.7188 49.3763 24.7188 48.7812Z" fill="#C3E4F8"/>
<path d="M61.6875 58.8438C62.3372 58.8438 62.9869 58.8438 63.6562 58.8438C63.7781 59.2498 63.7781 59.2498 63.9023 59.6641C65.0941 63.2003 66.8276 65.2814 70.1136 67.0084C72.434 68.0242 75.2674 67.8695 77.6562 67.1562C80.5401 66.0115 82.5273 64.2796 83.7727 61.4243C83.9339 61.0062 84.0771 60.5813 84.2188 60.1562C84.3045 59.9036 84.3902 59.6509 84.4785 59.3906C84.5372 59.2102 84.5958 59.0297 84.6562 58.8438C85.3781 58.8438 86.1 58.8438 86.8438 58.8438C86.866 60.5643 86.8813 62.2848 86.8918 64.0054C86.8957 64.5907 86.9022 65.1757 86.9098 65.761C86.9204 66.6026 86.9253 67.4442 86.9292 68.2859C86.9337 68.5471 86.9382 68.8082 86.9429 69.0773C86.9435 71.3901 86.9435 71.3901 85.9688 72.4062C85.0221 73.1372 84.1561 73.1526 83.0038 73.137C82.7251 73.1371 82.7251 73.1371 82.4408 73.1373C81.8289 73.1368 81.217 73.1317 80.6051 73.1266C80.18 73.1254 79.7549 73.1244 79.3297 73.1238C78.2124 73.1213 77.0951 73.1148 75.9777 73.1076C74.8369 73.1008 73.6962 73.0978 72.5554 73.0945C70.3181 73.0875 68.081 73.076 65.8438 73.0625C65.8438 71.7631 65.8438 70.4637 65.8438 69.125C64.4722 69.125 63.1006 69.125 61.6875 69.125C61.6875 65.7322 61.6875 62.3394 61.6875 58.8438Z" fill="#E1E5EA"/>
<path d="M74.5952 79.625C80.0815 79.625 85.5677 79.625 91.2202 79.625C91.2202 83.3787 91.2202 87.1325 91.2202 91C87.1346 91.0088 87.1346 91.0088 85.399 91.0107C84.2127 91.012 83.0263 91.0135 81.84 91.0165C80.884 91.0189 79.9281 91.0202 78.9721 91.0208C78.6066 91.0212 78.241 91.022 77.8755 91.0231C77.3653 91.0247 76.8551 91.0249 76.3449 91.0248C76.1922 91.0256 76.0396 91.0264 75.8824 91.0272C74.8389 91.0249 74.8389 91.0249 74.5952 90.7812C74.5748 90.4321 74.5695 90.0821 74.5704 89.7323C74.5704 89.5058 74.5705 89.2794 74.5705 89.046C74.5716 88.8063 74.5727 88.5665 74.5739 88.3195C74.5741 88.1004 74.5743 87.8813 74.5745 87.6555C74.5757 86.8335 74.5787 86.0115 74.5816 85.1895C74.5861 83.3532 74.5906 81.5169 74.5952 79.625Z" fill="#090402"/>
<path d="M65.8438 97.5625C66.9266 97.5625 68.0094 97.5625 69.125 97.5625C69.125 100.161 69.125 102.76 69.125 105.438C75.8384 105.438 82.5519 105.438 89.4688 105.438C89.4688 106.159 89.4688 106.881 89.4688 107.625C91.1291 107.625 92.7894 107.625 94.5 107.625C94.5 109.069 94.5 110.512 94.5 112C86.0541 112 77.6081 112 68.9062 112C68.9062 107.308 68.9062 102.616 68.9062 97.7812C67.8956 97.7812 66.885 97.7812 65.8438 97.7812C65.8438 97.7091 65.8438 97.6369 65.8438 97.5625Z" fill="#D7370E"/>
<path d="M81.5938 53.1562C81.6132 53.9492 81.6247 54.7421 81.6349 55.5352C81.6404 55.7568 81.6459 55.9784 81.6515 56.2068C81.6755 58.704 81.0893 60.6777 79.4063 62.5625C78.7887 63.0892 78.1536 63.495 77.4376 63.875C77.3059 63.9492 77.1742 64.0233 77.0385 64.0997C75.4095 64.8666 73.3252 64.8424 71.6493 64.2749C70.4907 63.72 69.5112 63.1288 68.6876 62.125C68.5387 61.9671 68.3898 61.8092 68.2364 61.6465C66.9894 59.8364 66.8177 58.1282 66.8829 55.9727C66.8869 55.7217 66.8908 55.4707 66.8949 55.2122C66.9051 54.5996 66.9194 53.9874 66.9376 53.375C67.2803 53.4764 67.623 53.5781 67.9655 53.6801C68.1564 53.7367 68.3472 53.7933 68.5438 53.8516C69.0938 54.0216 69.6348 54.2096 70.1778 54.4004C73.5424 55.3037 77.6934 54.879 80.7906 53.3246C81.1563 53.1562 81.1563 53.1562 81.5938 53.1562Z" fill="#FCDBCC"/>
<path d="M6.5625 50.5312C12.5541 50.5312 18.5456 50.5312 24.7188 50.5312C24.7188 50.6034 24.7188 50.6756 24.7188 50.75C18.7994 50.75 12.88 50.75 6.78125 50.75C6.78125 52.3381 6.78125 53.9262 6.78125 55.5625C8.51375 55.5625 10.2463 55.5625 12.0312 55.5625C12.0312 56.0678 12.0312 56.5731 12.0312 57.0938C13.1863 57.0938 14.3412 57.0938 15.5312 57.0938C15.5312 56.5884 15.5312 56.0831 15.5312 55.5625C16.5419 55.5625 17.5525 55.5625 18.5938 55.5625C18.5938 56.0678 18.5938 56.5731 18.5938 57.0938C19.7488 57.0938 20.9037 57.0938 22.0938 57.0938C22.0938 56.5884 22.0938 56.0831 22.0938 55.5625C23.1044 55.5625 24.115 55.5625 25.1562 55.5625C25.1562 56.0678 25.1562 56.5731 25.1562 57.0938C26.3113 57.0938 27.4662 57.0938 28.6562 57.0938C28.6562 56.5884 28.6562 56.0831 28.6562 55.5625C30.3888 55.5625 32.1213 55.5625 33.9062 55.5625C33.9062 57.1506 33.9062 58.7387 33.9062 60.375C24.8828 60.375 15.8594 60.375 6.5625 60.375C6.5625 57.1266 6.5625 53.8781 6.5625 50.5312Z" fill="#A3D5F2"/>
<path d="M86.8437 25.375C86.9159 25.375 86.9881 25.375 87.0625 25.375C87.0829 27.2578 87.0984 29.1405 87.1078 31.0234C87.1124 31.898 87.1185 32.7726 87.1285 33.6472C87.1381 34.494 87.1433 35.3407 87.1455 36.1875C87.1471 36.5078 87.1502 36.828 87.155 37.1483C87.2161 41.4084 86.0684 45.1243 83.0481 48.2489C80.5769 50.5196 77.4195 51.8208 74.066 51.7353C70.328 51.5407 67.4544 50.285 64.75 47.6875C62.6221 45.3019 61.4794 42.5718 61.4688 39.375C61.594 39.5335 61.7192 39.6919 61.8481 39.8552C64.7639 43.4648 67.9251 45.924 72.625 46.5938C76.8201 46.8637 80.7275 45.6747 83.9436 42.9382C85.3249 41.5378 86.6422 40.057 86.6699 38.0402C86.6743 37.7599 86.6786 37.4797 86.6831 37.1909C86.6868 36.8839 86.6905 36.5768 86.6942 36.2698C86.6987 35.9565 86.7033 35.6433 86.708 35.33C86.7201 34.505 86.7309 33.6801 86.7414 32.8551C86.7524 32.0134 86.7646 31.1718 86.7767 30.3302C86.8002 28.6785 86.8224 27.0267 86.8437 25.375Z" fill="#FAC9BA"/>
<path d="M108.719 84.6562C109.802 84.6562 110.884 84.6562 112 84.6562C112 93.6797 112 102.703 112 112C110.917 112 109.834 112 108.719 112C108.719 102.977 108.719 93.9531 108.719 84.6562Z" fill="black"/>
<path d="M108.5 84.6562C108.572 84.6562 108.644 84.6562 108.719 84.6562C108.719 93.6797 108.719 102.703 108.719 112C105.109 112 101.5 112 97.7812 112C97.7812 109.834 97.7812 107.669 97.7812 105.438C101.318 105.438 104.856 105.438 108.5 105.438C108.5 98.5797 108.5 91.7219 108.5 84.6562Z" fill="#C5CDD6"/>
<path d="M50.5312 59.2812C50.5312 62.5297 50.5312 65.7781 50.5312 69.125C47.0662 69.125 43.6012 69.125 40.0312 69.125C40.4296 66.3364 41.7524 64.2822 43.75 62.3438C43.8893 62.2025 44.0286 62.0612 44.1721 61.9156C45.973 60.2007 48.0588 59.2812 50.5312 59.2812Z" fill="#E2E6EB"/>
<path d="M77.875 82.9062C81.1956 82.9062 84.5162 82.9062 87.9375 82.9062C87.9375 84.4944 87.9375 86.0825 87.9375 87.7188C86.5396 87.7238 85.1417 87.7281 83.7438 87.7308C83.2679 87.7319 82.7919 87.7334 82.316 87.7353C81.6334 87.7379 80.9509 87.7391 80.2684 87.7401C79.9471 87.7418 79.9471 87.7418 79.6194 87.7435C79.4223 87.7436 79.2252 87.7436 79.0222 87.7436C78.7606 87.7443 78.7606 87.7443 78.4938 87.7451C78.0938 87.7188 78.0938 87.7188 77.875 87.5C77.875 85.9841 77.875 84.4681 77.875 82.9062Z" fill="#DEDEDE"/>
<path d="M53.8125 58.8438C55.3284 58.8438 56.8444 58.8438 58.4062 58.8438C58.4062 62.2366 58.4062 65.6294 58.4062 69.125C56.8903 69.125 55.3744 69.125 53.8125 69.125C53.8125 65.7322 53.8125 62.3394 53.8125 58.8438Z" fill="#D86446"/>
<path d="M18.5938 63.6562C19.7488 63.6562 20.9037 63.6562 22.0938 63.6562C22.0938 65.4609 22.0938 67.2656 22.0938 69.125C20.9387 69.125 19.7838 69.125 18.5938 69.125C18.5938 67.3203 18.5938 65.5156 18.5938 63.6562Z" fill="#8F8E91"/>
<path d="M78.5312 97.7812C79.6141 97.7812 80.6969 97.7812 81.8125 97.7812C81.8125 98.8641 81.8125 99.9469 81.8125 101.062C80.7297 101.062 79.6469 101.062 78.5312 101.062C78.5312 99.9797 78.5312 98.8969 78.5312 97.7812Z" fill="#FEF9F8"/>
<path d="M20.5625 91C21.6453 91 22.7281 91 23.8438 91C23.8438 92.0828 23.8438 93.1656 23.8438 94.2812C22.7609 94.2812 21.6781 94.2812 20.5625 94.2812C20.5625 93.1984 20.5625 92.1156 20.5625 91Z" fill="#FBFBFB"/>
<path d="M25.1562 53.8125C26.2391 53.8125 27.3219 53.8125 28.4375 53.8125C28.4375 54.8953 28.4375 55.9781 28.4375 57.0938C27.3547 57.0938 26.2719 57.0938 25.1562 57.0938C25.1562 56.0109 25.1562 54.9281 25.1562 53.8125Z" fill="#FCFDFE"/>
<path d="M18.5938 53.8125C19.6766 53.8125 20.7594 53.8125 21.875 53.8125C21.875 54.8953 21.875 55.9781 21.875 57.0938C20.7922 57.0938 19.7094 57.0938 18.5938 57.0938C18.5938 56.0109 18.5938 54.9281 18.5938 53.8125Z" fill="#FCFDFE"/>
<path d="M12.0312 53.8125C13.1141 53.8125 14.1969 53.8125 15.3125 53.8125C15.3125 54.8953 15.3125 55.9781 15.3125 57.0938C14.2297 57.0938 13.1469 57.0938 12.0312 57.0938C12.0312 56.0109 12.0312 54.9281 12.0312 53.8125Z" fill="#FCFDFE"/>
<path d="M69.125 7.875C70.2078 7.875 71.2906 7.875 72.4062 7.875C72.4062 8.95781 72.4062 10.0406 72.4062 11.1562C71.3234 11.1562 70.2406 11.1562 69.125 11.1562C69.125 10.0734 69.125 8.99062 69.125 7.875Z" fill="#FFFEFE"/>
</g>
<defs>
<clipPath id="clip0_3014_313">
<rect width="112" height="112" fill="white"/>
</clipPath>
</defs>
</svg>
