<svg width="112" height="112" viewBox="0 0 112 112" fill="none" xmlns="http://www.w3.org/2000/svg">
<g clip-path="url(#clip0_3014_166)">
<path d="M53.6989 -0.044292C53.8688 -0.0458363 54.0387 -0.0473806 54.2138 -0.0489717C59.9709 -0.0894257 64.9611 0.542864 70.4358 2.40639C70.3636 2.98389 70.2914 3.56139 70.217 4.15639C71.0833 4.51733 71.9495 4.87827 72.842 5.25014C72.9864 4.81702 73.1308 4.38389 73.2795 3.93764C76.7152 4.97403 79.6263 7.46354 82.2175 9.85415C82.5969 10.2002 82.9804 10.5241 83.3831 10.8419C84.1879 11.5394 84.8523 12.3049 85.5295 13.1251C85.7103 13.3414 85.891 13.5577 86.0773 13.7805C92.9424 22.1492 95.7936 32.5236 94.8666 43.2376C94.6843 44.7398 94.4055 46.2147 94.0608 47.6876C94.0222 47.8549 93.9835 48.0222 93.9437 48.1946C92.5907 53.8147 89.7111 58.7097 86.1858 63.2189C85.939 63.5375 85.6923 63.8562 85.4458 64.1751C84.8059 65.0012 84.1633 65.8251 83.5199 66.6485C82.844 67.514 82.1703 68.3812 81.4963 69.2482C81.2551 69.5584 81.0138 69.8686 80.7726 70.1787C80.6579 70.3262 80.5431 70.4738 80.4249 70.6257C79.7931 71.438 79.1613 72.2503 78.5295 73.0626C78.3671 72.9453 78.2047 72.828 78.0374 72.7072C77.4796 72.3526 77.4796 72.3526 76.9983 72.4884C76.3486 73.0163 75.9219 73.678 75.467 74.3751C75.828 74.6639 76.1889 74.9526 76.5608 75.2501C76.2014 76.0621 75.697 76.7118 75.1526 77.4103C75.0558 77.5349 74.959 77.6595 74.8593 77.7878C74.5524 78.1822 74.2443 78.5757 73.9358 78.9689C73.8406 79.0903 73.7454 79.2117 73.6473 79.3369C73.2621 79.8278 72.8765 80.3185 72.4906 80.8088C70.4649 83.3827 68.4528 85.9654 66.4983 88.5939C68.1586 88.6661 69.8189 88.7383 71.5295 88.8126C71.5295 88.3073 71.5295 87.802 71.5295 87.2814C74.1996 87.3982 76.8365 87.6195 79.4866 87.965C79.6678 87.9884 79.849 88.0118 80.0357 88.0359C97.1469 90.2674 97.1469 90.2674 103.248 94.7189C103.396 94.8241 103.544 94.9293 103.696 95.0376C104.934 95.9979 105.742 97.1292 105.978 98.6974C106.047 100.307 105.837 101.374 104.78 102.594C104.679 102.721 104.578 102.848 104.474 102.978C97.601 110.758 80.2096 111.02 70.6409 111.698C70.4415 111.712 70.2421 111.726 70.0366 111.741C65.6005 112.048 61.1744 112.104 56.7291 112.085C56.1089 112.082 55.4886 112.081 54.8684 112.08C49.0365 112.068 43.2243 111.997 37.4184 111.391C36.9603 111.343 36.502 111.297 36.0437 111.252C31.4976 110.797 31.4976 110.797 30.842 110.469C30.842 109.964 30.842 109.458 30.842 108.938C29.9036 108.793 28.9652 108.649 27.9983 108.5C27.9261 109.005 27.8539 109.511 27.7795 110.031C21.1269 109.543 11.8488 107.629 7.08716 102.52C6.07854 101.329 5.99033 100.233 6.03699 98.7102C6.23702 97.0644 7.05265 96.1093 8.26977 95.0333C16.0971 89.0404 30.7611 87.03 40.467 87.2814C40.467 87.7867 40.467 88.292 40.467 88.8126C42.1274 88.7405 43.7877 88.6683 45.4983 88.5939C43.8899 86.4981 42.2712 84.4107 40.6481 82.3263C40.2505 81.8155 39.8533 81.3044 39.4562 80.7932C38.3018 79.3074 37.1465 77.8224 35.9827 76.3439C34.6849 74.6952 33.3976 73.0384 32.1104 71.3814C31.5962 70.7196 31.0816 70.058 30.567 69.3965C30.3128 69.0697 30.0587 68.7428 29.8046 68.4159C29.1597 67.5862 28.5138 66.7574 27.8658 65.9302C27.1038 64.9566 26.3467 63.9794 25.592 63.0001C25.4292 62.7901 25.4292 62.7901 25.2631 62.5759C22.2587 58.6833 18.7842 53.5788 18.3733 48.5626C18.8786 48.4905 19.3839 48.4183 19.9045 48.3439C19.8572 48.1778 19.8098 48.0117 19.761 47.8406C19.7001 47.6232 19.6392 47.4058 19.5764 47.1818C19.5155 46.9661 19.4546 46.7503 19.3918 46.5281C19.2483 45.9376 19.2483 45.9376 19.2483 45.2814C18.6708 45.3536 18.0933 45.4258 17.4983 45.5001C17.1187 43.2756 16.9725 41.1078 16.9788 38.8556C16.9789 38.6942 16.979 38.5327 16.9791 38.3664C16.9993 32.3755 18.3756 26.8143 20.9983 21.4376C21.0665 21.2959 21.1346 21.1542 21.2049 21.0083C22.835 17.6583 25.0025 14.7277 27.5608 12.0314C27.7907 11.7596 28.0188 11.4864 28.2444 11.2111C34.1489 4.31707 44.7606 0.0102448 53.6989 -0.044292Z" fill="#E26949"/>
<path d="M40.467 87.2804C40.467 87.7857 40.467 88.2911 40.467 88.8117C40.619 88.7879 40.7709 88.7641 40.9274 88.7395C45.1258 88.1456 45.1258 88.1456 46.4172 88.8588C47.2268 89.5871 47.7676 90.4904 48.3011 91.4312C48.6874 92.0902 49.1497 92.6584 49.6272 93.255C49.8023 93.484 49.9774 93.713 50.1578 93.9489C50.9939 95.0408 51.8422 96.1232 52.689 97.2068C53.2775 97.9619 53.8618 98.7187 54.4286 99.4903C54.5195 99.6139 54.6104 99.7375 54.7041 99.8649C54.942 100.191 55.178 100.518 55.4138 100.845C55.5345 100.988 55.6552 101.132 55.7795 101.28C55.9239 101.28 56.0683 101.28 56.217 101.28C56.5418 100.901 56.8481 100.505 57.1467 100.105C57.3448 99.8416 57.5431 99.5787 57.7415 99.316C57.8483 99.1737 57.9552 99.0315 58.0653 98.885C58.6625 98.0958 59.2724 97.3166 59.8811 96.5363C60.1423 96.2008 60.4035 95.8653 60.6647 95.5297C60.862 95.2762 60.862 95.2762 61.0634 95.0176C61.7406 94.1478 62.4173 93.2776 63.094 92.4074C63.8174 91.4773 63.8174 91.4773 64.1765 91.0298C64.544 90.5599 64.544 90.5599 64.86 90.0094C65.2237 89.4381 65.5315 89.0173 66.0608 88.5929C67.0248 88.3879 67.9168 88.4735 68.8909 88.5793C69.1448 88.5986 69.3987 88.6179 69.6603 88.6378C70.2848 88.6866 70.9068 88.7448 71.5295 88.8117C71.5295 88.3064 71.5295 87.8011 71.5295 87.2804C74.1996 87.3973 76.8365 87.6186 79.4866 87.964C79.6678 87.9874 79.849 88.0108 80.0357 88.0349C97.1469 90.2664 97.1469 90.2664 103.248 94.7179C103.47 94.8757 103.47 94.8757 103.696 95.0367C104.934 95.997 105.742 97.1282 105.978 98.6964C106.047 100.306 105.837 101.373 104.78 102.593C104.679 102.72 104.578 102.847 104.474 102.977C97.601 110.757 80.2096 111.019 70.6409 111.697C70.4415 111.711 70.2421 111.725 70.0366 111.74C65.6005 112.047 61.1744 112.103 56.7292 112.084C56.1089 112.081 55.4886 112.08 54.8684 112.079C49.0365 112.067 43.2243 111.996 37.4184 111.39C36.9603 111.342 36.502 111.296 36.0437 111.251C31.4976 110.796 31.4976 110.796 30.842 110.468C30.842 109.963 30.842 109.457 30.842 108.937C29.9036 108.792 28.9652 108.648 27.9983 108.499C27.9261 109.004 27.8539 109.51 27.7795 110.03C21.1269 109.542 11.8488 107.628 7.08716 102.519C6.07854 101.328 5.99033 100.232 6.03699 98.7093C6.23702 97.0635 7.05265 96.1084 8.26977 95.0324C16.0971 89.0395 30.7611 87.0291 40.467 87.2804Z" fill="#A2D5F3"/>
<path d="M53.7008 -0.044292C53.8707 -0.0458363 54.0406 -0.0473806 54.2157 -0.0489717C59.9728 -0.0894257 64.963 0.542864 70.4377 2.40639C70.3234 3.01075 70.1952 3.57147 70.0002 4.15639C69.8558 4.15639 69.7114 4.15639 69.5627 4.15639C69.4905 4.6617 69.4183 5.16702 69.3439 5.68764C68.1909 5.44214 67.0507 5.16955 65.9143 4.85595C65.0189 4.61084 64.1191 4.38315 63.2189 4.15639C63.0736 4.11868 62.9283 4.08096 62.7786 4.0421C57.96 2.834 52.467 3.21922 47.6877 4.37514C47.3903 4.44159 47.093 4.50797 46.7956 4.57424C37.7969 6.74861 30.436 12.8082 25.6261 20.5792C24.3672 22.6688 23.389 24.8438 22.5314 27.1251C22.449 27.3427 22.449 27.3427 22.3649 27.5646C21.0344 31.1675 20.491 35.0149 20.467 38.8419C20.4648 39.0695 20.4626 39.297 20.4603 39.5315C20.5004 42.9995 22.9933 45.7681 25.0606 48.3824C25.5319 48.9802 25.998 49.5819 26.4647 50.1832C26.8556 50.6867 27.2471 51.1897 27.6387 51.6926C28.1695 52.3742 28.6999 53.0561 29.2298 53.7383C30.3842 55.2241 31.5395 56.7092 32.7033 58.1876C34.0011 59.8363 35.2883 61.4932 36.5756 63.1501C37.2168 63.9754 37.8585 64.8002 38.5002 65.6251C38.7554 65.9533 39.0106 66.2814 39.2658 66.6095C39.4553 66.8531 39.4553 66.8531 39.6486 67.1017C40.7971 68.5783 40.7971 68.5783 41.18 69.0707C41.4347 69.3981 41.6894 69.7255 41.9441 70.0529C42.5905 70.8839 43.2367 71.7151 43.8826 72.5465C45.0382 74.0337 46.1946 75.5202 47.3596 77.0001C48.522 78.4769 49.676 79.9601 50.8288 81.4443C51.3724 82.1441 51.9171 82.843 52.4626 83.5413C52.5994 83.7166 52.7362 83.8919 52.8772 84.0726C53.1373 84.4059 53.3977 84.739 53.6583 85.0719C54.2245 85.7979 54.7741 86.5265 55.2952 87.2857C55.4557 87.5008 55.6161 87.716 55.7814 87.9376C55.9258 87.9376 56.0702 87.9376 56.2189 87.9376C56.6281 87.4305 57.0136 86.9204 57.3947 86.3927C58.3008 85.1601 59.2221 83.9458 60.1838 82.756C60.993 81.7529 61.7933 80.7446 62.5764 79.7208C63.3125 78.7584 64.055 77.8015 64.8049 76.8497C66.1212 75.1785 67.4267 73.4989 68.7318 71.8189C69.373 70.9937 70.0148 70.1688 70.6564 69.3439C70.9117 69.0158 71.1669 68.6876 71.4221 68.3595C72.9533 66.3908 72.9533 66.3908 73.3368 65.8984C73.5906 65.5716 73.8435 65.2442 74.0955 64.9161C74.7498 64.0667 75.4172 63.236 76.1158 62.4225C76.2569 62.2536 76.3981 62.0847 76.5435 61.9107C76.8102 61.5921 77.0822 61.2777 77.3604 60.969C78.6507 59.4051 78.364 58.7825 78.5314 56.4376C81.2746 56.4376 84.0177 56.4376 86.8439 56.4376C86.9883 56.0045 87.1327 55.5714 87.2814 55.1251C87.6424 54.4754 88.0033 53.8258 88.3752 53.1564C86.4261 53.1564 84.4771 53.1564 82.4689 53.1564C82.4689 52.1458 82.4689 51.1351 82.4689 50.0939C84.9233 50.0939 87.3777 50.0939 89.9064 50.0939C89.9786 49.5886 90.0508 49.0833 90.1252 48.5626C90.2045 48.1782 90.2885 47.7947 90.3781 47.4125C91.1455 44.0837 91.1455 44.0837 91.4377 40.6876C91.443 40.5167 91.4483 40.3458 91.4538 40.1697C91.6181 34.662 90.6608 29.3172 88.3752 24.2814C88.3112 24.1402 88.2472 23.9991 88.1813 23.8536C84.734 16.3732 79.0647 11.004 71.9689 7.00014C72.4021 5.98952 72.8352 4.97889 73.2814 3.93764C76.738 5.08982 79.5735 7.41302 82.2194 9.85415C82.5988 10.2002 82.9823 10.5241 83.385 10.8419C84.1898 11.5394 84.8542 12.3049 85.5314 13.1251C85.7122 13.3414 85.8929 13.5577 86.0792 13.7805C92.9443 22.1492 95.7955 32.5236 94.8685 43.2375C94.6862 44.7398 94.4074 46.2147 94.0627 47.6876C94.0241 47.8549 93.9854 48.0222 93.9456 48.1946C92.5926 53.8147 89.713 58.7097 86.1877 63.2189C85.9409 63.5375 85.6942 63.8562 85.4477 64.1751C84.8078 65.0012 84.1652 65.8251 83.5218 66.6485C82.8459 67.514 82.1722 68.3812 81.4982 69.2482C81.257 69.5584 81.0157 69.8686 80.7745 70.1787C80.6598 70.3262 80.545 70.4737 80.4268 70.6257C79.795 71.438 79.1632 72.2503 78.5314 73.0626C78.369 72.9453 78.2066 72.828 78.0393 72.7072C77.4815 72.3526 77.4815 72.3526 77.0002 72.4884C76.3505 73.0163 75.9238 73.678 75.4689 74.3751C75.8299 74.6639 76.1908 74.9526 76.5627 75.2501C76.2034 76.0621 75.6989 76.7117 75.1545 77.4103C75.0577 77.5349 74.9609 77.6595 74.8612 77.7878C74.5543 78.1822 74.2462 78.5757 73.9377 78.9689C73.8425 79.0903 73.7473 79.2117 73.6492 79.3369C73.264 79.8278 72.8784 80.3185 72.4925 80.8088C71.6498 81.8795 70.8102 82.9526 69.9728 84.0275C69.8427 84.1945 69.7125 84.3616 69.5783 84.5337C68.6771 85.6931 67.7949 86.8644 66.93 88.0513C66.4607 88.6437 65.9406 89.1535 65.4064 89.6876C65.0384 90.1347 64.6795 90.5828 64.3264 91.0412C64.1727 91.2386 64.1727 91.2386 64.016 91.44C63.7938 91.7257 63.5719 92.0118 63.3503 92.298C62.9912 92.7618 62.6309 93.2248 62.2705 93.6875C61.7585 94.3449 61.2469 95.0025 60.7358 95.6605C60.1859 96.3684 59.6356 97.0759 59.0849 97.7831C58.9461 97.9614 58.8073 98.1397 58.6643 98.3233C58.3983 98.665 58.1323 99.0067 57.8661 99.3483C57.7458 99.5029 57.6255 99.6575 57.5015 99.8168C57.3962 99.9521 57.2908 100.087 57.1822 100.227C56.8572 100.648 56.5374 101.074 56.2189 101.5C55.3584 101.213 55.1591 100.819 54.6193 100.092C54.4233 99.8309 54.227 99.57 54.0306 99.3092C53.9251 99.1684 53.8196 99.0275 53.7109 98.8824C53.1157 98.0938 52.5064 97.3162 51.8986 96.5372C51.6377 96.202 51.3768 95.8668 51.1159 95.5315C50.5715 94.8324 50.0269 94.1334 49.4821 93.4346C49.2786 93.1733 49.2786 93.1733 49.0709 92.9067C48.8137 92.5765 48.5564 92.2464 48.2989 91.9164C47.7136 91.1649 47.1369 90.4095 46.5734 89.6415C46.0484 88.9369 45.4677 88.3388 44.8439 87.7189C44.3587 87.1341 43.8976 86.5313 43.4357 85.9279C43.1635 85.575 42.8912 85.222 42.6188 84.8692C42.411 84.5989 42.411 84.5989 42.1989 84.3232C41.5385 83.466 40.8738 82.612 40.2092 81.7579C40.0813 81.5935 39.9535 81.4291 39.8217 81.2596C39.0559 80.2751 38.2873 79.2927 37.5158 78.3126C36.218 76.664 34.9308 75.0071 33.6436 73.3502C33.0024 72.5249 32.3606 71.7 31.7189 70.8751C31.4637 70.547 31.2085 70.2189 30.9533 69.8908C30.7638 69.6471 30.7638 69.6471 30.5705 69.3986C30.1877 68.9064 29.8049 68.4142 29.4221 67.922C29.2325 67.6784 29.2325 67.6784 29.0391 67.4298C28.7842 67.1019 28.5295 66.7738 28.2751 66.4454C27.635 65.6201 26.9906 64.7989 26.3365 63.9845C23.3457 60.2418 20.8703 56.2054 19.1545 51.7208C19.0734 51.5099 19.0734 51.5099 18.9906 51.2948C18.6551 50.3788 18.483 49.5255 18.3752 48.5626C18.8805 48.4905 19.3858 48.4183 19.9064 48.3439C19.8591 48.1778 19.8117 48.0117 19.7629 47.8406C19.702 47.6232 19.6411 47.4058 19.5783 47.1818C19.5174 46.9661 19.4565 46.7503 19.3937 46.5281C19.2502 45.9376 19.2502 45.9376 19.2502 45.2814C18.6727 45.3536 18.0952 45.4258 17.5002 45.5001C17.1206 43.2756 16.9744 41.1078 16.9807 38.8556C16.9808 38.6942 16.9809 38.5327 16.981 38.3664C17.0012 32.3755 18.3775 26.8143 21.0002 21.4376C21.0684 21.2959 21.1365 21.1542 21.2068 21.0083C22.8369 17.6583 25.0044 14.7277 27.5627 12.0314C27.7926 11.7596 28.0207 11.4864 28.2463 11.2111C34.1508 4.31707 44.7625 0.0102448 53.7008 -0.044292Z" fill="#D9370E"/>
<path d="M44.3627 88.4644C45.006 88.3549 45.3262 88.3504 45.9375 88.5943C46.8533 89.409 47.5464 90.4405 48.25 91.4362C48.6919 92.0575 49.1599 92.6552 49.6289 93.2564C49.804 93.4854 49.9791 93.7144 50.1595 93.9503C50.9956 95.0422 51.8439 96.1246 52.6907 97.2082C53.2792 97.9633 53.8635 98.7201 54.4303 99.4917C54.5212 99.6153 54.6121 99.7389 54.7058 99.8663C54.9437 100.192 55.1797 100.519 55.4155 100.846C55.5362 100.99 55.6569 101.134 55.7812 101.282C55.9256 101.282 56.07 101.282 56.2188 101.282C56.5435 100.902 56.8498 100.507 57.1484 100.106C57.3465 99.843 57.5448 99.5801 57.7432 99.3174C57.85 99.1751 57.9569 99.0329 58.067 98.8864C58.6642 98.0972 59.2741 97.318 59.8828 96.5377C60.144 96.2022 60.4052 95.8666 60.6664 95.5311C60.798 95.3621 60.9295 95.1931 61.0651 95.019C61.7423 94.1492 62.419 93.279 63.0957 92.4088C63.8191 91.4787 63.8191 91.4787 64.1782 91.0312C64.5457 90.5613 64.5457 90.5613 64.8617 90.0108C65.2254 89.4395 65.5332 89.0187 66.0625 88.5943C67.0265 88.3893 67.9185 88.4749 68.8926 88.5807C69.1465 88.6 69.4004 88.6193 69.662 88.6392C70.2865 88.688 70.9085 88.7462 71.5312 88.8131C71.5312 89.3906 71.5312 89.9681 71.5312 90.5631C71.8601 90.5908 71.8601 90.5908 72.1956 90.6191C76.4719 90.9861 80.7147 91.4467 84.9434 92.19C85.1194 92.2204 85.2954 92.2508 85.4768 92.2822C88.9082 92.88 92.2902 93.705 95.5938 94.815C95.7846 94.8786 95.9754 94.9422 96.172 95.0078C97.6038 95.5 98.9078 96.0887 100.188 96.9068C100.188 97.0512 100.188 97.1956 100.188 97.3443C92.952 100.589 85.2531 101.791 77.4375 102.745C77.2569 102.767 77.0764 102.79 76.8903 102.813C70.4278 103.61 63.9964 103.765 57.4936 103.757C56.6024 103.756 55.7113 103.758 54.8201 103.762C40.6074 103.825 24.9711 103.269 11.8125 97.3443C12.0235 96.8134 12.1581 96.5255 12.6527 96.2232C12.8142 96.1601 12.9757 96.0969 13.1421 96.0318C13.3223 95.9602 13.5025 95.8885 13.6882 95.8146C13.9779 95.7056 13.9779 95.7056 14.2734 95.5943C14.4721 95.5175 14.6707 95.4408 14.8754 95.3616C16.4572 94.7601 18.0488 94.2669 19.6875 93.8443C20.0018 93.7568 20.316 93.6688 20.63 93.5803C25.6304 92.1885 30.7293 91.5718 35.875 91.0006C36.1968 90.9646 36.1968 90.9646 36.5252 90.9279C37.5251 90.8212 38.5046 90.7564 39.5117 90.7682C39.8476 90.7711 39.8476 90.7711 40.1902 90.7741C40.3543 90.7767 40.5184 90.7792 40.6875 90.7818C40.6153 90.1321 40.5431 89.4825 40.4688 88.8131C41.2738 88.753 42.0783 88.6981 42.8844 88.6559C43.7126 88.6169 43.7126 88.6169 44.3627 88.4644Z" fill="#C3E4F8"/>
<path d="M41.562 12.0312C41.8802 12.5024 42.1689 12.9709 42.4524 13.4625C42.5399 13.6112 42.6274 13.7598 42.7175 13.9129C42.9993 14.3922 43.2788 14.8728 43.5581 15.3535C43.8333 15.8238 44.1089 16.2938 44.3847 16.7637C44.5561 17.0561 44.7272 17.3488 44.8976 17.6418C45.0673 17.9326 45.2411 18.221 45.4182 18.5074C45.7183 19.0312 45.7183 19.0312 46.0423 19.7588C46.6102 20.9082 47.0186 21.7061 48.2544 22.1702C49.2388 22.3557 50.2263 22.3818 51.2255 22.3988C51.5956 22.4113 51.9657 22.424 52.3358 22.4369C53.1113 22.4598 53.886 22.4704 54.6619 22.4741C55.4518 22.4797 56.2352 22.5083 57.0235 22.5593C61.1637 22.9445 61.1637 22.9445 64.9236 21.566C66.5234 19.954 67.4267 17.8204 68.2929 15.756C68.8624 14.4293 69.6454 13.235 70.437 12.0312C71.1673 12.3157 71.8147 12.6183 72.4742 13.043C72.703 13.1893 72.703 13.1893 72.9364 13.3386C73.0501 13.4125 73.1637 13.4864 73.2808 13.5625C72.9822 14.578 72.564 15.4041 72.0102 16.3046C71.9298 16.4361 71.8494 16.5676 71.7666 16.703C71.5115 17.1199 71.2546 17.5355 70.9976 17.9512C70.8259 18.2309 70.6543 18.5108 70.4828 18.7907C70.1671 19.3057 69.8506 19.8202 69.5335 20.3344C69.1745 20.9186 68.8198 21.505 68.4683 22.0938C68.6755 22.088 68.8827 22.0823 69.0962 22.0764C69.875 22.0576 70.6535 22.044 71.4323 22.0337C71.7675 22.0282 72.1027 22.0208 72.4378 22.0112C74.4188 21.9563 76.2224 21.9244 77.8746 23.1875C79.0631 24.4482 79.7534 25.7039 79.7066 27.46C79.4685 29.0274 78.612 30.309 77.3747 31.2701C76.8952 31.5639 76.466 31.6848 75.9058 31.7188C75.8776 31.9687 75.8494 32.2187 75.8204 32.4762C75.6986 33.4465 75.511 34.3942 75.3042 35.3495C75.2662 35.528 75.2281 35.7065 75.1888 35.8905C75.0641 36.4734 74.9382 37.056 74.812 37.6387C74.7691 37.8382 74.7261 38.0378 74.6818 38.2434C74.0183 41.3236 73.3313 44.3982 72.6245 47.4688C72.5819 47.6548 72.5392 47.8409 72.4952 48.0326C72.3749 48.5557 72.2538 49.0787 72.1324 49.6016C72.0788 49.8344 72.0788 49.8344 72.0242 50.0719C71.7749 51.1368 71.7749 51.1368 71.5308 51.625C65.467 51.625 59.4033 51.625 53.1558 51.625C53.1558 50.5422 53.1558 49.4594 53.1558 48.3438C58.3533 48.2716 63.5508 48.1994 68.9058 48.125C69.1559 46.9931 69.406 45.8612 69.6637 44.6951C69.8222 43.9793 69.9807 43.2635 70.1393 42.5477C70.3912 41.4109 70.6429 40.2741 70.8939 39.1371C71.0963 38.2208 71.2991 37.3045 71.5024 36.3884C71.58 36.0383 71.6573 35.6882 71.7345 35.3381C71.8423 34.8488 71.9509 34.3596 72.0597 33.8705C72.1214 33.5916 72.1831 33.3128 72.2466 33.0255C72.4058 32.375 72.4058 32.375 72.6245 31.9375C61.652 31.9375 50.6795 31.9375 39.3745 31.9375C39.8799 34.0309 40.3852 36.1244 40.9058 38.2812C41.3071 40.0531 41.7053 41.8253 42.0953 43.5996C42.1936 44.045 42.292 44.4903 42.3905 44.9356C42.6255 45.9986 42.8594 47.0618 43.0933 48.125C45.3311 48.1972 47.5689 48.2694 49.8745 48.3438C49.8745 49.4266 49.8745 50.5094 49.8745 51.625C46.7705 51.625 43.6664 51.625 40.4683 51.625C40.0792 50.6522 39.8358 49.7327 39.6266 48.7146C39.5888 48.5352 39.5511 48.3558 39.5121 48.1709C39.4306 47.7835 39.3494 47.3961 39.2686 47.0086C38.702 44.2924 38.1248 41.5791 37.4947 38.8768C37.4491 38.6812 37.4035 38.4856 37.3565 38.2841C37.1375 37.3477 36.9165 36.4119 36.6935 35.4765C36.6139 35.1385 36.5343 34.8005 36.4547 34.4625C36.4179 34.3107 36.3811 34.1589 36.3432 34.0025C36.1613 33.2262 36.0527 32.5164 36.0933 31.7188C35.9312 31.6962 35.769 31.6736 35.602 31.6504C34.4371 31.3596 33.5887 30.4884 32.9428 29.4988C32.2765 28.1472 32.0855 26.9105 32.56 25.4673C33.2413 23.9245 34.1888 23.0395 35.688 22.2994C36.4667 22.0428 37.1882 22.039 37.998 22.051C38.236 22.052 38.236 22.052 38.4788 22.0529C38.9825 22.0553 39.4861 22.0608 39.9898 22.0664C40.3326 22.0686 40.6754 22.0706 41.0182 22.0724C41.8557 22.0772 42.6933 22.0847 43.5308 22.0938C42.9509 21.1169 42.371 20.14 41.7911 19.1631C41.594 18.8311 41.3969 18.499 41.1998 18.167C40.9158 17.6886 40.6318 17.2102 40.3478 16.7318C40.2603 16.5843 40.1728 16.4369 40.0826 16.2849C39.9578 16.0748 39.9578 16.0748 39.8306 15.8605C39.753 15.7286 39.6754 15.5966 39.5954 15.4607C39.3964 15.1301 39.1849 14.8072 38.9719 14.4855C38.8882 14.3253 38.8045 14.1651 38.7183 14C38.9943 13.1719 39.2758 13.0772 40.0171 12.6465C40.3111 12.4726 40.3111 12.4726 40.611 12.2953C41.1245 12.0312 41.1245 12.0312 41.562 12.0312Z" fill="#040201"/>
<path d="M39.375 31.9375C50.3475 31.9375 61.32 31.9375 72.625 31.9375C71.3629 38.248 71.3629 38.248 70.9058 40.2773C70.8544 40.507 70.8031 40.7367 70.7502 40.9733C70.6447 41.4444 70.5388 41.9154 70.4327 42.3863C70.2694 43.1115 70.1078 43.8371 69.9462 44.5626C69.8423 45.0255 69.7383 45.4883 69.6343 45.9512C69.5862 46.1673 69.5381 46.3835 69.4886 46.6062C69.444 46.8032 69.3993 47.0001 69.3534 47.203C69.3144 47.3764 69.2754 47.5499 69.2353 47.7286C69.125 48.125 69.125 48.125 68.9062 48.3438C68.4164 48.3644 67.9259 48.3694 67.4356 48.3686C67.282 48.3686 67.1283 48.3686 66.97 48.3687C66.4599 48.3685 65.9497 48.3668 65.4396 48.3651C65.0868 48.3647 64.734 48.3644 64.3812 48.3642C63.4508 48.3633 62.5205 48.3612 61.5901 48.3588C60.6415 48.3565 59.6928 48.3555 58.7442 48.3544C56.8815 48.3521 55.0189 48.3483 53.1562 48.3438C53.1562 48.9213 53.1562 49.4987 53.1562 50.0938C52.0734 50.0938 50.9906 50.0938 49.875 50.0938C49.875 49.5162 49.875 48.9388 49.875 48.3438C47.6372 48.3438 45.3994 48.3438 43.0938 48.3438C42.8141 47.6446 42.5993 47.1027 42.4467 46.3928C42.4115 46.2315 42.3763 46.0702 42.3401 45.904C42.3034 45.7315 42.2668 45.559 42.229 45.3812C42.1894 45.1989 42.1498 45.0165 42.1091 44.8287C41.9807 44.2369 41.8537 43.6448 41.7266 43.0527C41.5508 42.24 41.3743 41.4274 41.1976 40.6149C41.1541 40.4143 41.1106 40.2137 41.0657 40.007C40.6447 38.0728 40.2002 36.1445 39.7418 34.2188C39.6681 33.9059 39.6681 33.9059 39.5929 33.5867C39.5504 33.4089 39.508 33.2312 39.4642 33.048C39.375 32.5938 39.375 32.5938 39.375 31.9375Z" fill="#F5EB90"/>
<path d="M71.5312 87.2812C74.2013 87.3981 76.8382 87.6194 79.4883 87.9648C79.6695 87.9882 79.8507 88.0116 80.0374 88.0357C97.1486 90.2672 97.1486 90.2672 103.25 94.7188C103.472 94.8765 103.472 94.8765 103.698 95.0375C104.936 95.9978 105.744 97.129 105.98 98.6973C106.049 100.307 105.839 101.373 104.781 102.594C104.68 102.721 104.579 102.848 104.475 102.978C97.6027 110.758 80.2113 111.02 70.6426 111.698C70.4432 111.712 70.2438 111.726 70.0383 111.74C65.6022 112.048 61.1761 112.104 56.7309 112.085C56.1106 112.082 55.4903 112.081 54.8701 112.08C49.0382 112.068 43.2261 111.997 37.4201 111.391C36.962 111.343 36.5037 111.297 36.0454 111.252C31.4993 110.797 31.4993 110.797 30.8438 110.469C30.9881 109.386 31.1325 108.303 31.2812 107.188C32.0241 107.251 32.7669 107.315 33.5098 107.379C33.74 107.399 33.9701 107.418 34.2073 107.439C35.2699 107.531 36.3319 107.624 37.3926 107.736C56.4922 109.741 79.4962 110.121 101.281 101.063C101.769 100.636 102.028 100.313 102.375 99.75C102.413 98.9619 102.208 98.7143 101.683 98.129C97.5466 94.3517 90.2541 93.3265 84.916 92.4082C84.7325 92.376 84.5489 92.3438 84.3598 92.3107C81.0932 91.7411 77.8194 91.3439 74.5187 91.0337C74.35 91.0178 74.1813 91.0018 74.0075 90.9854C73.6925 90.956 73.3774 90.9276 73.0623 90.9004C72.0163 90.805 72.0163 90.805 71.5312 90.5625C71.5312 89.4797 71.5312 88.3969 71.5312 87.2812Z" fill="#010102"/>
<path d="M21.6562 47.9062C21.7001 48.0271 21.7439 48.1479 21.7891 48.2724C23.868 53.9621 26.6534 58.505 30.4045 63.2581C31.1248 64.1714 31.839 65.0894 32.5527 66.0078C32.6815 66.1735 32.8103 66.3392 32.943 66.5099C33.2059 66.8483 33.4688 67.1866 33.7316 67.525C34.3728 68.3502 35.0146 69.1751 35.6562 70C35.9115 70.3281 36.1667 70.6562 36.4219 70.9844C36.5482 71.1468 36.6745 71.3092 36.8047 71.4766C37.9531 72.9531 37.9531 72.9531 38.3361 73.4455C38.5908 73.7729 38.8454 74.1004 39.1001 74.4278C39.7465 75.2588 40.3928 76.09 41.0387 76.9214C42.1943 78.4086 43.3507 79.8951 44.5156 81.375C45.8134 83.0237 47.1006 84.6805 48.3879 86.3375C49.155 87.3247 49.9227 88.3114 50.6903 89.2982C51.3559 90.1538 52.0212 91.0096 52.6863 91.8656C52.8245 92.0434 52.9626 92.2212 53.105 92.4044C53.3688 92.7438 53.6326 93.0833 53.8962 93.4229C54.0756 93.6536 54.0756 93.6536 54.2585 93.889C54.37 94.0327 54.4815 94.1764 54.5963 94.3245C54.8687 94.671 55.1492 95.0112 55.4309 95.3502C55.7812 95.8125 55.7812 95.8125 55.7812 96.25C55.9256 96.25 56.07 96.25 56.2188 96.25C56.2718 96.131 56.3248 96.012 56.3794 95.8894C56.7226 95.2517 57.1402 94.7157 57.5859 94.1445C57.681 94.0222 57.7761 93.8999 57.8741 93.7738C58.0839 93.5041 58.2941 93.2347 58.5045 92.9654C58.8577 92.5134 59.2097 92.0606 59.5615 91.6075C60.2102 90.7724 60.8597 89.9379 61.5093 89.1036C62.1524 88.2776 62.7949 87.4513 63.4375 86.625C63.5633 86.4633 63.6891 86.3016 63.8187 86.135C64.4652 85.3039 65.1115 84.4726 65.7574 83.6411C68.3345 80.3246 68.3345 80.3246 69.5187 78.8283C70.1025 78.0891 70.6761 77.343 71.2441 76.5916C71.4516 76.3192 71.4516 76.3192 71.6633 76.0413C71.9358 75.6831 72.2068 75.3237 72.4759 74.9629C72.5995 74.801 72.7232 74.6392 72.8506 74.4724C73.0149 74.2542 73.0149 74.2542 73.1826 74.0316C73.5 73.7188 73.5 73.7188 74.1562 73.7188C74.5798 73.959 74.9938 74.2165 75.4004 74.4844C75.6178 74.6265 75.8352 74.7686 76.0592 74.915C76.2253 75.0256 76.3914 75.1361 76.5625 75.25C76.2032 76.0619 75.6987 76.7116 75.1543 77.4102C75.0575 77.5347 74.9607 77.6593 74.861 77.7877C74.5541 78.1821 74.246 78.5756 73.9375 78.9688C73.8423 79.0902 73.7471 79.2116 73.649 79.3367C73.2638 79.8277 72.8782 80.3183 72.4923 80.8087C71.6496 81.8794 70.8101 82.9525 69.9727 84.0273C69.8425 84.1944 69.7123 84.3614 69.5781 84.5335C68.6769 85.693 67.7947 86.8642 66.9298 88.0511C66.4606 88.6436 65.9404 89.1533 65.4062 89.6875C65.0382 90.1345 64.6793 90.5827 64.3262 91.041C64.2238 91.1726 64.1213 91.3042 64.0158 91.4398C63.7936 91.7256 63.5717 92.0116 63.3501 92.2979C62.991 92.7617 62.6308 93.2246 62.2703 93.6874C61.7583 94.3447 61.2467 95.0024 60.7356 95.6604C60.1857 96.3682 59.6354 97.0757 59.0847 97.783C58.9459 97.9612 58.8071 98.1395 58.6641 98.3232C58.3981 98.6649 58.1321 99.0066 57.8659 99.3482C57.7456 99.5028 57.6253 99.6574 57.5013 99.8167C57.396 99.952 57.2906 100.087 57.182 100.227C56.857 100.648 56.5372 101.073 56.2188 101.5C55.3582 101.213 55.1589 100.818 54.6191 100.092C54.4231 99.8308 54.2268 99.5699 54.0304 99.3091C53.9249 99.1682 53.8194 99.0274 53.7107 98.8823C53.1155 98.0937 52.5062 97.316 51.8984 96.5371C51.6375 96.2019 51.3766 95.8666 51.1157 95.5314C50.5713 94.8322 50.0267 94.1333 49.4819 93.4344C49.3462 93.2602 49.2105 93.086 49.0707 92.9065C48.8135 92.5763 48.5562 92.2463 48.2987 91.9163C47.7134 91.1648 47.1367 90.4093 46.5732 89.6414C46.0482 88.9367 45.4675 88.3387 44.8438 87.7188C44.3585 87.1339 43.8974 86.5312 43.4355 85.9277C43.1633 85.5748 42.891 85.2219 42.6187 84.869C42.4108 84.5988 42.4108 84.5988 42.1987 84.3231C41.5383 83.4658 40.8736 82.6118 40.209 81.7578C40.0811 81.5934 39.9533 81.4289 39.8215 81.2595C39.0557 80.2749 38.2871 79.2926 37.5156 78.3125C36.2178 76.6638 34.9306 75.007 33.6434 73.35C33.0022 72.5248 32.3604 71.6999 31.7188 70.875C31.4635 70.5469 31.2083 70.2188 30.9531 69.8906C30.8268 69.7282 30.7005 69.5658 30.5703 69.3984C30.1875 68.9062 29.8047 68.4141 29.4219 67.9219C29.2955 67.7595 29.1691 67.597 29.0389 67.4297C28.784 67.1018 28.5293 66.7736 28.2749 66.4453C27.6348 65.6199 26.9904 64.7987 26.3363 63.9844C23.3455 60.2416 20.8701 56.2052 19.1543 51.7207C19.1002 51.5801 19.0461 51.4395 18.9904 51.2946C18.655 50.3787 18.4828 49.5253 18.375 48.5625C18.7986 48.4522 19.2225 48.343 19.6465 48.2344C19.8825 48.1735 20.1185 48.1126 20.3617 48.0498C21 47.9062 21 47.9062 21.6562 47.9062Z" fill="#020100"/>
<path d="M73.2812 3.9375C76.7378 5.08967 79.5733 7.41288 82.2192 9.854C82.5986 10.2001 82.9822 10.5239 83.3848 10.8418C84.1896 11.5393 84.854 12.3048 85.5312 13.125C85.712 13.3413 85.8928 13.5576 86.079 13.7804C92.9441 22.1491 95.7953 32.5235 94.8683 43.2374C94.686 44.7396 94.4072 46.2145 94.0625 47.6875C94.0239 47.8548 93.9852 48.0221 93.9454 48.1944C92.5924 53.8146 89.7128 58.7095 86.1875 63.2188C85.9407 63.5374 85.694 63.8561 85.4475 64.1749C84.8076 65.0011 84.165 65.825 83.5216 66.6484C82.8457 67.5139 82.172 68.3811 81.498 69.248C81.2568 69.5582 81.0156 69.8684 80.7743 70.1786C80.6596 70.3261 80.5448 70.4736 80.4266 70.6256C79.7948 71.4379 79.163 72.2502 78.5312 73.0625C77.5446 72.5243 76.7408 71.8369 75.9062 71.0938C76.243 70.0354 76.8499 69.3092 77.5469 68.4688C77.7866 68.1744 78.0262 67.8799 78.2655 67.5852C78.3848 67.4388 78.5041 67.2924 78.6271 67.1415C79.3868 66.2016 80.1161 65.2381 80.8492 64.2774C81.3279 63.65 81.8077 63.0235 82.2873 62.3968C82.8585 61.6501 83.4292 60.9032 84 60.1562C82.1953 60.0841 80.3906 60.0119 78.5312 59.9375C78.5312 58.7825 78.5312 57.6275 78.5312 56.4375C81.2744 56.4375 84.0175 56.4375 86.8437 56.4375C87.0603 55.7878 87.0603 55.7878 87.2812 55.125C87.6422 54.4753 88.0031 53.8256 88.375 53.1562C86.4259 53.1562 84.4769 53.1562 82.4687 53.1562C82.4687 52.1456 82.4687 51.135 82.4687 50.0938C84.9231 50.0938 87.3775 50.0938 89.9062 50.0938C89.9784 49.5884 90.0506 49.0831 90.125 48.5625C90.2043 48.178 90.2883 47.7945 90.3779 47.4124C91.1453 44.0835 91.1453 44.0835 91.4375 40.6875C91.4428 40.5166 91.4481 40.3457 91.4536 40.1696C91.6179 34.6619 90.6606 29.3171 88.375 24.2812C88.311 24.1401 88.247 23.9989 88.1811 23.8535C84.7338 16.3731 79.0645 11.0039 71.9688 7C72.4019 5.98938 72.835 4.97875 73.2812 3.9375Z" fill="#020000"/>
<path d="M53.7008 -0.044292C53.8707 -0.0458363 54.0406 -0.0473806 54.2157 -0.0489717C59.9728 -0.0894257 64.963 0.542864 70.4377 2.40639C70.3234 3.01075 70.1952 3.57147 70.0002 4.15639C69.8558 4.15639 69.7114 4.15639 69.5627 4.15639C69.4905 4.6617 69.4183 5.16702 69.3439 5.68764C68.1909 5.44214 67.0507 5.16955 65.9143 4.85595C65.0189 4.61084 64.1191 4.38315 63.2189 4.15639C63.0736 4.11868 62.9283 4.08096 62.7786 4.0421C57.96 2.834 52.467 3.21922 47.6877 4.37514C47.3903 4.44159 47.093 4.50797 46.7956 4.57424C37.7969 6.74861 30.436 12.8082 25.6261 20.5793C24.3672 22.6688 23.389 24.8438 22.5314 27.1251C22.449 27.3427 22.449 27.3427 22.3649 27.5646C20.3099 33.1294 20.2943 39.0069 20.7814 44.8439C20.4403 44.9552 20.0983 45.0641 19.7561 45.172C19.4705 45.2634 19.4705 45.2634 19.1793 45.3566C18.5933 45.5003 18.1003 45.5107 17.5002 45.5001C17.1206 43.2756 16.9744 41.1078 16.9807 38.8556C16.9808 38.6942 16.9809 38.5327 16.981 38.3664C17.0012 32.3755 18.3775 26.8143 21.0002 21.4376C21.0684 21.2959 21.1365 21.1542 21.2068 21.0083C22.8369 17.6583 25.0044 14.7277 27.5627 12.0314C27.7926 11.7596 28.0207 11.4864 28.2463 11.2111C34.1508 4.31707 44.7625 0.0102448 53.7008 -0.044292Z" fill="#010000"/>
<path d="M40.467 87.2812C40.5392 88.4363 40.6114 89.5912 40.6858 90.7812C40.2357 90.8185 39.7857 90.8557 39.322 90.894C23.4832 91.7165 23.4832 91.7165 9.84204 98.4375C9.51391 99.0573 9.51391 99.0573 9.62329 99.75C10.6483 101.535 12.6243 102.237 14.4358 103.031C14.6414 103.122 14.6414 103.122 14.8512 103.215C19.0102 105.013 23.7418 105.917 28.217 106.531C28.1862 106.992 28.154 107.452 28.1213 107.912C28.0947 108.297 28.0947 108.297 28.0675 108.689C27.9983 109.375 27.9983 109.375 27.7795 110.031C21.1269 109.543 11.8488 107.629 7.08716 102.519C6.07854 101.329 5.99033 100.233 6.03699 98.7101C6.23702 97.0643 7.05265 96.1092 8.26977 95.0332C16.2665 88.9106 30.6102 87.2812 40.467 87.2812Z" fill="#010101"/>
<path d="M54.25 63.2188C55.405 63.2188 56.56 63.2188 57.75 63.2188C57.8222 68.4163 57.8944 73.6138 57.9688 78.9688C58.835 77.8137 59.7013 76.6588 60.5938 75.4688C61.0269 74.8912 61.46 74.3138 61.9062 73.7188C63.0196 74.0667 63.8476 74.7567 64.75 75.4688C64.4593 76.0904 64.1317 76.6133 63.7075 77.1521C63.5865 77.3067 63.4654 77.4614 63.3407 77.6207C63.2102 77.7858 63.0797 77.951 62.9453 78.1211C62.6676 78.4754 62.3899 78.8297 62.1122 79.1841C61.9695 79.3655 61.8269 79.547 61.6799 79.7339C61.0011 80.5982 60.3254 81.4648 59.6504 82.332C59.5237 82.4947 59.397 82.6574 59.2664 82.8251C58.2344 84.1528 57.2201 85.4928 56.2188 86.8438C55.5146 86.609 55.4221 86.5165 55.0088 85.9457C54.9048 85.8042 54.8009 85.6627 54.6938 85.517C54.5834 85.3638 54.4731 85.2106 54.3594 85.0527C54.1233 84.7312 53.8869 84.4099 53.6501 84.0889C53.5309 83.9267 53.4117 83.7646 53.2889 83.5975C52.7744 82.9057 52.2426 82.2283 51.707 81.5527C50.7406 80.3314 49.789 79.0997 48.8445 77.8613C48.4832 77.3977 48.1167 76.9525 47.7336 76.5078C47.25 75.9062 47.25 75.9062 47.25 75.4688C47.6296 75.1526 48.0243 74.8543 48.4258 74.5664C48.644 74.4079 48.8623 74.2495 49.0872 74.0862C49.6562 73.7188 49.6562 73.7188 50.0938 73.7188C50.3636 74.0123 50.3636 74.0123 50.6646 74.4229C50.7757 74.5729 50.8868 74.7229 51.0012 74.8774C51.1168 75.0365 51.2324 75.1955 51.3516 75.3594C51.4638 75.5116 51.576 75.6639 51.6917 75.8208C51.907 76.113 52.1218 76.4056 52.3357 76.6988C52.8959 77.4592 53.4646 78.2132 54.0312 78.9688C54.1034 73.7712 54.1756 68.5737 54.25 63.2188Z" fill="#070302"/>
<path d="M42 43.5312C51.24 43.5312 60.48 43.5312 70 43.5312C69.2562 47.9937 69.2563 47.9937 68.9062 48.3438C68.4164 48.3644 67.9259 48.3694 67.4356 48.3686C67.282 48.3686 67.1283 48.3686 66.97 48.3687C66.4599 48.3685 65.9497 48.3668 65.4396 48.3651C65.0868 48.3647 64.734 48.3644 64.3812 48.3642C63.4508 48.3633 62.5205 48.3612 61.5901 48.3588C60.6415 48.3565 59.6928 48.3555 58.7442 48.3544C56.8815 48.3521 55.0189 48.3483 53.1562 48.3438C53.1562 48.9213 53.1562 49.4987 53.1562 50.0938C52.0734 50.0938 50.9906 50.0938 49.875 50.0938C49.875 49.5162 49.875 48.9388 49.875 48.3438C47.6372 48.3438 45.3994 48.3438 43.0938 48.3438C42.6562 47.25 42.6562 47.25 42 43.5312Z" fill="#F7E767"/>
<path d="M38.3288 25.239C38.4854 25.2377 38.6421 25.2365 38.8034 25.2352C39.3272 25.2324 39.8505 25.2374 40.3742 25.2423C40.7501 25.2419 41.126 25.241 41.5019 25.2397C42.522 25.2375 43.5419 25.2422 44.562 25.2481C45.6293 25.2533 46.6965 25.2527 47.7638 25.2528C49.5558 25.2538 51.3478 25.259 53.1398 25.2669C55.2123 25.276 57.2848 25.2799 59.3573 25.2806C61.5631 25.2814 63.7688 25.2855 65.9745 25.2909C66.6105 25.2923 67.2465 25.2931 67.8825 25.2937C68.8813 25.295 69.8801 25.2986 70.8789 25.3039C71.2458 25.3056 71.6126 25.3065 71.9795 25.3066C72.4797 25.3068 72.9797 25.3098 73.4799 25.3135C73.76 25.3145 74.0401 25.3155 74.3286 25.3165C74.997 25.3707 75.3615 25.4319 75.9061 25.8109C76.3436 26.4672 76.3436 26.4672 76.3162 27.2328C76.1248 27.9984 76.1248 27.9984 75.7734 28.369C75.053 28.7621 74.5001 28.7386 73.6806 28.741C73.4432 28.743 73.4432 28.743 73.2011 28.745C72.6707 28.7486 72.1405 28.7476 71.6101 28.7465C71.23 28.7481 70.8498 28.75 70.4696 28.7522C69.4369 28.757 68.4042 28.7577 67.3715 28.7572C66.5098 28.7572 65.6481 28.7591 64.7865 28.7609C62.7541 28.7651 60.7218 28.7657 58.6895 28.7643C56.5914 28.7628 54.4935 28.7678 52.3955 28.7759C50.5952 28.7826 48.7948 28.7851 46.9944 28.7843C45.9187 28.7838 44.8431 28.785 43.7674 28.7904C42.7561 28.7952 41.745 28.7949 40.7338 28.7904C40.3623 28.7897 39.9909 28.7908 39.6195 28.7939C39.1129 28.7979 38.6069 28.7951 38.1003 28.7906C37.675 28.7909 37.675 28.7909 37.241 28.7911C36.5311 28.6547 36.5311 28.6547 36.0032 28.1335C35.6068 27.4796 35.4881 27.2137 35.6561 26.4672C36.4857 25.425 37.0125 25.2369 38.3288 25.239Z" fill="#F5EB90"/>
<path d="M91.2188 42.2188C91.2909 42.2188 91.3631 42.2188 91.4375 42.2188C91.319 44.9081 90.6428 47.516 89.9062 50.0938C87.4519 50.0938 84.9975 50.0938 82.4688 50.0938C82.4688 51.1044 82.4688 52.115 82.4688 53.1562C84.4178 53.1562 86.3669 53.1562 88.375 53.1562C87.9267 54.2769 87.3835 55.3579 86.8438 56.4375C84.8947 56.4375 82.9456 56.4375 80.9375 56.4375C81.5872 55.3005 82.0791 54.5357 82.9062 53.5938C82.6897 53.5216 82.4731 53.4494 82.25 53.375C82.25 52.22 82.25 51.065 82.25 49.875C82.8004 49.9201 83.3509 49.9652 83.918 50.0117C84.8649 50.0076 85.6458 49.9053 86.4102 49.3158C87.4449 48.2375 88.2414 46.9812 89.0312 45.7188C89.254 45.3721 89.4767 45.0255 89.6995 44.6788C90.0848 44.0732 90.4594 43.4627 90.8265 42.8459C90.956 42.639 91.0854 42.432 91.2188 42.2188Z" fill="#C0330F"/>
<path d="M54.25 36.75C55.405 36.75 56.56 36.75 57.75 36.75C57.75 38.9156 57.75 41.0813 57.75 43.3125C56.595 43.3125 55.44 43.3125 54.25 43.3125C54.25 41.1469 54.25 38.9812 54.25 36.75Z" fill="#0F0F09"/>
<path d="M63.2188 36.75C64.3016 36.75 65.3844 36.75 66.5 36.75C66.5 38.9156 66.5 41.0813 66.5 43.3125C65.4172 43.3125 64.3344 43.3125 63.2188 43.3125C63.2188 41.1469 63.2188 38.9812 63.2188 36.75Z" fill="#070704"/>
<path d="M45.5 36.75C46.5828 36.75 47.6656 36.75 48.7812 36.75C48.7812 38.9156 48.7812 41.0813 48.7812 43.3125C47.6984 43.3125 46.6156 43.3125 45.5 43.3125C45.5 41.1469 45.5 38.9812 45.5 36.75Z" fill="#070704"/>
<path d="M85.7227 53.2798C85.9567 53.2867 86.1907 53.2936 86.4319 53.3007C87.0073 53.3187 87.5815 53.3438 88.1562 53.3755C87.8202 54.4957 87.3846 55.3564 86.8438 56.438C84.8947 56.438 82.9456 56.438 80.9375 56.438C82.8347 53.118 82.8347 53.118 85.7227 53.2798Z" fill="#DA380E"/>
<path d="M54.25 56.6562C55.405 56.6562 56.56 56.6562 57.75 56.6562C57.75 57.7391 57.75 58.8219 57.75 59.9375C56.595 59.9375 55.44 59.9375 54.25 59.9375C54.25 58.8547 54.25 57.7719 54.25 56.6562Z" fill="#FDF5F4"/>
<path d="M71.9688 56.6562C73.0516 56.6562 74.1344 56.6562 75.25 56.6562C75.25 57.7391 75.25 58.8219 75.25 59.9375C74.1672 59.9375 73.0844 59.9375 71.9688 59.9375C71.9688 58.8547 71.9688 57.7719 71.9688 56.6562Z" fill="#FDF9F7"/>
</g>
<defs>
<clipPath id="clip0_3014_166">
<rect width="112" height="112" fill="white"/>
</clipPath>
</defs>
</svg>
